<svg xmlns="http://www.w3.org/2000/svg" xmlns:xlink="http://www.w3.org/1999/xlink" width="500" zoomAndPan="magnify" viewBox="0 0 375 374.999991" height="500" preserveAspectRatio="xMidYMid meet" version="1.0"><defs><g/><clipPath id="86a8c2e679"><path d="M 120.410156 137 L 137 137 L 137 182 L 120.410156 182 Z M 120.410156 137 " clip-rule="nonzero"/></clipPath><clipPath id="54bf6d5c88"><path d="M 143 70.515625 L 188 70.515625 L 188 87 L 143 87 Z M 143 70.515625 " clip-rule="nonzero"/></clipPath><clipPath id="abe10370e7"><path d="M 238 93 L 254.660156 93 L 254.660156 138 L 238 138 Z M 238 93 " clip-rule="nonzero"/></clipPath><clipPath id="91eafea85b"><path d="M 187 188 L 232 188 L 232 204.765625 L 187 204.765625 Z M 187 188 " clip-rule="nonzero"/></clipPath></defs><rect x="-37.5" width="450" fill="#ffffff" y="-37.499999" height="449.999989" fill-opacity="1"/><rect x="-37.5" width="450" fill="#063061" y="-37.499999" height="449.999989" fill-opacity="1"/><g clip-path="url(#86a8c2e679)"><path fill="#18c2fe" d="M 134.875 181.375 L 133.773438 180.40625 C 121.457031 168.894531 116.789062 153.785156 123.441406 144.472656 C 126.3125 140.476562 130.824219 138.113281 136.242188 137.335938 L 136.269531 137.335938 L 134.203125 138.675781 C 123.765625 146.59375 123.550781 164.144531 133.238281 179.09375 Z M 134.875 181.375 " fill-opacity="1" fill-rule="evenodd"/></g><path fill="#18c2fe" d="M 135.679688 181.804688 L 138.121094 180.460938 C 148.347656 174.34375 158.277344 165.246094 166.488281 153.730469 C 178.832031 136.449219 184.789062 117.34375 184.066406 101.429688 L 183.582031 96.304688 L 183.714844 96.519531 C 195.417969 117.503906 184.332031 149.195312 157.257812 169.726562 C 151.835938 173.832031 146.171875 177.214844 140.402344 179.84375 Z M 135.679688 181.804688 " fill-opacity="1" fill-rule="evenodd"/><g clip-path="url(#54bf6d5c88)"><path fill="#127dfd" d="M 143.730469 84.980469 L 144.695312 83.878906 C 156.210938 71.5625 171.316406 66.890625 180.628906 73.546875 C 184.628906 76.417969 186.988281 80.925781 187.769531 86.347656 L 187.769531 86.375 L 186.425781 84.308594 C 178.511719 73.867188 160.960938 73.652344 146.011719 83.339844 Z M 143.730469 84.980469 " fill-opacity="1" fill-rule="evenodd"/></g><path fill="#127dfd" d="M 143.300781 85.785156 L 144.644531 88.226562 C 150.761719 98.449219 159.859375 108.378906 171.371094 116.589844 C 188.652344 128.9375 207.761719 134.894531 223.675781 134.167969 L 228.800781 133.6875 L 228.585938 133.820312 C 207.601562 145.519531 175.90625 134.4375 155.378906 107.359375 C 151.269531 101.9375 147.890625 96.277344 145.261719 90.507812 Z M 143.300781 85.785156 " fill-opacity="1" fill-rule="evenodd"/><g clip-path="url(#abe10370e7)"><path fill="#18c2fe" d="M 240.125 93.835938 L 241.226562 94.800781 C 253.542969 106.3125 258.210938 121.421875 251.558594 130.734375 C 248.6875 134.734375 244.175781 137.09375 238.757812 137.871094 L 238.730469 137.871094 L 240.796875 136.53125 C 251.234375 128.613281 251.449219 111.0625 241.761719 96.117188 Z M 240.125 93.835938 " fill-opacity="1" fill-rule="evenodd"/></g><path fill="#18c2fe" d="M 239.320312 93.40625 L 236.878906 94.746094 C 226.652344 100.867188 216.722656 109.964844 208.511719 121.476562 C 196.167969 138.757812 190.210938 157.863281 190.933594 173.777344 L 191.417969 178.90625 L 191.285156 178.691406 C 179.582031 157.703125 190.667969 126.011719 217.742188 105.480469 C 223.164062 101.375 228.828125 97.992188 234.597656 95.363281 Z M 239.320312 93.40625 " fill-opacity="1" fill-rule="evenodd"/><g clip-path="url(#91eafea85b)"><path fill="#127dfd" d="M 231.269531 190.230469 L 230.304688 191.328125 C 218.789062 203.648438 203.683594 208.316406 194.371094 201.660156 C 190.371094 198.789062 188.011719 194.28125 187.230469 188.859375 L 187.230469 188.832031 L 188.574219 190.898438 C 196.488281 201.339844 214.039062 201.554688 228.988281 191.867188 Z M 231.269531 190.230469 " fill-opacity="1" fill-rule="evenodd"/></g><path fill="#127dfd" d="M 231.699219 189.425781 L 230.355469 186.980469 C 224.238281 176.757812 215.140625 166.828125 203.628906 158.617188 C 186.347656 146.273438 167.238281 140.3125 151.324219 141.039062 L 146.199219 141.523438 L 146.414062 141.386719 C 167.398438 129.6875 199.09375 140.769531 219.621094 167.847656 C 223.726562 173.269531 227.109375 178.929688 229.738281 184.699219 Z M 231.699219 189.425781 " fill-opacity="1" fill-rule="evenodd"/><path fill="#18c2fe" d="M 177.679688 133.765625 L 183.957031 136.019531 L 183.070312 138.195312 C 181.597656 141.46875 179.824219 144.6875 177.785156 147.882812 L 175.289062 151.476562 L 169.414062 149.386719 L 170.863281 147.210938 C 172.203125 145.011719 173.4375 142.785156 174.59375 140.527344 Z M 177.679688 133.765625 " fill-opacity="1" fill-rule="evenodd"/><g fill="#ffffff" fill-opacity="1"><g transform="translate(98.583798, 236.583895)"><g><path d="M 2.09375 1.75 L 2.09375 -6.21875 L 17.921875 -6.21875 L 17.921875 1.75 Z M 11.046875 -15.703125 L 18.890625 -15.703125 L 18.890625 -7.15625 L 11.046875 -7.15625 Z M 1.015625 -12.0625 L 3.875 -12.0625 L 4.65625 -13.703125 L 3.796875 -13.703125 L 3.46875 -12.84375 L 0.625 -12.84375 L 1.828125 -16.265625 L 4.78125 -16.265625 L 4.515625 -15.625 L 10.046875 -15.625 L 10.046875 -13.703125 L 7.765625 -13.703125 L 6.953125 -12.0625 L 10.359375 -12.0625 L 10.359375 -10.171875 L 9.015625 -10.171875 L 10.5 -6.734375 L 7.578125 -6.734375 L 6.21875 -10.171875 L 6.015625 -10.171875 L 4.3125 -6.734375 L 1.28125 -6.734375 L 2.9375 -10.171875 L 1.015625 -10.171875 Z M 14.75 -0.140625 L 14.75 -1.28125 L 5.296875 -1.28125 L 5.296875 -0.140625 Z M 5.296875 -3.1875 L 14.75 -3.1875 L 14.75 -4.3125 L 5.296875 -4.3125 Z M 15.984375 -13.734375 L 13.9375 -13.734375 L 13.9375 -9.140625 L 15.984375 -9.140625 Z M 15.984375 -13.734375 "/></g></g></g><g fill="#ffffff" fill-opacity="1"><g transform="translate(118.842689, 236.583895)"><g><path d="M 7.375 -1.484375 L 4.359375 -1.484375 L 4.359375 2.1875 L 1.59375 2.1875 L 1.59375 -9.84375 L 10.125 -9.84375 L 10.125 0.65625 L 7.90625 2.453125 L 6.21875 0.453125 L 7.375 -0.328125 Z M 13.859375 -4.890625 L 18.609375 -5.453125 L 18.609375 -3.0625 L 13.859375 -2.5 L 13.859375 -0.1875 L 16.765625 -0.1875 L 17.015625 -1.34375 L 19.359375 -1.34375 L 18.640625 1.921875 L 11 1.921875 L 11 -6.9375 L 13.859375 -6.9375 Z M 13.859375 -14.203125 L 18.609375 -14.78125 L 18.609375 -12.375 L 13.859375 -11.8125 L 13.859375 -9.90625 L 16.765625 -9.90625 L 17.015625 -11.0625 L 19.359375 -11.0625 L 18.640625 -7.78125 L 11 -7.78125 L 11 -16.25 L 13.859375 -16.25 Z M 1.484375 -12.734375 L 3.671875 -16.21875 L 6.671875 -16.21875 L 4.515625 -12.46875 L 7.359375 -12.6875 L 6.875 -14.96875 L 9.46875 -14.96875 L 10.484375 -10.25 L 7.890625 -10.25 L 7.765625 -10.828125 L 1.484375 -10.453125 Z M 4.359375 -3.359375 L 7.375 -3.359375 L 7.375 -4.796875 L 4.359375 -4.796875 Z M 4.359375 -6.6875 L 7.375 -6.6875 L 7.375 -7.828125 L 4.359375 -7.828125 Z M 4.359375 -6.6875 "/></g></g></g><g fill="#ffffff" fill-opacity="1"><g transform="translate(139.101579, 236.583895)"><g><path d="M 7.03125 2.09375 L 7.03125 -4.84375 L 18.890625 -4.84375 L 18.890625 2.09375 Z M 3.296875 -16.1875 L 6.53125 -16.1875 L 5.40625 -12.234375 L 5.40625 2.109375 L 2.40625 2.109375 L 2.40625 -7.09375 L 0.84375 -7.09375 Z M 14.40625 -16.25 L 14.609375 -15.296875 L 19.171875 -15.296875 L 19.171875 -13.03125 L 6.734375 -13.03125 L 6.734375 -15.296875 L 11.28125 -15.296875 L 11.0625 -16.25 Z M 18.5625 -8.3125 L 18.5625 -6.046875 L 7.34375 -6.046875 L 7.34375 -8.3125 Z M 18.5625 -11.796875 L 18.5625 -9.546875 L 7.34375 -9.546875 L 7.34375 -11.796875 Z M 9.953125 0.15625 L 15.8125 0.15625 L 15.8125 -2.921875 L 9.953125 -2.921875 Z M 9.953125 0.15625 "/></g></g></g><g fill="#ffffff" fill-opacity="1"><g transform="translate(159.36047, 236.583895)"><g><path d="M 9.890625 -15.265625 L 18.015625 -15.265625 L 18.015625 -4.9375 L 1.890625 -4.9375 L 1.890625 -15.265625 L 6.40625 -15.265625 L 6.90625 -16.15625 L 10.390625 -16.15625 Z M 5.59375 -4.171875 L 8.75 -4.171875 L 8.75 -0.203125 L 12.265625 -0.203125 L 12.734375 -1.296875 L 15.40625 -1.296875 L 14.21875 1.96875 L 5.59375 1.96875 Z M 2 -4 L 5.03125 -4 L 3.84375 1.96875 L 0.828125 1.96875 Z M 19.421875 1.96875 L 16.390625 1.96875 L 15.21875 -4 L 18.234375 -4 Z M 5.125 -9.578125 L 14.8125 -9.578125 L 14.8125 -10.578125 L 5.125 -10.578125 Z M 5.125 -12.484375 L 14.8125 -12.484375 L 14.8125 -13.3125 L 5.125 -13.3125 Z M 13.875 -1.6875 L 10.859375 -1.6875 L 10.078125 -4.3125 L 13.09375 -4.3125 Z M 14.8125 -6.890625 L 14.8125 -7.703125 L 5.125 -7.703125 L 5.125 -6.890625 Z M 14.8125 -6.890625 "/></g></g></g><g fill="#ffffff" fill-opacity="1"><g transform="translate(179.619361, 236.583895)"><g><path d="M 5.640625 -14.375 L 10.5625 -14.375 L 10.5625 -11.4375 L 7.4375 -4.484375 L 10.4375 -0.40625 L 19.265625 -0.40625 L 19.265625 1.921875 L 8.046875 1.921875 L 5.953125 -1.21875 L 4.5625 1.921875 L 1.5 1.921875 L 4.078125 -4.078125 L 1.171875 -8.515625 L 4.484375 -8.515625 L 5.4375 -7.21875 L 7.5 -12.015625 L 4.890625 -12.015625 L 4.046875 -9.46875 L 0.796875 -9.46875 L 2.953125 -16.328125 L 6.28125 -16.328125 Z M 11.46875 -16.25 L 14.625 -16.25 L 14.625 -1.109375 L 11.46875 -1.109375 Z M 15.234375 -13.453125 L 18.078125 -13.453125 L 19.21875 -3.53125 L 16.375 -3.53125 Z M 15.234375 -13.453125 "/></g></g></g><g fill="#ffffff" fill-opacity="1"><g transform="translate(199.878252, 236.583895)"><g><path d="M 11.984375 -4.078125 L 11.984375 -5.609375 L 7.890625 -5.609375 L 7.890625 -15.75 L 18.921875 -15.75 L 18.921875 -5.609375 L 14.8125 -5.609375 L 14.8125 -4.078125 L 18.828125 -4.078125 L 18.828125 -2.03125 L 14.8125 -2.03125 L 14.8125 0.015625 L 19.25 0.015625 L 19.25 2.046875 L 7.515625 2.046875 L 7.515625 0.015625 L 11.984375 0.015625 L 11.984375 -2.03125 L 8.28125 -2.03125 L 8.28125 -4.078125 Z M 2.546875 -8.734375 L 2.546875 -13.328125 L 1.03125 -13.328125 L 1.03125 -15.578125 L 7.03125 -15.578125 L 7.03125 -13.328125 L 5.484375 -13.328125 L 5.484375 -8.734375 L 7.171875 -8.734375 L 7.171875 -6.390625 L 5.484375 -6.390625 L 5.484375 -0.875 L 7.25 -0.875 L 7.25 1.296875 L 1.046875 1.296875 L 1.046875 -0.875 L 2.546875 -0.875 L 2.546875 -6.390625 L 1 -6.390625 L 1 -8.734375 Z M 14.8125 -13.734375 L 14.8125 -11.671875 L 16.09375 -11.671875 L 16.09375 -13.734375 Z M 16.09375 -7.6875 L 16.09375 -9.6875 L 14.8125 -9.6875 L 14.8125 -7.6875 Z M 10.734375 -11.671875 L 11.984375 -11.671875 L 11.984375 -13.734375 L 10.734375 -13.734375 Z M 10.734375 -7.6875 L 11.984375 -7.6875 L 11.984375 -9.6875 L 10.734375 -9.6875 Z M 10.734375 -7.6875 "/></g></g></g><g fill="#ffffff" fill-opacity="1"><g transform="translate(220.137142, 236.583895)"><g><path d="M 1.890625 1.78125 L 6.90625 -3.21875 L 0.953125 -3.21875 L 0.953125 -5.3125 L 10.28125 -5.3125 L 10.28125 -11.953125 L 13.421875 -11.953125 L 13.421875 -5.3125 L 19.09375 -5.3125 L 19.09375 -3.21875 L 10.9375 -3.21875 L 6.1875 1.78125 Z M 15.75 -12.96875 L 4.515625 -12.96875 L 4.515625 -11.78125 L 7.59375 -11.78125 L 9.84375 -9.03125 L 6.5 -9.03125 L 4.515625 -11.46875 L 4.515625 -11.375 L 1.34375 -11.375 L 1.34375 -15.078125 L 8.515625 -15.078125 L 8.109375 -16.21875 L 11.59375 -16.21875 L 12 -15.078125 L 18.921875 -15.078125 L 18.921875 -11.375 L 15.75 -11.375 Z M 14.671875 -2.265625 L 18.890625 1.984375 L 15.15625 1.984375 L 10.96875 -2.265625 Z M 6 -8.796875 L 8.25 -6.140625 L 4.71875 -6.140625 L 2.5 -8.796875 Z M 6 -8.796875 "/></g></g></g><g fill="#ffffff" fill-opacity="1"><g transform="translate(240.396033, 236.583895)"><g><path d="M 5.453125 -6.015625 L 0.90625 -6.015625 L 1.625 -12.78125 L 4.015625 -12.78125 L 3.59375 -7.921875 L 4.84375 -7.921875 L 5.203125 -14 L 1.03125 -14 L 1.03125 -15.96875 L 7.984375 -15.96875 L 7.703125 -11.921875 L 11.109375 -16.109375 L 16.09375 -16.109375 L 19.515625 -11.515625 L 15.828125 -11.515625 L 13.578125 -14.78125 L 11.1875 -11.515625 L 7.6875 -11.515625 L 7.421875 -7.921875 L 8.0625 -7.921875 L 8.0625 0.671875 L 5.875 2.390625 L 4.234375 0.625 L 5.453125 -0.359375 Z M 8.34375 -0.34375 L 19.25 -0.34375 L 19.25 1.890625 L 8.34375 1.890625 Z M 8.671875 -10.984375 L 18.71875 -10.984375 L 18.71875 -8.734375 L 8.671875 -8.734375 Z M 14.21875 -8.03125 L 15.203125 -0.890625 L 12.703125 -0.890625 L 11.734375 -8.03125 Z M 10.78125 -8.03125 L 11.78125 -0.90625 L 9.296875 -0.90625 L 8.265625 -8.03125 Z M 18.6875 -8.03125 L 17.75 -0.84375 L 15.34375 -0.84375 L 16.25 -8.03125 Z M 4.9375 -4.34375 L 4.9375 -2.265625 L 0.84375 -1.75 L 0.84375 -3.8125 Z M 4.9375 -4.34375 "/></g></g></g><g fill="#ffffff" fill-opacity="1"><g transform="translate(260.654924, 236.583895)"><g><path d="M 1.03125 1.90625 L 1.03125 -0.1875 L 8.265625 -0.1875 L 8.265625 -1.859375 L 1.96875 -1.859375 L 1.96875 -3.828125 L 8.265625 -3.828125 L 8.265625 -5.03125 L 2.390625 -4.796875 L 2.390625 -7.234375 L 4.25 -9.328125 L 1.921875 -9.328125 L 1.921875 -11.3125 L 18.3125 -11.3125 L 18.3125 -9.328125 L 8.140625 -9.328125 L 6.0625 -7.03125 L 13.859375 -7.375 L 13.25 -8.75 L 16.421875 -8.75 L 18.078125 -5 L 14.9375 -5 L 14.8125 -5.265625 L 11.578125 -5.140625 L 11.578125 -3.828125 L 18.28125 -3.828125 L 18.28125 -1.859375 L 11.578125 -1.859375 L 11.578125 -0.1875 L 18.921875 -0.1875 L 18.921875 1.90625 Z M 1.03125 -11.546875 L 1.03125 -15.359375 L 8.140625 -15.359375 L 7.71875 -16.328125 L 11.59375 -16.328125 L 12.03125 -15.359375 L 19.046875 -15.359375 L 19.046875 -11.546875 L 15.75 -11.546875 L 15.75 -13.296875 L 4.421875 -13.296875 L 4.421875 -11.546875 Z M 1.03125 -11.546875 "/></g></g></g><g fill="#ffffff" fill-opacity="1"><g transform="translate(51.465757, 260.965972)"><g><path d="M 1.15625 -9.078125 L 1.15625 0.4375 L 2.015625 0.4375 L 2.015625 -9.078125 Z M 1.15625 -9.078125 "/></g></g></g><g fill="#ffffff" fill-opacity="1"><g transform="translate(54.634104, 260.965972)"><g><path d="M 0.90625 -6.5 L 0.90625 0.4375 L 1.734375 0.4375 L 1.734375 -4.875 C 2.390625 -5.5625 3.15625 -5.96875 3.921875 -5.96875 C 5.03125 -5.96875 5.734375 -5.296875 5.734375 -4.09375 L 5.734375 0.4375 L 6.59375 0.4375 L 6.59375 -4.25 C 6.59375 -5.84375 5.75 -6.6875 4.140625 -6.6875 C 3.265625 -6.6875 2.4375 -6.234375 1.734375 -5.453125 L 1.734375 -6.5 Z M 0.90625 -6.5 "/></g></g></g><g fill="#ffffff" fill-opacity="1"><g transform="translate(62.122926, 260.965972)"><g><path d="M 0.140625 -6.359375 L 0.140625 -5.65625 L 1.234375 -5.65625 L 1.234375 -0.578125 C 1.234375 0.265625 1.734375 0.578125 2.5 0.578125 C 2.875 0.578125 3.1875 0.53125 3.46875 0.4375 L 3.46875 -0.25 C 3.28125 -0.1875 3.109375 -0.140625 2.9375 -0.140625 C 2.3125 -0.140625 2.0625 -0.28125 2.0625 -0.90625 L 2.0625 -5.65625 L 3.484375 -5.65625 L 3.484375 -6.359375 L 2.0625 -6.359375 L 2.0625 -8.328125 L 1.234375 -8.328125 L 1.234375 -6.359375 Z M 0.140625 -6.359375 "/></g></g></g><g fill="#ffffff" fill-opacity="1"><g transform="translate(65.84115, 260.965972)"><g><path d="M 0.625 -3 C 0.625 -0.96875 1.625 0.671875 3.78125 0.671875 C 5.3125 0.671875 6.328125 -0.109375 6.8125 -1.25 L 6.03125 -1.390625 C 5.671875 -0.609375 4.890625 -0.046875 3.796875 -0.046875 C 2.28125 -0.046875 1.421875 -1.21875 1.46875 -2.78125 L 6.828125 -2.78125 L 6.828125 -3.21875 C 6.828125 -5.046875 5.84375 -6.6875 3.765625 -6.6875 C 1.65625 -6.6875 0.625 -4.890625 0.625 -3 Z M 1.46875 -3.453125 C 1.46875 -4.71875 2.375 -5.96875 3.765625 -5.96875 C 5.1875 -5.96875 5.984375 -4.71875 5.984375 -3.453125 Z M 1.46875 -3.453125 "/></g></g></g><g fill="#ffffff" fill-opacity="1"><g transform="translate(73.277598, 260.965972)"><g><path d="M 0.90625 -9.078125 L 0.90625 0.4375 L 1.75 0.4375 L 1.75 -9.078125 Z M 0.90625 -9.078125 "/></g></g></g><g fill="#ffffff" fill-opacity="1"><g transform="translate(75.93534, 260.965972)"><g><path d="M 0.90625 -9.078125 L 0.90625 0.4375 L 1.75 0.4375 L 1.75 -9.078125 Z M 0.90625 -9.078125 "/></g></g></g><g fill="#ffffff" fill-opacity="1"><g transform="translate(78.593081, 260.965972)"><g><path d="M 0.90625 -6.5 L 0.90625 0.4375 L 1.75 0.4375 L 1.75 -6.5 Z M 0.90625 -9.078125 L 0.90625 -7.6875 L 1.75 -7.6875 L 1.75 -9.078125 Z M 0.90625 -9.078125 "/></g></g></g><g fill="#ffffff" fill-opacity="1"><g transform="translate(81.250822, 260.965972)"><g><path d="M 0.671875 -3.03125 C 0.671875 -0.890625 1.8125 0.609375 3.625 0.609375 C 4.3125 0.609375 5.21875 0.328125 6.109375 -0.5625 L 6.109375 -0.34375 C 6.109375 1.53125 5.21875 2.4375 3.65625 2.4375 C 2.75 2.4375 1.984375 2.0625 1.578125 1.21875 L 0.828125 1.375 C 1.3125 2.59375 2.359375 3.140625 3.625 3.140625 C 6.09375 3.140625 6.9375 1.65625 6.9375 -0.375 L 6.9375 -6.5 L 6.109375 -6.5 L 6.109375 -5.453125 C 5.28125 -6.390625 4.453125 -6.6875 3.59375 -6.6875 C 1.8125 -6.6875 0.671875 -5.203125 0.671875 -3.03125 Z M 3.765625 -0.140625 C 2.21875 -0.140625 1.5 -1.5 1.5 -3.03125 C 1.5 -4.640625 2.296875 -5.9375 3.765625 -5.9375 C 4.6875 -5.9375 5.53125 -5.421875 6.109375 -4.640625 L 6.109375 -1.3125 C 5.5 -0.640625 4.625 -0.140625 3.765625 -0.140625 Z M 3.765625 -0.140625 "/></g></g></g><g fill="#ffffff" fill-opacity="1"><g transform="translate(89.093136, 260.965972)"><g><path d="M 0.625 -3 C 0.625 -0.96875 1.625 0.671875 3.78125 0.671875 C 5.3125 0.671875 6.328125 -0.109375 6.8125 -1.25 L 6.03125 -1.390625 C 5.671875 -0.609375 4.890625 -0.046875 3.796875 -0.046875 C 2.28125 -0.046875 1.421875 -1.21875 1.46875 -2.78125 L 6.828125 -2.78125 L 6.828125 -3.21875 C 6.828125 -5.046875 5.84375 -6.6875 3.765625 -6.6875 C 1.65625 -6.6875 0.625 -4.890625 0.625 -3 Z M 1.46875 -3.453125 C 1.46875 -4.71875 2.375 -5.96875 3.765625 -5.96875 C 5.1875 -5.96875 5.984375 -4.71875 5.984375 -3.453125 Z M 1.46875 -3.453125 "/></g></g></g><g fill="#ffffff" fill-opacity="1"><g transform="translate(96.529585, 260.965972)"><g><path d="M 0.90625 -6.5 L 0.90625 0.4375 L 1.734375 0.4375 L 1.734375 -4.875 C 2.390625 -5.5625 3.15625 -5.96875 3.921875 -5.96875 C 5.03125 -5.96875 5.734375 -5.296875 5.734375 -4.09375 L 5.734375 0.4375 L 6.59375 0.4375 L 6.59375 -4.25 C 6.59375 -5.84375 5.75 -6.6875 4.140625 -6.6875 C 3.265625 -6.6875 2.4375 -6.234375 1.734375 -5.453125 L 1.734375 -6.5 Z M 0.90625 -6.5 "/></g></g></g><g fill="#ffffff" fill-opacity="1"><g transform="translate(104.018407, 260.965972)"><g><path d="M 0.140625 -6.359375 L 0.140625 -5.65625 L 1.234375 -5.65625 L 1.234375 -0.578125 C 1.234375 0.265625 1.734375 0.578125 2.5 0.578125 C 2.875 0.578125 3.1875 0.53125 3.46875 0.4375 L 3.46875 -0.25 C 3.28125 -0.1875 3.109375 -0.140625 2.9375 -0.140625 C 2.3125 -0.140625 2.0625 -0.28125 2.0625 -0.90625 L 2.0625 -5.65625 L 3.484375 -5.65625 L 3.484375 -6.359375 L 2.0625 -6.359375 L 2.0625 -8.328125 L 1.234375 -8.328125 L 1.234375 -6.359375 Z M 0.140625 -6.359375 "/></g></g></g><g fill="#ffffff" fill-opacity="1"><g transform="translate(107.736631, 260.965972)"><g/></g></g><g fill="#ffffff" fill-opacity="1"><g transform="translate(111.795253, 260.965972)"><g><path d="M 1.15625 -9.078125 L 1.15625 0.4375 L 2.015625 0.4375 L 2.015625 -9.078125 Z M 1.15625 -9.078125 "/></g></g></g><g fill="#ffffff" fill-opacity="1"><g transform="translate(114.9636, 260.965972)"><g><path d="M 0.90625 -6.5 L 0.90625 0.4375 L 1.734375 0.4375 L 1.734375 -4.875 C 2.390625 -5.5625 3.15625 -5.96875 3.921875 -5.96875 C 5.03125 -5.96875 5.734375 -5.296875 5.734375 -4.09375 L 5.734375 0.4375 L 6.59375 0.4375 L 6.59375 -4.25 C 6.59375 -5.84375 5.75 -6.6875 4.140625 -6.6875 C 3.265625 -6.6875 2.4375 -6.234375 1.734375 -5.453125 L 1.734375 -6.5 Z M 0.90625 -6.5 "/></g></g></g><g fill="#ffffff" fill-opacity="1"><g transform="translate(122.452422, 260.965972)"><g><path d="M 0.15625 -6.359375 L 0.15625 -5.65625 L 1.5 -5.65625 L 1.5 0.421875 L 2.328125 0.421875 L 2.328125 -5.65625 L 4.125 -5.65625 L 4.125 -6.359375 L 2.328125 -6.359375 L 2.328125 -7.640625 C 2.328125 -8.3125 2.8125 -8.546875 3.296875 -8.546875 C 3.625 -8.546875 3.875 -8.453125 4.078125 -8.328125 L 4.078125 -9.0625 C 3.84375 -9.171875 3.5 -9.265625 3.09375 -9.265625 C 2.203125 -9.265625 1.5 -8.875 1.5 -7.828125 L 1.5 -6.359375 Z M 0.15625 -6.359375 "/></g></g></g><g fill="#ffffff" fill-opacity="1"><g transform="translate(126.733617, 260.965972)"><g><path d="M 0.59375 -3.03125 C 0.59375 -1 1.59375 0.671875 3.796875 0.671875 C 6.015625 0.671875 7 -0.9375 7 -3.03125 C 7 -5.015625 6 -6.6875 3.796875 -6.6875 C 1.640625 -6.6875 0.59375 -4.96875 0.59375 -3.03125 Z M 1.4375 -3.03125 C 1.4375 -4.6875 2.296875 -5.9375 3.796875 -5.9375 C 5.34375 -5.9375 6.15625 -4.71875 6.15625 -3.03125 C 6.15625 -1.296875 5.453125 -0.078125 3.796875 -0.078125 C 2.15625 -0.078125 1.4375 -1.34375 1.4375 -3.03125 Z M 1.4375 -3.03125 "/></g></g></g><g fill="#ffffff" fill-opacity="1"><g transform="translate(134.327171, 260.965972)"><g><path d="M 0.90625 -6.5 L 0.90625 0.4375 L 1.734375 0.4375 L 1.734375 -4.265625 C 2.515625 -5.375 3.59375 -5.9375 4.25 -5.9375 L 4.25 -6.65625 C 3.375 -6.65625 2.21875 -5.765625 1.734375 -5 L 1.734375 -6.5 Z M 0.90625 -6.5 "/></g></g></g><g fill="#ffffff" fill-opacity="1"><g transform="translate(138.700013, 260.965972)"><g><path d="M 0.90625 -6.5 L 0.90625 0.4375 L 1.734375 0.4375 L 1.734375 -4.734375 C 2.296875 -5.390625 3.109375 -5.96875 3.84375 -5.96875 C 4.6875 -5.96875 5.4375 -5.328125 5.4375 -4.171875 L 5.4375 0.4375 L 6.28125 0.4375 L 6.28125 -4.734375 C 6.8125 -5.375 7.640625 -5.96875 8.3125 -5.96875 C 9.328125 -5.96875 9.9375 -5.265625 9.9375 -4.21875 L 9.9375 0.4375 L 10.796875 0.4375 L 10.796875 -4.3125 C 10.796875 -5.84375 9.984375 -6.6875 8.578125 -6.6875 C 7.734375 -6.6875 6.84375 -6.15625 6.125 -5.359375 L 6.109375 -5.359375 C 5.625 -6.421875 4.90625 -6.6875 4.0625 -6.6875 C 3.1875 -6.6875 2.328125 -6.1875 1.734375 -5.453125 L 1.734375 -6.5 Z M 0.90625 -6.5 "/></g></g></g><g fill="#ffffff" fill-opacity="1"><g transform="translate(150.391469, 260.965972)"><g><path d="M 0.640625 -1.0625 C 0.640625 0.125 1.703125 0.609375 2.796875 0.609375 C 3.953125 0.609375 4.921875 0.140625 5.59375 -0.59375 C 5.609375 -0.578125 5.625 -0.046875 5.640625 -0.03125 C 5.703125 0.34375 6.046875 0.5 6.40625 0.5 C 6.59375 0.5 6.90625 0.46875 7.15625 0.421875 L 7.15625 -0.140625 C 6.59375 -0.09375 6.421875 -0.140625 6.421875 -0.5 L 6.421875 -4.5625 C 6.421875 -5.828125 5.5625 -6.6875 3.734375 -6.6875 C 2.28125 -6.6875 1.25 -5.953125 0.875 -4.75 L 1.671875 -4.640625 C 2.03125 -5.6875 2.890625 -5.96875 3.703125 -5.96875 C 5.078125 -5.96875 5.5625 -5.296875 5.5625 -4.5 L 5.5625 -4.015625 C 2.703125 -3.59375 0.640625 -2.921875 0.640625 -1.0625 Z M 1.5 -1.140625 C 1.5 -2.5 3.359375 -2.984375 5.5625 -3.296875 L 5.5625 -1.265625 C 4.875 -0.609375 4.0625 -0.109375 2.953125 -0.109375 C 2.03125 -0.109375 1.5 -0.4375 1.5 -1.140625 Z M 1.5 -1.140625 "/></g></g></g><g fill="#ffffff" fill-opacity="1"><g transform="translate(157.827918, 260.965972)"><g><path d="M 0.140625 -6.359375 L 0.140625 -5.65625 L 1.234375 -5.65625 L 1.234375 -0.578125 C 1.234375 0.265625 1.734375 0.578125 2.5 0.578125 C 2.875 0.578125 3.1875 0.53125 3.46875 0.4375 L 3.46875 -0.25 C 3.28125 -0.1875 3.109375 -0.140625 2.9375 -0.140625 C 2.3125 -0.140625 2.0625 -0.28125 2.0625 -0.90625 L 2.0625 -5.65625 L 3.484375 -5.65625 L 3.484375 -6.359375 L 2.0625 -6.359375 L 2.0625 -8.328125 L 1.234375 -8.328125 L 1.234375 -6.359375 Z M 0.140625 -6.359375 "/></g></g></g><g fill="#ffffff" fill-opacity="1"><g transform="translate(161.546142, 260.965972)"><g><path d="M 0.90625 -6.5 L 0.90625 0.4375 L 1.75 0.4375 L 1.75 -6.5 Z M 0.90625 -9.078125 L 0.90625 -7.6875 L 1.75 -7.6875 L 1.75 -9.078125 Z M 0.90625 -9.078125 "/></g></g></g><g fill="#ffffff" fill-opacity="1"><g transform="translate(164.203883, 260.965972)"><g><path d="M 0.59375 -3.03125 C 0.59375 -1 1.59375 0.671875 3.796875 0.671875 C 6.015625 0.671875 7 -0.9375 7 -3.03125 C 7 -5.015625 6 -6.6875 3.796875 -6.6875 C 1.640625 -6.6875 0.59375 -4.96875 0.59375 -3.03125 Z M 1.4375 -3.03125 C 1.4375 -4.6875 2.296875 -5.9375 3.796875 -5.9375 C 5.34375 -5.9375 6.15625 -4.71875 6.15625 -3.03125 C 6.15625 -1.296875 5.453125 -0.078125 3.796875 -0.078125 C 2.15625 -0.078125 1.4375 -1.34375 1.4375 -3.03125 Z M 1.4375 -3.03125 "/></g></g></g><g fill="#ffffff" fill-opacity="1"><g transform="translate(171.797437, 260.965972)"><g><path d="M 0.90625 -6.5 L 0.90625 0.4375 L 1.734375 0.4375 L 1.734375 -4.875 C 2.390625 -5.5625 3.15625 -5.96875 3.921875 -5.96875 C 5.03125 -5.96875 5.734375 -5.296875 5.734375 -4.09375 L 5.734375 0.4375 L 6.59375 0.4375 L 6.59375 -4.25 C 6.59375 -5.84375 5.75 -6.6875 4.140625 -6.6875 C 3.265625 -6.6875 2.4375 -6.234375 1.734375 -5.453125 L 1.734375 -6.5 Z M 0.90625 -6.5 "/></g></g></g><g fill="#ffffff" fill-opacity="1"><g transform="translate(179.286259, 260.965972)"><g/></g></g><g fill="#ffffff" fill-opacity="1"><g transform="translate(183.344882, 260.965972)"><g><path d="M 1.15625 -9.078125 L 1.15625 0.4375 L 2 0.4375 L 2 -3.5625 L 4.5625 -3.5625 C 6.703125 -3.5625 7.71875 -4.625 7.71875 -6.359375 C 7.71875 -7.96875 6.78125 -9.078125 4.5625 -9.078125 Z M 2 -8.296875 L 4.453125 -8.296875 C 6.015625 -8.296875 6.859375 -7.609375 6.859375 -6.359375 C 6.859375 -5.046875 6.03125 -4.34375 4.40625 -4.328125 L 2 -4.328125 Z M 2 -8.296875 "/></g></g></g><g fill="#ffffff" fill-opacity="1"><g transform="translate(191.671605, 260.965972)"><g><path d="M 0.90625 -6.5 L 0.90625 0.4375 L 1.734375 0.4375 L 1.734375 -4.265625 C 2.515625 -5.375 3.59375 -5.9375 4.25 -5.9375 L 4.25 -6.65625 C 3.375 -6.65625 2.21875 -5.765625 1.734375 -5 L 1.734375 -6.5 Z M 0.90625 -6.5 "/></g></g></g><g fill="#ffffff" fill-opacity="1"><g transform="translate(196.044455, 260.965972)"><g><path d="M 0.59375 -3.03125 C 0.59375 -1 1.59375 0.671875 3.796875 0.671875 C 6.015625 0.671875 7 -0.9375 7 -3.03125 C 7 -5.015625 6 -6.6875 3.796875 -6.6875 C 1.640625 -6.6875 0.59375 -4.96875 0.59375 -3.03125 Z M 1.4375 -3.03125 C 1.4375 -4.6875 2.296875 -5.9375 3.796875 -5.9375 C 5.34375 -5.9375 6.15625 -4.71875 6.15625 -3.03125 C 6.15625 -1.296875 5.453125 -0.078125 3.796875 -0.078125 C 2.15625 -0.078125 1.4375 -1.34375 1.4375 -3.03125 Z M 1.4375 -3.03125 "/></g></g></g><g fill="#ffffff" fill-opacity="1"><g transform="translate(203.638009, 260.965972)"><g><path d="M 0.59375 -3 C 0.59375 -0.96875 1.703125 0.671875 3.765625 0.671875 C 5.375 0.671875 6.265625 -0.296875 6.65625 -1.34375 L 5.84375 -1.484375 C 5.4375 -0.53125 4.703125 -0.078125 3.765625 -0.078125 C 2.234375 -0.078125 1.4375 -1.328125 1.4375 -3 C 1.4375 -4.734375 2.296875 -5.9375 3.828125 -5.9375 C 4.765625 -5.9375 5.359375 -5.5 5.6875 -4.671875 L 6.5 -4.796875 C 6.1875 -5.8125 5.375 -6.6875 3.828125 -6.6875 C 1.703125 -6.6875 0.59375 -5.09375 0.59375 -3 Z M 0.59375 -3 "/></g></g></g><g fill="#ffffff" fill-opacity="1"><g transform="translate(210.838807, 260.965972)"><g><path d="M 0.625 -3 C 0.625 -0.96875 1.625 0.671875 3.78125 0.671875 C 5.3125 0.671875 6.328125 -0.109375 6.8125 -1.25 L 6.03125 -1.390625 C 5.671875 -0.609375 4.890625 -0.046875 3.796875 -0.046875 C 2.28125 -0.046875 1.421875 -1.21875 1.46875 -2.78125 L 6.828125 -2.78125 L 6.828125 -3.21875 C 6.828125 -5.046875 5.84375 -6.6875 3.765625 -6.6875 C 1.65625 -6.6875 0.625 -4.890625 0.625 -3 Z M 1.46875 -3.453125 C 1.46875 -4.71875 2.375 -5.96875 3.765625 -5.96875 C 5.1875 -5.96875 5.984375 -4.71875 5.984375 -3.453125 Z M 1.46875 -3.453125 "/></g></g></g><g fill="#ffffff" fill-opacity="1"><g transform="translate(218.275256, 260.965972)"><g><path d="M 0.5625 -1.109375 C 1.015625 0.171875 2.140625 0.671875 3.359375 0.671875 C 4.875 0.671875 5.953125 -0.109375 5.953125 -1.328125 C 5.953125 -2.4375 4.953125 -2.953125 3.578125 -3.40625 C 2.90625 -3.65625 1.640625 -4.0625 1.640625 -4.8125 C 1.640625 -5.453125 2.21875 -6.015625 3.3125 -6.015625 C 4.140625 -6.015625 4.6875 -5.640625 4.984375 -4.96875 L 5.828125 -5.125 C 5.375 -6.125 4.5625 -6.6875 3.3125 -6.6875 C 1.734375 -6.6875 0.78125 -5.859375 0.78125 -4.859375 C 0.78125 -3.890625 1.609375 -3.359375 3.125 -2.828125 C 4.171875 -2.453125 5.0625 -2.0625 5.0625 -1.296875 C 5.0625 -0.59375 4.328125 -0.015625 3.375 -0.015625 C 2.5625 -0.015625 1.78125 -0.234375 1.359375 -1.296875 Z M 0.5625 -1.109375 "/></g></g></g><g fill="#ffffff" fill-opacity="1"><g transform="translate(224.821428, 260.965972)"><g><path d="M 0.5625 -1.109375 C 1.015625 0.171875 2.140625 0.671875 3.359375 0.671875 C 4.875 0.671875 5.953125 -0.109375 5.953125 -1.328125 C 5.953125 -2.4375 4.953125 -2.953125 3.578125 -3.40625 C 2.90625 -3.65625 1.640625 -4.0625 1.640625 -4.8125 C 1.640625 -5.453125 2.21875 -6.015625 3.3125 -6.015625 C 4.140625 -6.015625 4.6875 -5.640625 4.984375 -4.96875 L 5.828125 -5.125 C 5.375 -6.125 4.5625 -6.6875 3.3125 -6.6875 C 1.734375 -6.6875 0.78125 -5.859375 0.78125 -4.859375 C 0.78125 -3.890625 1.609375 -3.359375 3.125 -2.828125 C 4.171875 -2.453125 5.0625 -2.0625 5.0625 -1.296875 C 5.0625 -0.59375 4.328125 -0.015625 3.375 -0.015625 C 2.5625 -0.015625 1.78125 -0.234375 1.359375 -1.296875 Z M 0.5625 -1.109375 "/></g></g></g><g fill="#ffffff" fill-opacity="1"><g transform="translate(231.367601, 260.965972)"><g><path d="M 0.90625 -6.5 L 0.90625 0.4375 L 1.75 0.4375 L 1.75 -6.5 Z M 0.90625 -9.078125 L 0.90625 -7.6875 L 1.75 -7.6875 L 1.75 -9.078125 Z M 0.90625 -9.078125 "/></g></g></g><g fill="#ffffff" fill-opacity="1"><g transform="translate(234.025343, 260.965972)"><g><path d="M 0.90625 -6.5 L 0.90625 0.4375 L 1.734375 0.4375 L 1.734375 -4.875 C 2.390625 -5.5625 3.15625 -5.96875 3.921875 -5.96875 C 5.03125 -5.96875 5.734375 -5.296875 5.734375 -4.09375 L 5.734375 0.4375 L 6.59375 0.4375 L 6.59375 -4.25 C 6.59375 -5.84375 5.75 -6.6875 4.140625 -6.6875 C 3.265625 -6.6875 2.4375 -6.234375 1.734375 -5.453125 L 1.734375 -6.5 Z M 0.90625 -6.5 "/></g></g></g><g fill="#ffffff" fill-opacity="1"><g transform="translate(241.514165, 260.965972)"><g><path d="M 0.671875 -3.03125 C 0.671875 -0.890625 1.8125 0.609375 3.625 0.609375 C 4.3125 0.609375 5.21875 0.328125 6.109375 -0.5625 L 6.109375 -0.34375 C 6.109375 1.53125 5.21875 2.4375 3.65625 2.4375 C 2.75 2.4375 1.984375 2.0625 1.578125 1.21875 L 0.828125 1.375 C 1.3125 2.59375 2.359375 3.140625 3.625 3.140625 C 6.09375 3.140625 6.9375 1.65625 6.9375 -0.375 L 6.9375 -6.5 L 6.109375 -6.5 L 6.109375 -5.453125 C 5.28125 -6.390625 4.453125 -6.6875 3.59375 -6.6875 C 1.8125 -6.6875 0.671875 -5.203125 0.671875 -3.03125 Z M 3.765625 -0.140625 C 2.21875 -0.140625 1.5 -1.5 1.5 -3.03125 C 1.5 -4.640625 2.296875 -5.9375 3.765625 -5.9375 C 4.6875 -5.9375 5.53125 -5.421875 6.109375 -4.640625 L 6.109375 -1.3125 C 5.5 -0.640625 4.625 -0.140625 3.765625 -0.140625 Z M 3.765625 -0.140625 "/></g></g></g><g fill="#ffffff" fill-opacity="1"><g transform="translate(249.356471, 260.965972)"><g/></g></g><g fill="#ffffff" fill-opacity="1"><g transform="translate(253.415093, 260.965972)"><g><path d="M 1.15625 -9.078125 L 1.15625 0.4375 L 7.09375 0.4375 L 7.09375 -0.34375 L 2 -0.34375 L 2 -9.078125 Z M 1.15625 -9.078125 "/></g></g></g><g fill="#ffffff" fill-opacity="1"><g transform="translate(260.720623, 260.965972)"><g><path d="M 0.640625 -1.0625 C 0.640625 0.125 1.703125 0.609375 2.796875 0.609375 C 3.953125 0.609375 4.921875 0.140625 5.59375 -0.59375 C 5.609375 -0.578125 5.625 -0.046875 5.640625 -0.03125 C 5.703125 0.34375 6.046875 0.5 6.40625 0.5 C 6.59375 0.5 6.90625 0.46875 7.15625 0.421875 L 7.15625 -0.140625 C 6.59375 -0.09375 6.421875 -0.140625 6.421875 -0.5 L 6.421875 -4.5625 C 6.421875 -5.828125 5.5625 -6.6875 3.734375 -6.6875 C 2.28125 -6.6875 1.25 -5.953125 0.875 -4.75 L 1.671875 -4.640625 C 2.03125 -5.6875 2.890625 -5.96875 3.703125 -5.96875 C 5.078125 -5.96875 5.5625 -5.296875 5.5625 -4.5 L 5.5625 -4.015625 C 2.703125 -3.59375 0.640625 -2.921875 0.640625 -1.0625 Z M 1.5 -1.140625 C 1.5 -2.5 3.359375 -2.984375 5.5625 -3.296875 L 5.5625 -1.265625 C 4.875 -0.609375 4.0625 -0.109375 2.953125 -0.109375 C 2.03125 -0.109375 1.5 -0.4375 1.5 -1.140625 Z M 1.5 -1.140625 "/></g></g></g><g fill="#ffffff" fill-opacity="1"><g transform="translate(268.157071, 260.965972)"><g><path d="M 0.90625 -9.0625 L 0.90625 0.4375 L 1.734375 0.4375 L 1.734375 -0.40625 C 2.40625 0.234375 3.359375 0.671875 4.21875 0.671875 C 6.3125 0.671875 7.21875 -0.859375 7.21875 -2.953125 C 7.21875 -4.96875 6.390625 -6.6875 4.25 -6.6875 C 3.46875 -6.6875 2.5625 -6.296875 1.734375 -5.40625 L 1.734375 -9.0625 Z M 4.125 -5.9375 C 5.8125 -5.9375 6.375 -4.359375 6.375 -2.953125 C 6.375 -1.484375 5.703125 -0.078125 4.125 -0.078125 C 3.21875 -0.078125 2.328125 -0.53125 1.734375 -1.171875 L 1.734375 -4.640625 C 2.375 -5.375 3.234375 -5.9375 4.125 -5.9375 Z M 4.125 -5.9375 "/></g></g></g><g fill="#ffffff" fill-opacity="1"><g transform="translate(275.986291, 260.965972)"><g><path d="M 0.59375 -3.03125 C 0.59375 -1 1.59375 0.671875 3.796875 0.671875 C 6.015625 0.671875 7 -0.9375 7 -3.03125 C 7 -5.015625 6 -6.6875 3.796875 -6.6875 C 1.640625 -6.6875 0.59375 -4.96875 0.59375 -3.03125 Z M 1.4375 -3.03125 C 1.4375 -4.6875 2.296875 -5.9375 3.796875 -5.9375 C 5.34375 -5.9375 6.15625 -4.71875 6.15625 -3.03125 C 6.15625 -1.296875 5.453125 -0.078125 3.796875 -0.078125 C 2.15625 -0.078125 1.4375 -1.34375 1.4375 -3.03125 Z M 1.4375 -3.03125 "/></g></g></g><g fill="#ffffff" fill-opacity="1"><g transform="translate(283.579845, 260.965972)"><g><path d="M 0.90625 -6.5 L 0.90625 0.4375 L 1.734375 0.4375 L 1.734375 -4.265625 C 2.515625 -5.375 3.59375 -5.9375 4.25 -5.9375 L 4.25 -6.65625 C 3.375 -6.65625 2.21875 -5.765625 1.734375 -5 L 1.734375 -6.5 Z M 0.90625 -6.5 "/></g></g></g><g fill="#ffffff" fill-opacity="1"><g transform="translate(287.952678, 260.965972)"><g><path d="M 0.640625 -1.0625 C 0.640625 0.125 1.703125 0.609375 2.796875 0.609375 C 3.953125 0.609375 4.921875 0.140625 5.59375 -0.59375 C 5.609375 -0.578125 5.625 -0.046875 5.640625 -0.03125 C 5.703125 0.34375 6.046875 0.5 6.40625 0.5 C 6.59375 0.5 6.90625 0.46875 7.15625 0.421875 L 7.15625 -0.140625 C 6.59375 -0.09375 6.421875 -0.140625 6.421875 -0.5 L 6.421875 -4.5625 C 6.421875 -5.828125 5.5625 -6.6875 3.734375 -6.6875 C 2.28125 -6.6875 1.25 -5.953125 0.875 -4.75 L 1.671875 -4.640625 C 2.03125 -5.6875 2.890625 -5.96875 3.703125 -5.96875 C 5.078125 -5.96875 5.5625 -5.296875 5.5625 -4.5 L 5.5625 -4.015625 C 2.703125 -3.59375 0.640625 -2.921875 0.640625 -1.0625 Z M 1.5 -1.140625 C 1.5 -2.5 3.359375 -2.984375 5.5625 -3.296875 L 5.5625 -1.265625 C 4.875 -0.609375 4.0625 -0.109375 2.953125 -0.109375 C 2.03125 -0.109375 1.5 -0.4375 1.5 -1.140625 Z M 1.5 -1.140625 "/></g></g></g><g fill="#ffffff" fill-opacity="1"><g transform="translate(295.389126, 260.965972)"><g><path d="M 0.140625 -6.359375 L 0.140625 -5.65625 L 1.234375 -5.65625 L 1.234375 -0.578125 C 1.234375 0.265625 1.734375 0.578125 2.5 0.578125 C 2.875 0.578125 3.1875 0.53125 3.46875 0.4375 L 3.46875 -0.25 C 3.28125 -0.1875 3.109375 -0.140625 2.9375 -0.140625 C 2.3125 -0.140625 2.0625 -0.28125 2.0625 -0.90625 L 2.0625 -5.65625 L 3.484375 -5.65625 L 3.484375 -6.359375 L 2.0625 -6.359375 L 2.0625 -8.328125 L 1.234375 -8.328125 L 1.234375 -6.359375 Z M 0.140625 -6.359375 "/></g></g></g><g fill="#ffffff" fill-opacity="1"><g transform="translate(299.107351, 260.965972)"><g><path d="M 0.59375 -3.03125 C 0.59375 -1 1.59375 0.671875 3.796875 0.671875 C 6.015625 0.671875 7 -0.9375 7 -3.03125 C 7 -5.015625 6 -6.6875 3.796875 -6.6875 C 1.640625 -6.6875 0.59375 -4.96875 0.59375 -3.03125 Z M 1.4375 -3.03125 C 1.4375 -4.6875 2.296875 -5.9375 3.796875 -5.9375 C 5.34375 -5.9375 6.15625 -4.71875 6.15625 -3.03125 C 6.15625 -1.296875 5.453125 -0.078125 3.796875 -0.078125 C 2.15625 -0.078125 1.4375 -1.34375 1.4375 -3.03125 Z M 1.4375 -3.03125 "/></g></g></g><g fill="#ffffff" fill-opacity="1"><g transform="translate(306.700904, 260.965972)"><g><path d="M 0.90625 -6.5 L 0.90625 0.4375 L 1.734375 0.4375 L 1.734375 -4.265625 C 2.515625 -5.375 3.59375 -5.9375 4.25 -5.9375 L 4.25 -6.65625 C 3.375 -6.65625 2.21875 -5.765625 1.734375 -5 L 1.734375 -6.5 Z M 0.90625 -6.5 "/></g></g></g><g fill="#ffffff" fill-opacity="1"><g transform="translate(311.073737, 260.965972)"><g><path d="M 0.109375 -6.5 L 2.890625 0.359375 L 2.359375 1.78125 C 2.15625 2.234375 1.8125 2.390625 1.4375 2.390625 C 1.265625 2.390625 1.109375 2.390625 0.96875 2.359375 L 0.96875 3.09375 C 1.234375 3.140625 1.421875 3.140625 1.671875 3.140625 C 2.125 3.140625 2.703125 3.03125 3.046875 2.140625 L 6.453125 -6.5 L 5.546875 -6.5 L 3.3125 -0.703125 L 1.046875 -6.5 Z M 0.109375 -6.5 "/></g></g></g></svg>