<svg xmlns="http://www.w3.org/2000/svg" xmlns:xlink="http://www.w3.org/1999/xlink" width="500" zoomAndPan="magnify" viewBox="0 0 375 374.999991" height="500" preserveAspectRatio="xMidYMid meet" version="1.0"><defs><g/><clipPath id="f2c2f18d55"><path d="M 8.167969 150.191406 L 80.917969 150.191406 L 80.917969 224.441406 L 8.167969 224.441406 Z M 8.167969 150.191406 " clip-rule="nonzero"/></clipPath></defs><rect x="-37.5" width="450" fill="#ffffff" y="-37.499999" height="449.999989" fill-opacity="1"/><rect x="-37.5" width="450" fill="#ffffff" y="-37.499999" height="449.999989" fill-opacity="1"/><g clip-path="url(#f2c2f18d55)"><path fill="#0071bc" d="M 78.121094 206.859375 C 79.679688 206.859375 80.917969 205.59375 80.917969 204.085938 C 80.917969 202.574219 79.679688 201.347656 78.121094 201.347656 C 76.59375 201.347656 75.351562 202.574219 75.351562 204.085938 C 75.351562 205.59375 76.59375 206.859375 78.121094 206.859375 Z M 71.738281 212.902344 C 73.261719 212.902344 74.539062 211.671875 74.539062 210.160156 C 74.539062 208.652344 73.261719 207.386719 71.738281 207.386719 C 70.210938 207.386719 68.972656 208.652344 68.972656 210.160156 C 68.972656 211.671875 70.210938 212.902344 71.738281 212.902344 Z M 65.144531 217.570312 C 66.667969 217.570312 67.945312 216.34375 67.945312 214.832031 C 67.945312 213.320312 66.667969 212.058594 65.144531 212.058594 C 63.617188 212.058594 62.378906 213.320312 62.378906 214.832031 C 62.378906 216.34375 63.617188 217.570312 65.144531 217.570312 Z M 58.511719 221.46875 C 60.039062 221.46875 61.277344 220.242188 61.277344 218.730469 C 61.277344 217.21875 60.039062 215.992188 58.511719 215.992188 C 56.988281 215.992188 55.746094 217.21875 55.746094 218.730469 C 55.746094 220.242188 56.988281 221.46875 58.511719 221.46875 Z M 50.855469 224.421875 C 52.664062 224.421875 54.152344 222.945312 54.152344 221.152344 C 54.152344 219.328125 52.664062 217.851562 50.855469 217.851562 C 49.011719 217.851562 47.523438 219.328125 47.523438 221.152344 C 47.523438 222.945312 49.011719 224.421875 50.855469 224.421875 Z M 75.671875 165.132812 L 75.671875 199.132812 C 75.777344 199.835938 76.382812 200.1875 76.984375 200.1875 C 77.660156 200.1875 78.332031 199.765625 78.332031 198.851562 L 78.332031 169.242188 C 77.550781 167.804688 76.628906 166.433594 75.671875 165.132812 Z M 69.113281 158.425781 L 69.113281 204.929688 C 69.21875 205.699219 69.820312 206.085938 70.460938 206.085938 C 71.132812 206.085938 71.808594 205.628906 71.808594 204.753906 L 71.808594 160.777344 C 70.957031 159.9375 70.070312 159.164062 69.113281 158.425781 Z M 62.589844 154.210938 L 62.589844 209.984375 C 62.660156 210.757812 63.300781 211.144531 63.902344 211.144531 C 64.574219 211.144531 65.25 210.6875 65.25 209.808594 L 65.25 155.722656 C 64.398438 155.195312 63.511719 154.667969 62.589844 154.210938 Z M 56.03125 151.648438 L 56.03125 213.148438 C 56.136719 213.917969 56.738281 214.304688 57.378906 214.304688 C 58.050781 214.304688 58.691406 213.882812 58.691406 212.972656 L 58.691406 212.515625 L 58.726562 212.515625 L 58.726562 152.523438 C 57.839844 152.207031 56.953125 151.929688 56.03125 151.648438 Z M 52.167969 215.640625 C 52.167969 217.429688 49.507812 217.429688 49.507812 215.675781 L 49.507812 150.417969 C 50.394531 150.488281 51.28125 150.628906 52.167969 150.769531 Z M 44.117188 172.578125 L 44.117188 151.824219 C 42.914062 151.929688 41.742188 152.035156 40.574219 152.175781 C 39.4375 152.3125 38.199219 152.457031 37.097656 152.734375 C 25.648438 155.511719 16.25 163.730469 12.03125 174.652344 C 11.003906 177.355469 10.296875 180.203125 9.941406 183.082031 C 9.796875 184.488281 9.691406 185.890625 9.691406 187.332031 C 9.691406 188.28125 9.726562 189.261719 9.796875 190.210938 L 38.269531 190.210938 L 38.269531 213.496094 L 36.210938 212.726562 C 30.644531 210.722656 25.929688 206.929688 22.703125 202.046875 L 12.917969 202.046875 C 17.457031 211.917969 26.390625 219.328125 37.097656 221.890625 C 38.199219 222.171875 39.4375 222.3125 40.574219 222.453125 C 41.742188 222.59375 42.914062 222.699219 44.117188 222.804688 L 44.117188 184.417969 L 18.414062 184.417969 L 18.699219 182.660156 C 19.300781 179.359375 20.503906 176.199219 22.242188 173.316406 C 25.46875 168.050781 30.398438 164.011719 36.210938 161.902344 L 38.269531 161.164062 L 38.269531 172.578125 Z M 45.644531 174.089844 L 45.644531 150.207031 C 42.558594 150.207031 39.582031 150.59375 36.742188 151.261719 C 24.726562 154.175781 14.976562 162.816406 10.613281 174.089844 C 9.550781 176.898438 8.804688 179.851562 8.414062 182.90625 C 8.273438 184.347656 8.167969 185.820312 8.167969 187.332031 C 8.167969 188.808594 8.273438 190.28125 8.414062 191.722656 L 36.742188 191.722656 L 36.742188 211.320312 C 31.210938 209.28125 26.570312 205.453125 23.554688 200.539062 L 10.613281 200.539062 C 14.976562 211.8125 24.726562 220.488281 36.742188 223.367188 C 39.582031 224.070312 42.558594 224.421875 45.644531 224.421875 L 45.644531 182.90625 L 20.222656 182.90625 C 20.789062 179.746094 21.925781 176.757812 23.554688 174.089844 C 26.570312 169.171875 31.210938 165.34375 36.742188 163.308594 L 36.742188 174.089844 L 45.644531 174.089844 " fill-opacity="1" fill-rule="evenodd"/></g><g fill="#0071bc" fill-opacity="1"><g transform="translate(87.230112, 187.878019)"><g><path d="M 2.609375 2.1875 L 2.609375 -7.796875 L 22.453125 -7.796875 L 22.453125 2.1875 Z M 13.84375 -19.671875 L 23.671875 -19.671875 L 23.671875 -8.96875 L 13.84375 -8.96875 Z M 1.265625 -15.109375 L 4.84375 -15.109375 L 5.84375 -17.171875 L 4.75 -17.171875 L 4.34375 -16.09375 L 0.78125 -16.09375 L 2.28125 -20.390625 L 6 -20.390625 L 5.65625 -19.578125 L 12.59375 -19.578125 L 12.59375 -17.171875 L 9.71875 -17.171875 L 8.703125 -15.109375 L 12.96875 -15.109375 L 12.96875 -12.75 L 11.296875 -12.75 L 13.15625 -8.4375 L 9.5 -8.4375 L 7.796875 -12.75 L 7.546875 -12.75 L 5.40625 -8.4375 L 1.59375 -8.4375 L 3.6875 -12.75 L 1.265625 -12.75 Z M 18.484375 -0.171875 L 18.484375 -1.59375 L 6.625 -1.59375 L 6.625 -0.171875 Z M 6.625 -3.984375 L 18.484375 -3.984375 L 18.484375 -5.40625 L 6.625 -5.40625 Z M 20.03125 -17.21875 L 17.46875 -17.21875 L 17.46875 -11.453125 L 20.03125 -11.453125 Z M 20.03125 -17.21875 "/></g></g></g><g fill="#0071bc" fill-opacity="1"><g transform="translate(112.612923, 187.878019)"><g><path d="M 9.25 -1.859375 L 5.453125 -1.859375 L 5.453125 2.75 L 2 2.75 L 2 -12.34375 L 12.703125 -12.34375 L 12.703125 0.8125 L 9.90625 3.078125 L 7.796875 0.5625 L 9.25 -0.40625 Z M 17.375 -6.125 L 23.3125 -6.828125 L 23.3125 -3.828125 L 17.375 -3.125 L 17.375 -0.234375 L 21 -0.234375 L 21.328125 -1.671875 L 24.25 -1.671875 L 23.359375 2.40625 L 13.78125 2.40625 L 13.78125 -8.6875 L 17.375 -8.6875 Z M 17.375 -17.796875 L 23.3125 -18.515625 L 23.3125 -15.515625 L 17.375 -14.796875 L 17.375 -12.421875 L 21 -12.421875 L 21.328125 -13.859375 L 24.25 -13.859375 L 23.359375 -9.75 L 13.78125 -9.75 L 13.78125 -20.359375 L 17.375 -20.359375 Z M 1.859375 -15.953125 L 4.59375 -20.3125 L 8.359375 -20.3125 L 5.65625 -15.609375 L 9.21875 -15.890625 L 8.609375 -18.765625 L 11.859375 -18.765625 L 13.125 -12.84375 L 9.875 -12.84375 L 9.71875 -13.5625 L 1.859375 -13.109375 Z M 5.453125 -4.21875 L 9.25 -4.21875 L 9.25 -6.015625 L 5.453125 -6.015625 Z M 5.453125 -8.375 L 9.25 -8.375 L 9.25 -9.796875 L 5.453125 -9.796875 Z M 5.453125 -8.375 "/></g></g></g><g fill="#0071bc" fill-opacity="1"><g transform="translate(137.995733, 187.878019)"><g><path d="M 8.8125 2.609375 L 8.8125 -6.0625 L 23.671875 -6.0625 L 23.671875 2.609375 Z M 4.140625 -20.28125 L 8.171875 -20.28125 L 6.78125 -15.34375 L 6.78125 2.640625 L 3.015625 2.640625 L 3.015625 -8.890625 L 1.0625 -8.890625 Z M 18.046875 -20.359375 L 18.3125 -19.171875 L 24.015625 -19.171875 L 24.015625 -16.328125 L 8.4375 -16.328125 L 8.4375 -19.171875 L 14.140625 -19.171875 L 13.859375 -20.359375 Z M 23.265625 -10.40625 L 23.265625 -7.5625 L 9.1875 -7.5625 L 9.1875 -10.40625 Z M 23.265625 -14.78125 L 23.265625 -11.953125 L 9.1875 -11.953125 L 9.1875 -14.78125 Z M 12.46875 0.203125 L 19.8125 0.203125 L 19.8125 -3.65625 L 12.46875 -3.65625 Z M 12.46875 0.203125 "/></g></g></g><g fill="#0071bc" fill-opacity="1"><g transform="translate(163.378544, 187.878019)"><g><path d="M 12.390625 -19.125 L 22.578125 -19.125 L 22.578125 -6.203125 L 2.359375 -6.203125 L 2.359375 -19.125 L 8.03125 -19.125 L 8.65625 -20.234375 L 13.03125 -20.234375 Z M 7.015625 -5.234375 L 10.96875 -5.234375 L 10.96875 -0.25 L 15.359375 -0.25 L 15.953125 -1.625 L 19.296875 -1.625 L 17.828125 2.46875 L 7.015625 2.46875 Z M 2.515625 -5 L 6.296875 -5 L 4.828125 2.46875 L 1.046875 2.46875 Z M 24.328125 2.46875 L 20.546875 2.46875 L 19.0625 -5 L 22.859375 -5 Z M 6.421875 -12.015625 L 18.5625 -12.015625 L 18.5625 -13.25 L 6.421875 -13.25 Z M 6.421875 -15.640625 L 18.5625 -15.640625 L 18.5625 -16.6875 L 6.421875 -16.6875 Z M 17.390625 -2.109375 L 13.609375 -2.109375 L 12.625 -5.40625 L 16.40625 -5.40625 Z M 18.5625 -8.640625 L 18.5625 -9.65625 L 6.421875 -9.65625 L 6.421875 -8.640625 Z M 18.5625 -8.640625 "/></g></g></g><g fill="#0071bc" fill-opacity="1"><g transform="translate(188.761355, 187.878019)"><g><path d="M 7.0625 -18 L 13.234375 -18 L 13.234375 -14.328125 L 9.3125 -5.609375 L 13.078125 -0.515625 L 24.140625 -0.515625 L 24.140625 2.40625 L 10.078125 2.40625 L 7.46875 -1.53125 L 5.71875 2.40625 L 1.875 2.40625 L 5.109375 -5.109375 L 1.46875 -10.671875 L 5.609375 -10.671875 L 6.8125 -9.046875 L 9.390625 -15.0625 L 6.125 -15.0625 L 5.078125 -11.859375 L 0.984375 -11.859375 L 3.703125 -20.46875 L 7.875 -20.46875 Z M 14.375 -20.359375 L 18.328125 -20.359375 L 18.328125 -1.390625 L 14.375 -1.390625 Z M 19.09375 -16.859375 L 22.65625 -16.859375 L 24.078125 -4.421875 L 20.515625 -4.421875 Z M 19.09375 -16.859375 "/></g></g></g><g fill="#0071bc" fill-opacity="1"><g transform="translate(214.144166, 187.878019)"><g><path d="M 15 -5.109375 L 15 -7.03125 L 9.875 -7.03125 L 9.875 -19.734375 L 23.71875 -19.734375 L 23.71875 -7.03125 L 18.5625 -7.03125 L 18.5625 -5.109375 L 23.59375 -5.109375 L 23.59375 -2.546875 L 18.5625 -2.546875 L 18.5625 0.03125 L 24.125 0.03125 L 24.125 2.5625 L 9.421875 2.5625 L 9.421875 0.03125 L 15 0.03125 L 15 -2.546875 L 10.390625 -2.546875 L 10.390625 -5.109375 Z M 3.203125 -10.9375 L 3.203125 -16.703125 L 1.296875 -16.703125 L 1.296875 -19.53125 L 8.8125 -19.53125 L 8.8125 -16.703125 L 6.875 -16.703125 L 6.875 -10.9375 L 8.984375 -10.9375 L 8.984375 -8 L 6.875 -8 L 6.875 -1.09375 L 9.09375 -1.09375 L 9.09375 1.625 L 1.328125 1.625 L 1.328125 -1.09375 L 3.203125 -1.09375 L 3.203125 -8 L 1.25 -8 L 1.25 -10.9375 Z M 18.5625 -17.21875 L 18.5625 -14.625 L 20.15625 -14.625 L 20.15625 -17.21875 Z M 20.15625 -9.625 L 20.15625 -12.140625 L 18.5625 -12.140625 L 18.5625 -9.625 Z M 13.453125 -14.625 L 15 -14.625 L 15 -17.21875 L 13.453125 -17.21875 Z M 13.453125 -9.625 L 15 -9.625 L 15 -12.140625 L 13.453125 -12.140625 Z M 13.453125 -9.625 "/></g></g></g><g fill="#0071bc" fill-opacity="1"><g transform="translate(239.526977, 187.878019)"><g><path d="M 2.359375 2.234375 L 8.65625 -4.03125 L 1.1875 -4.03125 L 1.1875 -6.65625 L 12.875 -6.65625 L 12.875 -14.984375 L 16.8125 -14.984375 L 16.8125 -6.65625 L 23.921875 -6.65625 L 23.921875 -4.03125 L 13.71875 -4.03125 L 7.75 2.234375 Z M 19.734375 -16.25 L 5.65625 -16.25 L 5.65625 -14.75 L 9.515625 -14.75 L 12.34375 -11.328125 L 8.15625 -11.328125 L 5.65625 -14.375 L 5.65625 -14.25 L 1.671875 -14.25 L 1.671875 -18.890625 L 10.671875 -18.890625 L 10.15625 -20.3125 L 14.53125 -20.3125 L 15.03125 -18.890625 L 23.71875 -18.890625 L 23.71875 -14.25 L 19.734375 -14.25 Z M 18.390625 -2.84375 L 23.671875 2.484375 L 19 2.484375 L 13.734375 -2.84375 Z M 7.515625 -11.015625 L 10.328125 -7.6875 L 5.921875 -7.6875 L 3.125 -11.015625 Z M 7.515625 -11.015625 "/></g></g></g><g fill="#0071bc" fill-opacity="1"><g transform="translate(264.909788, 187.878019)"><g><path d="M 6.828125 -7.546875 L 1.140625 -7.546875 L 2.03125 -16.015625 L 5.03125 -16.015625 L 4.5 -9.921875 L 6.0625 -9.921875 L 6.53125 -17.546875 L 1.296875 -17.546875 L 1.296875 -20.015625 L 10 -20.015625 L 9.65625 -14.9375 L 13.921875 -20.1875 L 20.15625 -20.1875 L 24.453125 -14.421875 L 19.828125 -14.421875 L 17.015625 -18.515625 L 14.015625 -14.421875 L 9.625 -14.421875 L 9.296875 -9.921875 L 10.109375 -9.921875 L 10.109375 0.84375 L 7.359375 3 L 5.3125 0.78125 L 6.828125 -0.453125 Z M 10.46875 -0.4375 L 24.125 -0.4375 L 24.125 2.359375 L 10.46875 2.359375 Z M 10.875 -13.765625 L 23.46875 -13.765625 L 23.46875 -10.9375 L 10.875 -10.9375 Z M 17.828125 -10.0625 L 19.046875 -1.125 L 15.921875 -1.125 L 14.703125 -10.0625 Z M 13.515625 -10.0625 L 14.75 -1.140625 L 11.65625 -1.140625 L 10.359375 -10.0625 Z M 23.40625 -10.0625 L 22.25 -1.0625 L 19.21875 -1.0625 L 20.359375 -10.0625 Z M 6.203125 -5.4375 L 6.203125 -2.84375 L 1.0625 -2.1875 L 1.0625 -4.78125 Z M 6.203125 -5.4375 "/></g></g></g><g fill="#0071bc" fill-opacity="1"><g transform="translate(290.292598, 187.878019)"><g><path d="M 1.296875 2.390625 L 1.296875 -0.234375 L 10.359375 -0.234375 L 10.359375 -2.34375 L 2.46875 -2.34375 L 2.46875 -4.796875 L 10.359375 -4.796875 L 10.359375 -6.296875 L 3 -6.015625 L 3 -9.0625 L 5.328125 -11.6875 L 2.40625 -11.6875 L 2.40625 -14.171875 L 22.953125 -14.171875 L 22.953125 -11.6875 L 10.203125 -11.6875 L 7.59375 -8.8125 L 17.375 -9.25 L 16.609375 -10.96875 L 20.5625 -10.96875 L 22.65625 -6.265625 L 18.71875 -6.265625 L 18.5625 -6.609375 L 14.5 -6.453125 L 14.5 -4.796875 L 22.90625 -4.796875 L 22.90625 -2.34375 L 14.5 -2.34375 L 14.5 -0.234375 L 23.71875 -0.234375 L 23.71875 2.390625 Z M 1.296875 -14.46875 L 1.296875 -19.25 L 10.203125 -19.25 L 9.671875 -20.46875 L 14.53125 -20.46875 L 15.078125 -19.25 L 23.875 -19.25 L 23.875 -14.46875 L 19.734375 -14.46875 L 19.734375 -16.65625 L 5.53125 -16.65625 L 5.53125 -14.46875 Z M 1.296875 -14.46875 "/></g></g></g><g fill="#0071bc" fill-opacity="1"><g transform="translate(87.944956, 211.767248)"><g><path d="M 0.9375 -7.609375 L 2.921875 -7.609375 L 2.921875 0.109375 L 0.9375 0.109375 Z M 0.9375 -7.609375 "/></g></g></g><g fill="#0071bc" fill-opacity="1"><g transform="translate(91.798444, 211.767248)"><g><path d="M 4.28125 0.140625 L 4.28125 -4.203125 L 2.3125 -4.203125 L 2.3125 0.140625 L 0.5 0.140625 L 0.5 -5.625 L 6.0625 -5.625 L 6.0625 0.140625 Z M 4.28125 0.140625 "/></g></g></g><g fill="#0071bc" fill-opacity="1"><g transform="translate(98.371415, 211.767248)"><g><path d="M 5.078125 -1.6875 L 4.65625 0.125 L 1.4375 0.125 L 1.4375 -4.390625 L 0.375 -4.390625 L 0.375 -5.6875 L 1.4375 -5.6875 L 1.4375 -6.9375 L 3.21875 -6.9375 L 3.21875 -5.6875 L 4.984375 -5.6875 L 4.984375 -4.390625 L 3.21875 -4.390625 L 3.21875 -1.171875 L 3.59375 -1.171875 L 3.75 -1.6875 Z M 5.078125 -1.6875 "/></g></g></g><g fill="#0071bc" fill-opacity="1"><g transform="translate(103.820897, 211.767248)"><g><path d="M 6.734375 -1.5625 L 6.375 0.140625 L 0.53125 0.140625 L 0.53125 -5.671875 L 6.609375 -5.671875 L 6.609375 -2.265625 L 2.421875 -2.265625 L 2.421875 -1.015625 L 4.90625 -1.015625 L 5.078125 -1.5625 Z M 2.421875 -4.515625 L 2.421875 -3.421875 L 4.78125 -3.421875 L 4.78125 -4.515625 Z M 2.421875 -4.515625 "/></g></g></g><g fill="#0071bc" fill-opacity="1"><g transform="translate(111.09737, 211.767248)"><g><path d="M 0.671875 0.140625 L 0.671875 -8.078125 L 2.515625 -8.078125 L 2.515625 -1.34375 L 3.765625 -1.34375 L 3.765625 0.140625 Z M 0.671875 0.140625 "/></g></g></g><g fill="#0071bc" fill-opacity="1"><g transform="translate(115.528351, 211.767248)"><g><path d="M 0.671875 0.140625 L 0.671875 -8.078125 L 2.515625 -8.078125 L 2.515625 -1.34375 L 3.765625 -1.34375 L 3.765625 0.140625 Z M 0.671875 0.140625 "/></g></g></g><g fill="#0071bc" fill-opacity="1"><g transform="translate(119.959331, 211.767248)"><g><path d="M 0.53125 -6.421875 L 0.53125 -8.078125 L 2.359375 -8.078125 L 2.359375 -6.421875 Z M 0.53125 0.125 L 0.53125 -5.65625 L 2.359375 -5.65625 L 2.359375 0.125 Z M 0.53125 0.125 "/></g></g></g><g fill="#0071bc" fill-opacity="1"><g transform="translate(122.836318, 211.767248)"><g><path d="M 6.46875 -5.65625 L 6.46875 2.75 L 1.203125 2.75 L 0.65625 0.984375 L 2.515625 0.984375 L 2.671875 1.515625 L 4.671875 1.515625 L 4.671875 0.078125 L 0.65625 0.078125 L 0.65625 -5.65625 Z M 4.671875 -1.21875 L 4.671875 -4.296875 L 2.40625 -4.296875 L 2.40625 -1.21875 Z M 4.671875 -1.21875 "/></g></g></g><g fill="#0071bc" fill-opacity="1"><g transform="translate(129.965792, 211.767248)"><g><path d="M 6.734375 -1.5625 L 6.375 0.140625 L 0.53125 0.140625 L 0.53125 -5.671875 L 6.609375 -5.671875 L 6.609375 -2.265625 L 2.421875 -2.265625 L 2.421875 -1.015625 L 4.90625 -1.015625 L 5.078125 -1.5625 Z M 2.421875 -4.515625 L 2.421875 -3.421875 L 4.78125 -3.421875 L 4.78125 -4.515625 Z M 2.421875 -4.515625 "/></g></g></g><g fill="#0071bc" fill-opacity="1"><g transform="translate(137.242266, 211.767248)"><g><path d="M 4.28125 0.140625 L 4.28125 -4.203125 L 2.3125 -4.203125 L 2.3125 0.140625 L 0.5 0.140625 L 0.5 -5.625 L 6.0625 -5.625 L 6.0625 0.140625 Z M 4.28125 0.140625 "/></g></g></g><g fill="#0071bc" fill-opacity="1"><g transform="translate(143.815237, 211.767248)"><g><path d="M 5.078125 -1.6875 L 4.65625 0.125 L 1.4375 0.125 L 1.4375 -4.390625 L 0.375 -4.390625 L 0.375 -5.6875 L 1.4375 -5.6875 L 1.4375 -6.9375 L 3.21875 -6.9375 L 3.21875 -5.6875 L 4.984375 -5.6875 L 4.984375 -4.390625 L 3.21875 -4.390625 L 3.21875 -1.171875 L 3.59375 -1.171875 L 3.75 -1.6875 Z M 5.078125 -1.6875 "/></g></g></g><g fill="#0071bc" fill-opacity="1"><g transform="translate(149.264718, 211.767248)"><g/></g></g><g fill="#0071bc" fill-opacity="1"><g transform="translate(155.564691, 211.767248)"><g><path d="M 0.9375 -7.609375 L 2.921875 -7.609375 L 2.921875 0.109375 L 0.9375 0.109375 Z M 0.9375 -7.609375 "/></g></g></g><g fill="#0071bc" fill-opacity="1"><g transform="translate(159.418179, 211.767248)"><g><path d="M 4.28125 0.140625 L 4.28125 -4.203125 L 2.3125 -4.203125 L 2.3125 0.140625 L 0.5 0.140625 L 0.5 -5.625 L 6.0625 -5.625 L 6.0625 0.140625 Z M 4.28125 0.140625 "/></g></g></g><g fill="#0071bc" fill-opacity="1"><g transform="translate(165.99115, 211.767248)"><g><path d="M 4.359375 -4.28125 L 2.796875 -4.28125 L 2.796875 0.125 L 0.96875 0.125 L 0.96875 -4.28125 L 0.015625 -4.28125 L 0.015625 -5.625 L 0.96875 -5.625 L 0.96875 -8.265625 L 4.203125 -8.265625 L 4.203125 -7 L 2.796875 -7 L 2.796875 -5.625 L 4.359375 -5.625 Z M 4.359375 -4.28125 "/></g></g></g><g fill="#0071bc" fill-opacity="1"><g transform="translate(170.359131, 211.767248)"><g><path d="M 0.46875 0.140625 L 0.46875 -5.65625 L 6.515625 -5.65625 L 6.515625 0.140625 Z M 4.59375 -4.28125 L 2.265625 -4.28125 L 2.265625 -1.203125 L 4.59375 -1.203125 Z M 4.59375 -4.28125 "/></g></g></g><g fill="#0071bc" fill-opacity="1"><g transform="translate(177.3311, 211.767248)"><g><path d="M 4.875 -4.375 L 2.34375 -3.703125 L 2.34375 0.140625 L 0.546875 0.140625 L 0.546875 -5.625 L 2.34375 -5.625 L 2.34375 -5.140625 L 4.875 -5.8125 Z M 4.875 -4.375 "/></g></g></g><g fill="#0071bc" fill-opacity="1"><g transform="translate(182.759582, 211.767248)"><g><path d="M 6.484375 0.140625 L 6.484375 -4.265625 L 5.34375 -4.265625 L 5.34375 0.140625 L 3.484375 0.140625 L 3.484375 -4.265625 L 2.359375 -4.265625 L 2.359375 0.140625 L 0.53125 0.140625 L 0.53125 -5.671875 L 8.328125 -5.671875 L 8.328125 0.140625 Z M 6.484375 0.140625 "/></g></g></g><g fill="#0071bc" fill-opacity="1"><g transform="translate(191.611048, 211.767248)"><g><path d="M 6.734375 -1.140625 L 6.734375 0.125 L 0.5 0.125 L 0.5 -3.375 L 4.5625 -3.375 L 4.5625 -4.375 L 2.34375 -4.375 L 2.34375 -4 L 0.59375 -4 L 0.59375 -5.65625 L 6.328125 -5.65625 L 6.328125 -1.140625 Z M 4.5625 -1.140625 L 4.5625 -2.09375 L 2.265625 -2.09375 L 2.265625 -1.140625 Z M 4.5625 -1.140625 "/></g></g></g><g fill="#0071bc" fill-opacity="1"><g transform="translate(198.856016, 211.767248)"><g><path d="M 5.078125 -1.6875 L 4.65625 0.125 L 1.4375 0.125 L 1.4375 -4.390625 L 0.375 -4.390625 L 0.375 -5.6875 L 1.4375 -5.6875 L 1.4375 -6.9375 L 3.21875 -6.9375 L 3.21875 -5.6875 L 4.984375 -5.6875 L 4.984375 -4.390625 L 3.21875 -4.390625 L 3.21875 -1.171875 L 3.59375 -1.171875 L 3.75 -1.6875 Z M 5.078125 -1.6875 "/></g></g></g><g fill="#0071bc" fill-opacity="1"><g transform="translate(204.305498, 211.767248)"><g><path d="M 0.53125 -6.421875 L 0.53125 -8.078125 L 2.359375 -8.078125 L 2.359375 -6.421875 Z M 0.53125 0.125 L 0.53125 -5.65625 L 2.359375 -5.65625 L 2.359375 0.125 Z M 0.53125 0.125 "/></g></g></g><g fill="#0071bc" fill-opacity="1"><g transform="translate(207.182485, 211.767248)"><g><path d="M 0.46875 0.140625 L 0.46875 -5.65625 L 6.515625 -5.65625 L 6.515625 0.140625 Z M 4.59375 -4.28125 L 2.265625 -4.28125 L 2.265625 -1.203125 L 4.59375 -1.203125 Z M 4.59375 -4.28125 "/></g></g></g><g fill="#0071bc" fill-opacity="1"><g transform="translate(214.154454, 211.767248)"><g><path d="M 4.28125 0.140625 L 4.28125 -4.203125 L 2.3125 -4.203125 L 2.3125 0.140625 L 0.5 0.140625 L 0.5 -5.625 L 6.0625 -5.625 L 6.0625 0.140625 Z M 4.28125 0.140625 "/></g></g></g><g fill="#0071bc" fill-opacity="1"><g transform="translate(220.727425, 211.767248)"><g/></g></g><g fill="#0071bc" fill-opacity="1"><g transform="translate(227.027397, 211.767248)"><g><path d="M 2.671875 -2.328125 L 2.671875 0.140625 L 0.765625 0.140625 L 0.765625 -7.609375 L 7.125 -7.609375 L 7.125 -2.328125 Z M 5.296875 -6.03125 L 2.671875 -6.03125 L 2.671875 -3.890625 L 5.296875 -3.890625 Z M 5.296875 -6.03125 "/></g></g></g><g fill="#0071bc" fill-opacity="1"><g transform="translate(234.923362, 211.767248)"><g><path d="M 4.875 -4.375 L 2.34375 -3.703125 L 2.34375 0.140625 L 0.546875 0.140625 L 0.546875 -5.625 L 2.34375 -5.625 L 2.34375 -5.140625 L 4.875 -5.8125 Z M 4.875 -4.375 "/></g></g></g><g fill="#0071bc" fill-opacity="1"><g transform="translate(240.351844, 211.767248)"><g><path d="M 0.46875 0.140625 L 0.46875 -5.65625 L 6.515625 -5.65625 L 6.515625 0.140625 Z M 4.59375 -4.28125 L 2.265625 -4.28125 L 2.265625 -1.203125 L 4.59375 -1.203125 Z M 4.59375 -4.28125 "/></g></g></g><g fill="#0071bc" fill-opacity="1"><g transform="translate(247.323813, 211.767248)"><g><path d="M 6.265625 0.125 L 0.5625 0.125 L 0.5625 -5.65625 L 6.640625 -5.65625 L 6.640625 -3.59375 L 4.875 -3.59375 L 4.875 -4.28125 L 2.375 -4.28125 L 2.375 -1.25 L 4.78125 -1.25 L 4.921875 -1.78125 L 6.6875 -1.78125 Z M 6.265625 0.125 "/></g></g></g><g fill="#0071bc" fill-opacity="1"><g transform="translate(254.579287, 211.767248)"><g><path d="M 6.734375 -1.5625 L 6.375 0.140625 L 0.53125 0.140625 L 0.53125 -5.671875 L 6.609375 -5.671875 L 6.609375 -2.265625 L 2.421875 -2.265625 L 2.421875 -1.015625 L 4.90625 -1.015625 L 5.078125 -1.5625 Z M 2.421875 -4.515625 L 2.421875 -3.421875 L 4.78125 -3.421875 L 4.78125 -4.515625 Z M 2.421875 -4.515625 "/></g></g></g><g fill="#0071bc" fill-opacity="1"><g transform="translate(261.85576, 211.767248)"><g><path d="M 2.515625 -4.546875 L 2.515625 -3.375 L 6.390625 -3.375 L 6.390625 0.109375 L 0.796875 0.109375 L 0.40625 -1.546875 L 2.15625 -1.546875 L 2.3125 -1.03125 L 4.421875 -1.03125 L 4.421875 -2.21875 L 0.578125 -2.21875 L 0.578125 -5.703125 L 6.296875 -5.703125 L 6.296875 -4.140625 L 4.4375 -4.140625 L 4.4375 -4.546875 Z M 2.515625 -4.546875 "/></g></g></g><g fill="#0071bc" fill-opacity="1"><g transform="translate(268.649236, 211.767248)"><g><path d="M 2.515625 -4.546875 L 2.515625 -3.375 L 6.390625 -3.375 L 6.390625 0.109375 L 0.796875 0.109375 L 0.40625 -1.546875 L 2.15625 -1.546875 L 2.3125 -1.03125 L 4.421875 -1.03125 L 4.421875 -2.21875 L 0.578125 -2.21875 L 0.578125 -5.703125 L 6.296875 -5.703125 L 6.296875 -4.140625 L 4.4375 -4.140625 L 4.4375 -4.546875 Z M 2.515625 -4.546875 "/></g></g></g><g fill="#0071bc" fill-opacity="1"><g transform="translate(275.442712, 211.767248)"><g><path d="M 0.53125 -6.421875 L 0.53125 -8.078125 L 2.359375 -8.078125 L 2.359375 -6.421875 Z M 0.53125 0.125 L 0.53125 -5.65625 L 2.359375 -5.65625 L 2.359375 0.125 Z M 0.53125 0.125 "/></g></g></g><g fill="#0071bc" fill-opacity="1"><g transform="translate(278.319699, 211.767248)"><g><path d="M 4.28125 0.140625 L 4.28125 -4.203125 L 2.3125 -4.203125 L 2.3125 0.140625 L 0.5 0.140625 L 0.5 -5.625 L 6.0625 -5.625 L 6.0625 0.140625 Z M 4.28125 0.140625 "/></g></g></g><g fill="#0071bc" fill-opacity="1"><g transform="translate(284.892681, 211.767248)"><g><path d="M 6.46875 -5.65625 L 6.46875 2.75 L 1.203125 2.75 L 0.65625 0.984375 L 2.515625 0.984375 L 2.671875 1.515625 L 4.671875 1.515625 L 4.671875 0.078125 L 0.65625 0.078125 L 0.65625 -5.65625 Z M 4.671875 -1.21875 L 4.671875 -4.296875 L 2.40625 -4.296875 L 2.40625 -1.21875 Z M 4.671875 -1.21875 "/></g></g></g><g fill="#0071bc" fill-opacity="1"><g transform="translate(292.022167, 211.767248)"><g/></g></g><g fill="#0071bc" fill-opacity="1"><g transform="translate(298.322139, 211.767248)"><g><path d="M 0.78125 -7.625 L 2.6875 -7.625 L 2.6875 -1.421875 L 6.03125 -1.421875 L 6.03125 0.109375 L 0.78125 0.109375 Z M 0.78125 -7.625 "/></g></g></g><g fill="#0071bc" fill-opacity="1"><g transform="translate(305.136615, 211.767248)"><g><path d="M 6.734375 -1.140625 L 6.734375 0.125 L 0.5 0.125 L 0.5 -3.375 L 4.5625 -3.375 L 4.5625 -4.375 L 2.34375 -4.375 L 2.34375 -4 L 0.59375 -4 L 0.59375 -5.65625 L 6.328125 -5.65625 L 6.328125 -1.140625 Z M 4.5625 -1.140625 L 4.5625 -2.09375 L 2.265625 -2.09375 L 2.265625 -1.140625 Z M 4.5625 -1.140625 "/></g></g></g><g fill="#0071bc" fill-opacity="1"><g transform="translate(312.381571, 211.767248)"><g><path d="M 6.703125 -5.640625 L 6.703125 0.125 L 0.5625 0.125 L 0.5625 -8.09375 L 2.34375 -8.09375 L 2.34375 -5.640625 Z M 4.9375 -4.234375 L 2.34375 -4.234375 L 2.34375 -1.234375 L 4.9375 -1.234375 Z M 4.9375 -4.234375 "/></g></g></g><g fill="#0071bc" fill-opacity="1"><g transform="translate(319.647539, 211.767248)"><g><path d="M 0.46875 0.140625 L 0.46875 -5.65625 L 6.515625 -5.65625 L 6.515625 0.140625 Z M 4.59375 -4.28125 L 2.265625 -4.28125 L 2.265625 -1.203125 L 4.59375 -1.203125 Z M 4.59375 -4.28125 "/></g></g></g><g fill="#0071bc" fill-opacity="1"><g transform="translate(326.619508, 211.767248)"><g><path d="M 4.875 -4.375 L 2.34375 -3.703125 L 2.34375 0.140625 L 0.546875 0.140625 L 0.546875 -5.625 L 2.34375 -5.625 L 2.34375 -5.140625 L 4.875 -5.8125 Z M 4.875 -4.375 "/></g></g></g><g fill="#0071bc" fill-opacity="1"><g transform="translate(332.04799, 211.767248)"><g><path d="M 6.734375 -1.140625 L 6.734375 0.125 L 0.5 0.125 L 0.5 -3.375 L 4.5625 -3.375 L 4.5625 -4.375 L 2.34375 -4.375 L 2.34375 -4 L 0.59375 -4 L 0.59375 -5.65625 L 6.328125 -5.65625 L 6.328125 -1.140625 Z M 4.5625 -1.140625 L 4.5625 -2.09375 L 2.265625 -2.09375 L 2.265625 -1.140625 Z M 4.5625 -1.140625 "/></g></g></g><g fill="#0071bc" fill-opacity="1"><g transform="translate(339.292946, 211.767248)"><g><path d="M 5.078125 -1.6875 L 4.65625 0.125 L 1.4375 0.125 L 1.4375 -4.390625 L 0.375 -4.390625 L 0.375 -5.6875 L 1.4375 -5.6875 L 1.4375 -6.9375 L 3.21875 -6.9375 L 3.21875 -5.6875 L 4.984375 -5.6875 L 4.984375 -4.390625 L 3.21875 -4.390625 L 3.21875 -1.171875 L 3.59375 -1.171875 L 3.75 -1.6875 Z M 5.078125 -1.6875 "/></g></g></g><g fill="#0071bc" fill-opacity="1"><g transform="translate(344.742439, 211.767248)"><g><path d="M 0.46875 0.140625 L 0.46875 -5.65625 L 6.515625 -5.65625 L 6.515625 0.140625 Z M 4.59375 -4.28125 L 2.265625 -4.28125 L 2.265625 -1.203125 L 4.59375 -1.203125 Z M 4.59375 -4.28125 "/></g></g></g><g fill="#0071bc" fill-opacity="1"><g transform="translate(351.714409, 211.767248)"><g><path d="M 4.875 -4.375 L 2.34375 -3.703125 L 2.34375 0.140625 L 0.546875 0.140625 L 0.546875 -5.625 L 2.34375 -5.625 L 2.34375 -5.140625 L 4.875 -5.8125 Z M 4.875 -4.375 "/></g></g></g><g fill="#0071bc" fill-opacity="1"><g transform="translate(357.14289, 211.767248)"><g><path d="M 6.359375 -5.65625 L 3.125 2.734375 L 0.921875 2.734375 L 0.921875 1.390625 L 1.75 1.390625 L 2.453125 -0.46875 L 1.84375 -0.46875 L 0.234375 -5.65625 L 2.15625 -5.65625 L 3.15625 -2.34375 L 4.40625 -5.65625 Z M 6.359375 -5.65625 "/></g></g></g></svg>