<svg xmlns="http://www.w3.org/2000/svg" xmlns:xlink="http://www.w3.org/1999/xlink" width="500" zoomAndPan="magnify" viewBox="0 0 375 374.999991" height="500" preserveAspectRatio="xMidYMid meet" version="1.0"><defs><g/><clipPath id="b619bab305"><path d="M 134.328125 93.828125 L 240.828125 93.828125 L 240.828125 205.578125 L 134.328125 205.578125 Z M 134.328125 93.828125 " clip-rule="nonzero"/></clipPath><clipPath id="7d74dd0ae5"><path d="M 195.414062 145.824219 L 147.949219 145.824219 C 146.109375 145.824219 144.777344 144.066406 145.273438 142.296875 L 158.304688 95.859375 C 158.640625 94.660156 159.734375 93.828125 160.980469 93.828125 L 208.445312 93.828125 C 210.285156 93.828125 211.617188 95.585938 211.117188 97.359375 L 198.089844 143.796875 C 197.753906 144.996094 196.660156 145.824219 195.414062 145.824219 Z M 164.585938 180.878906 L 171.292969 156.96875 C 171.792969 155.195312 170.460938 153.4375 168.617188 153.4375 L 144.21875 153.4375 C 142.976562 153.4375 141.882812 154.265625 141.546875 155.464844 L 134.835938 179.375 C 134.339844 181.148438 135.671875 182.90625 137.511719 182.90625 L 161.910156 182.90625 C 163.15625 182.90625 164.25 182.078125 164.585938 180.878906 Z M 176.933594 155.464844 L 163.902344 201.902344 C 163.402344 203.675781 164.734375 205.433594 166.578125 205.433594 L 214.039062 205.433594 C 215.285156 205.433594 216.378906 204.605469 216.714844 203.40625 L 229.746094 156.96875 C 230.242188 155.195312 228.910156 153.4375 227.070312 153.4375 L 179.605469 153.4375 C 178.363281 153.4375 177.269531 154.265625 176.933594 155.464844 Z M 210.433594 118.386719 L 203.726562 142.296875 C 203.230469 144.066406 204.5625 145.824219 206.402344 145.824219 L 230.800781 145.824219 C 232.046875 145.824219 233.140625 144.996094 233.476562 143.796875 L 240.183594 119.886719 C 240.683594 118.113281 239.351562 116.355469 237.507812 116.355469 L 213.109375 116.355469 C 211.863281 116.355469 210.773438 117.1875 210.433594 118.386719 Z M 210.433594 118.386719 " clip-rule="nonzero"/></clipPath><linearGradient x1="114.29646" gradientTransform="matrix(0.223207, 0, 0, 0.223207, 134.730805, 93.829588)" y1="-47.633927" x2="358.621849" gradientUnits="userSpaceOnUse" y2="547.634015" id="eec1ce1f7c"><stop stop-opacity="1" stop-color="rgb(43.099976%, 90.59906%, 100%)" offset="0"/><stop stop-opacity="1" stop-color="rgb(43.099976%, 90.59906%, 100%)" offset="0.0625"/><stop stop-opacity="1" stop-color="rgb(43.014526%, 90.522766%, 99.996948%)" offset="0.09375"/><stop stop-opacity="1" stop-color="rgb(42.703247%, 90.238953%, 99.987793%)" offset="0.0976562"/><stop stop-opacity="1" stop-color="rgb(42.477417%, 90.032959%, 99.981689%)" offset="0.101562"/><stop stop-opacity="1" stop-color="rgb(42.250061%, 89.825439%, 99.975586%)" offset="0.105469"/><stop stop-opacity="1" stop-color="rgb(42.022705%, 89.619446%, 99.969482%)" offset="0.109375"/><stop stop-opacity="1" stop-color="rgb(41.795349%, 89.411926%, 99.963379%)" offset="0.113281"/><stop stop-opacity="1" stop-color="rgb(41.567993%, 89.205933%, 99.957275%)" offset="0.117187"/><stop stop-opacity="1" stop-color="rgb(41.340637%, 88.999939%, 99.949646%)" offset="0.121094"/><stop stop-opacity="1" stop-color="rgb(41.113281%, 88.793945%, 99.943542%)" offset="0.125"/><stop stop-opacity="1" stop-color="rgb(40.885925%, 88.586426%, 99.937439%)" offset="0.128906"/><stop stop-opacity="1" stop-color="rgb(40.660095%, 88.380432%, 99.931335%)" offset="0.132812"/><stop stop-opacity="1" stop-color="rgb(40.432739%, 88.172913%, 99.925232%)" offset="0.136719"/><stop stop-opacity="1" stop-color="rgb(40.205383%, 87.966919%, 99.919128%)" offset="0.140625"/><stop stop-opacity="1" stop-color="rgb(39.978027%, 87.759399%, 99.911499%)" offset="0.144531"/><stop stop-opacity="1" stop-color="rgb(39.750671%, 87.553406%, 99.905396%)" offset="0.148438"/><stop stop-opacity="1" stop-color="rgb(39.523315%, 87.347412%, 99.899292%)" offset="0.152344"/><stop stop-opacity="1" stop-color="rgb(39.295959%, 87.141418%, 99.893188%)" offset="0.15625"/><stop stop-opacity="1" stop-color="rgb(39.068604%, 86.933899%, 99.887085%)" offset="0.160156"/><stop stop-opacity="1" stop-color="rgb(38.842773%, 86.727905%, 99.880981%)" offset="0.164062"/><stop stop-opacity="1" stop-color="rgb(38.615417%, 86.520386%, 99.874878%)" offset="0.167969"/><stop stop-opacity="1" stop-color="rgb(38.388062%, 86.314392%, 99.868774%)" offset="0.171875"/><stop stop-opacity="1" stop-color="rgb(38.160706%, 86.106873%, 99.861145%)" offset="0.175781"/><stop stop-opacity="1" stop-color="rgb(37.93335%, 85.900879%, 99.855042%)" offset="0.179687"/><stop stop-opacity="1" stop-color="rgb(37.705994%, 85.693359%, 99.848938%)" offset="0.183594"/><stop stop-opacity="1" stop-color="rgb(37.480164%, 85.487366%, 99.842834%)" offset="0.1875"/><stop stop-opacity="1" stop-color="rgb(37.252808%, 85.281372%, 99.836731%)" offset="0.191406"/><stop stop-opacity="1" stop-color="rgb(37.025452%, 85.075378%, 99.830627%)" offset="0.195312"/><stop stop-opacity="1" stop-color="rgb(36.798096%, 84.867859%, 99.822998%)" offset="0.199219"/><stop stop-opacity="1" stop-color="rgb(36.57074%, 84.661865%, 99.816895%)" offset="0.203125"/><stop stop-opacity="1" stop-color="rgb(36.343384%, 84.454346%, 99.810791%)" offset="0.207031"/><stop stop-opacity="1" stop-color="rgb(36.116028%, 84.248352%, 99.804688%)" offset="0.210937"/><stop stop-opacity="1" stop-color="rgb(35.888672%, 84.040833%, 99.798584%)" offset="0.214844"/><stop stop-opacity="1" stop-color="rgb(35.662842%, 83.834839%, 99.79248%)" offset="0.21875"/><stop stop-opacity="1" stop-color="rgb(35.435486%, 83.627319%, 99.786377%)" offset="0.222656"/><stop stop-opacity="1" stop-color="rgb(35.20813%, 83.421326%, 99.780273%)" offset="0.226562"/><stop stop-opacity="1" stop-color="rgb(34.980774%, 83.215332%, 99.772644%)" offset="0.230469"/><stop stop-opacity="1" stop-color="rgb(34.753418%, 83.009338%, 99.766541%)" offset="0.234375"/><stop stop-opacity="1" stop-color="rgb(34.526062%, 82.801819%, 99.760437%)" offset="0.238281"/><stop stop-opacity="1" stop-color="rgb(34.298706%, 82.595825%, 99.754333%)" offset="0.242187"/><stop stop-opacity="1" stop-color="rgb(34.07135%, 82.388306%, 99.74823%)" offset="0.246094"/><stop stop-opacity="1" stop-color="rgb(33.84552%, 82.182312%, 99.742126%)" offset="0.25"/><stop stop-opacity="1" stop-color="rgb(33.618164%, 81.974792%, 99.734497%)" offset="0.253906"/><stop stop-opacity="1" stop-color="rgb(33.390808%, 81.768799%, 99.728394%)" offset="0.257812"/><stop stop-opacity="1" stop-color="rgb(33.163452%, 81.562805%, 99.72229%)" offset="0.261719"/><stop stop-opacity="1" stop-color="rgb(32.936096%, 81.356812%, 99.716187%)" offset="0.265625"/><stop stop-opacity="1" stop-color="rgb(32.70874%, 81.149292%, 99.710083%)" offset="0.269531"/><stop stop-opacity="1" stop-color="rgb(32.48291%, 80.943298%, 99.703979%)" offset="0.273437"/><stop stop-opacity="1" stop-color="rgb(32.255554%, 80.735779%, 99.69635%)" offset="0.277344"/><stop stop-opacity="1" stop-color="rgb(32.028198%, 80.529785%, 99.690247%)" offset="0.28125"/><stop stop-opacity="1" stop-color="rgb(31.800842%, 80.322266%, 99.684143%)" offset="0.285156"/><stop stop-opacity="1" stop-color="rgb(31.573486%, 80.116272%, 99.67804%)" offset="0.289062"/><stop stop-opacity="1" stop-color="rgb(31.34613%, 79.908752%, 99.671936%)" offset="0.292969"/><stop stop-opacity="1" stop-color="rgb(31.118774%, 79.702759%, 99.665833%)" offset="0.296875"/><stop stop-opacity="1" stop-color="rgb(30.891418%, 79.496765%, 99.659729%)" offset="0.300781"/><stop stop-opacity="1" stop-color="rgb(30.665588%, 79.290771%, 99.653625%)" offset="0.304687"/><stop stop-opacity="1" stop-color="rgb(30.438232%, 79.083252%, 99.645996%)" offset="0.308594"/><stop stop-opacity="1" stop-color="rgb(30.210876%, 78.877258%, 99.639893%)" offset="0.3125"/><stop stop-opacity="1" stop-color="rgb(29.983521%, 78.669739%, 99.633789%)" offset="0.316406"/><stop stop-opacity="1" stop-color="rgb(29.756165%, 78.463745%, 99.627686%)" offset="0.320312"/><stop stop-opacity="1" stop-color="rgb(29.528809%, 78.256226%, 99.621582%)" offset="0.324219"/><stop stop-opacity="1" stop-color="rgb(29.301453%, 78.050232%, 99.615479%)" offset="0.328125"/><stop stop-opacity="1" stop-color="rgb(29.074097%, 77.842712%, 99.607849%)" offset="0.332031"/><stop stop-opacity="1" stop-color="rgb(28.848267%, 77.636719%, 99.601746%)" offset="0.335937"/><stop stop-opacity="1" stop-color="rgb(28.620911%, 77.430725%, 99.595642%)" offset="0.339844"/><stop stop-opacity="1" stop-color="rgb(28.393555%, 77.224731%, 99.589539%)" offset="0.34375"/><stop stop-opacity="1" stop-color="rgb(28.166199%, 77.017212%, 99.583435%)" offset="0.347656"/><stop stop-opacity="1" stop-color="rgb(27.938843%, 76.811218%, 99.577332%)" offset="0.351562"/><stop stop-opacity="1" stop-color="rgb(27.711487%, 76.603699%, 99.571228%)" offset="0.355469"/><stop stop-opacity="1" stop-color="rgb(27.485657%, 76.397705%, 99.565125%)" offset="0.359375"/><stop stop-opacity="1" stop-color="rgb(27.258301%, 76.190186%, 99.557495%)" offset="0.363281"/><stop stop-opacity="1" stop-color="rgb(27.030945%, 75.984192%, 99.551392%)" offset="0.367187"/><stop stop-opacity="1" stop-color="rgb(26.803589%, 75.778198%, 99.545288%)" offset="0.371094"/><stop stop-opacity="1" stop-color="rgb(26.576233%, 75.572205%, 99.539185%)" offset="0.375"/><stop stop-opacity="1" stop-color="rgb(26.348877%, 75.364685%, 99.533081%)" offset="0.378906"/><stop stop-opacity="1" stop-color="rgb(26.121521%, 75.158691%, 99.526978%)" offset="0.382812"/><stop stop-opacity="1" stop-color="rgb(25.894165%, 74.951172%, 99.519348%)" offset="0.386719"/><stop stop-opacity="1" stop-color="rgb(25.668335%, 74.745178%, 99.513245%)" offset="0.390625"/><stop stop-opacity="1" stop-color="rgb(25.440979%, 74.537659%, 99.507141%)" offset="0.394531"/><stop stop-opacity="1" stop-color="rgb(25.213623%, 74.331665%, 99.501038%)" offset="0.398437"/><stop stop-opacity="1" stop-color="rgb(24.986267%, 74.124146%, 99.494934%)" offset="0.402344"/><stop stop-opacity="1" stop-color="rgb(24.758911%, 73.918152%, 99.488831%)" offset="0.40625"/><stop stop-opacity="1" stop-color="rgb(24.531555%, 73.712158%, 99.482727%)" offset="0.410156"/><stop stop-opacity="1" stop-color="rgb(24.305725%, 73.506165%, 99.476624%)" offset="0.414062"/><stop stop-opacity="1" stop-color="rgb(24.078369%, 73.298645%, 99.468994%)" offset="0.417969"/><stop stop-opacity="1" stop-color="rgb(23.851013%, 73.092651%, 99.462891%)" offset="0.421875"/><stop stop-opacity="1" stop-color="rgb(23.623657%, 72.885132%, 99.456787%)" offset="0.425781"/><stop stop-opacity="1" stop-color="rgb(23.396301%, 72.679138%, 99.450684%)" offset="0.429687"/><stop stop-opacity="1" stop-color="rgb(23.168945%, 72.471619%, 99.44458%)" offset="0.433594"/><stop stop-opacity="1" stop-color="rgb(22.941589%, 72.265625%, 99.438477%)" offset="0.4375"/><stop stop-opacity="1" stop-color="rgb(22.714233%, 72.058105%, 99.430847%)" offset="0.441406"/><stop stop-opacity="1" stop-color="rgb(22.488403%, 71.852112%, 99.424744%)" offset="0.445312"/><stop stop-opacity="1" stop-color="rgb(22.261047%, 71.646118%, 99.41864%)" offset="0.449219"/><stop stop-opacity="1" stop-color="rgb(22.033691%, 71.440125%, 99.412537%)" offset="0.453125"/><stop stop-opacity="1" stop-color="rgb(21.806335%, 71.232605%, 99.406433%)" offset="0.457031"/><stop stop-opacity="1" stop-color="rgb(21.578979%, 71.026611%, 99.40033%)" offset="0.460937"/><stop stop-opacity="1" stop-color="rgb(21.351624%, 70.819092%, 99.394226%)" offset="0.464844"/><stop stop-opacity="1" stop-color="rgb(21.124268%, 70.613098%, 99.388123%)" offset="0.46875"/><stop stop-opacity="1" stop-color="rgb(20.896912%, 70.405579%, 99.380493%)" offset="0.472656"/><stop stop-opacity="1" stop-color="rgb(20.671082%, 70.199585%, 99.37439%)" offset="0.476562"/><stop stop-opacity="1" stop-color="rgb(20.443726%, 69.993591%, 99.368286%)" offset="0.480469"/><stop stop-opacity="1" stop-color="rgb(20.21637%, 69.787598%, 99.362183%)" offset="0.484375"/><stop stop-opacity="1" stop-color="rgb(19.989014%, 69.580078%, 99.356079%)" offset="0.488281"/><stop stop-opacity="1" stop-color="rgb(19.761658%, 69.374084%, 99.349976%)" offset="0.492187"/><stop stop-opacity="1" stop-color="rgb(19.534302%, 69.166565%, 99.342346%)" offset="0.496094"/><stop stop-opacity="1" stop-color="rgb(19.308472%, 68.960571%, 99.336243%)" offset="0.5"/><stop stop-opacity="1" stop-color="rgb(19.081116%, 68.753052%, 99.330139%)" offset="0.503906"/><stop stop-opacity="1" stop-color="rgb(18.85376%, 68.547058%, 99.324036%)" offset="0.507812"/><stop stop-opacity="1" stop-color="rgb(18.626404%, 68.339539%, 99.317932%)" offset="0.511719"/><stop stop-opacity="1" stop-color="rgb(18.399048%, 68.133545%, 99.311829%)" offset="0.515625"/><stop stop-opacity="1" stop-color="rgb(18.171692%, 67.927551%, 99.305725%)" offset="0.519531"/><stop stop-opacity="1" stop-color="rgb(17.944336%, 67.721558%, 99.299622%)" offset="0.523437"/><stop stop-opacity="1" stop-color="rgb(17.71698%, 67.514038%, 99.291992%)" offset="0.527344"/><stop stop-opacity="1" stop-color="rgb(17.49115%, 67.308044%, 99.285889%)" offset="0.53125"/><stop stop-opacity="1" stop-color="rgb(17.263794%, 67.100525%, 99.279785%)" offset="0.535156"/><stop stop-opacity="1" stop-color="rgb(17.036438%, 66.894531%, 99.273682%)" offset="0.539062"/><stop stop-opacity="1" stop-color="rgb(16.809082%, 66.687012%, 99.267578%)" offset="0.542969"/><stop stop-opacity="1" stop-color="rgb(16.581726%, 66.481018%, 99.261475%)" offset="0.546875"/><stop stop-opacity="1" stop-color="rgb(16.35437%, 66.275024%, 99.253845%)" offset="0.550781"/><stop stop-opacity="1" stop-color="rgb(16.127014%, 66.069031%, 99.247742%)" offset="0.554688"/><stop stop-opacity="1" stop-color="rgb(15.899658%, 65.861511%, 99.241638%)" offset="0.558594"/><stop stop-opacity="1" stop-color="rgb(15.673828%, 65.655518%, 99.235535%)" offset="0.5625"/><stop stop-opacity="1" stop-color="rgb(15.446472%, 65.447998%, 99.229431%)" offset="0.566406"/><stop stop-opacity="1" stop-color="rgb(15.219116%, 65.242004%, 99.223328%)" offset="0.570312"/><stop stop-opacity="1" stop-color="rgb(14.99176%, 65.034485%, 99.215698%)" offset="0.574219"/><stop stop-opacity="1" stop-color="rgb(14.764404%, 64.828491%, 99.209595%)" offset="0.578125"/><stop stop-opacity="1" stop-color="rgb(14.537048%, 64.620972%, 99.203491%)" offset="0.582031"/><stop stop-opacity="1" stop-color="rgb(14.311218%, 64.414978%, 99.197388%)" offset="0.585937"/><stop stop-opacity="1" stop-color="rgb(14.083862%, 64.208984%, 99.191284%)" offset="0.589844"/><stop stop-opacity="1" stop-color="rgb(13.856506%, 64.002991%, 99.185181%)" offset="0.59375"/><stop stop-opacity="1" stop-color="rgb(13.62915%, 63.795471%, 99.179077%)" offset="0.597656"/><stop stop-opacity="1" stop-color="rgb(13.401794%, 63.589478%, 99.172974%)" offset="0.601562"/><stop stop-opacity="1" stop-color="rgb(13.174438%, 63.381958%, 99.165344%)" offset="0.605469"/><stop stop-opacity="1" stop-color="rgb(12.947083%, 63.175964%, 99.159241%)" offset="0.609375"/><stop stop-opacity="1" stop-color="rgb(12.719727%, 62.968445%, 99.153137%)" offset="0.613281"/><stop stop-opacity="1" stop-color="rgb(12.493896%, 62.762451%, 99.147034%)" offset="0.617187"/><stop stop-opacity="1" stop-color="rgb(12.266541%, 62.554932%, 99.14093%)" offset="0.621094"/><stop stop-opacity="1" stop-color="rgb(12.039185%, 62.348938%, 99.134827%)" offset="0.625"/><stop stop-opacity="1" stop-color="rgb(11.811829%, 62.142944%, 99.127197%)" offset="0.628906"/><stop stop-opacity="1" stop-color="rgb(11.584473%, 61.936951%, 99.121094%)" offset="0.632812"/><stop stop-opacity="1" stop-color="rgb(11.357117%, 61.729431%, 99.11499%)" offset="0.636719"/><stop stop-opacity="1" stop-color="rgb(11.129761%, 61.523438%, 99.108887%)" offset="0.640625"/><stop stop-opacity="1" stop-color="rgb(10.902405%, 61.315918%, 99.102783%)" offset="0.644531"/><stop stop-opacity="1" stop-color="rgb(10.676575%, 61.109924%, 99.09668%)" offset="0.648437"/><stop stop-opacity="1" stop-color="rgb(10.449219%, 60.902405%, 99.090576%)" offset="0.652344"/><stop stop-opacity="1" stop-color="rgb(10.221863%, 60.696411%, 99.084473%)" offset="0.65625"/><stop stop-opacity="1" stop-color="rgb(9.994507%, 60.490417%, 99.076843%)" offset="0.660156"/><stop stop-opacity="1" stop-color="rgb(9.767151%, 60.284424%, 99.07074%)" offset="0.664062"/><stop stop-opacity="1" stop-color="rgb(9.539795%, 60.076904%, 99.064636%)" offset="0.667969"/><stop stop-opacity="1" stop-color="rgb(9.313965%, 59.870911%, 99.058533%)" offset="0.671875"/><stop stop-opacity="1" stop-color="rgb(9.086609%, 59.663391%, 99.052429%)" offset="0.675781"/><stop stop-opacity="1" stop-color="rgb(8.859253%, 59.457397%, 99.046326%)" offset="0.679688"/><stop stop-opacity="1" stop-color="rgb(8.631897%, 59.249878%, 99.038696%)" offset="0.683594"/><stop stop-opacity="1" stop-color="rgb(8.404541%, 59.043884%, 99.032593%)" offset="0.6875"/><stop stop-opacity="1" stop-color="rgb(8.177185%, 58.836365%, 99.026489%)" offset="0.691406"/><stop stop-opacity="1" stop-color="rgb(7.949829%, 58.630371%, 99.020386%)" offset="0.695312"/><stop stop-opacity="1" stop-color="rgb(7.722473%, 58.424377%, 99.014282%)" offset="0.699219"/><stop stop-opacity="1" stop-color="rgb(7.496643%, 58.218384%, 99.008179%)" offset="0.703125"/><stop stop-opacity="1" stop-color="rgb(7.269287%, 58.010864%, 99.002075%)" offset="0.707031"/><stop stop-opacity="1" stop-color="rgb(7.041931%, 57.804871%, 98.995972%)" offset="0.710937"/><stop stop-opacity="1" stop-color="rgb(6.814575%, 57.597351%, 98.988342%)" offset="0.714844"/><stop stop-opacity="1" stop-color="rgb(6.587219%, 57.391357%, 98.982239%)" offset="0.71875"/><stop stop-opacity="1" stop-color="rgb(6.359863%, 57.183838%, 98.976135%)" offset="0.722656"/><stop stop-opacity="1" stop-color="rgb(6.132507%, 56.977844%, 98.970032%)" offset="0.726562"/><stop stop-opacity="1" stop-color="rgb(5.905151%, 56.770325%, 98.963928%)" offset="0.730469"/><stop stop-opacity="1" stop-color="rgb(5.679321%, 56.564331%, 98.957825%)" offset="0.734375"/><stop stop-opacity="1" stop-color="rgb(5.451965%, 56.358337%, 98.950195%)" offset="0.738281"/><stop stop-opacity="1" stop-color="rgb(5.224609%, 56.152344%, 98.944092%)" offset="0.742187"/><stop stop-opacity="1" stop-color="rgb(4.997253%, 55.944824%, 98.937988%)" offset="0.746094"/><stop stop-opacity="1" stop-color="rgb(4.769897%, 55.738831%, 98.931885%)" offset="0.75"/><stop stop-opacity="1" stop-color="rgb(4.542542%, 55.531311%, 98.925781%)" offset="0.753906"/><stop stop-opacity="1" stop-color="rgb(4.316711%, 55.325317%, 98.919678%)" offset="0.757812"/><stop stop-opacity="1" stop-color="rgb(4.089355%, 55.117798%, 98.913574%)" offset="0.761719"/><stop stop-opacity="1" stop-color="rgb(3.862%, 54.911804%, 98.907471%)" offset="0.765625"/><stop stop-opacity="1" stop-color="rgb(3.634644%, 54.705811%, 98.899841%)" offset="0.769531"/><stop stop-opacity="1" stop-color="rgb(3.407288%, 54.499817%, 98.893738%)" offset="0.773438"/><stop stop-opacity="1" stop-color="rgb(3.179932%, 54.292297%, 98.887634%)" offset="0.777344"/><stop stop-opacity="1" stop-color="rgb(2.952576%, 54.086304%, 98.881531%)" offset="0.78125"/><stop stop-opacity="1" stop-color="rgb(2.72522%, 53.878784%, 98.875427%)" offset="0.785156"/><stop stop-opacity="1" stop-color="rgb(2.49939%, 53.672791%, 98.869324%)" offset="0.789062"/><stop stop-opacity="1" stop-color="rgb(2.272034%, 53.465271%, 98.861694%)" offset="0.792969"/><stop stop-opacity="1" stop-color="rgb(2.044678%, 53.259277%, 98.855591%)" offset="0.796875"/><stop stop-opacity="1" stop-color="rgb(1.817322%, 53.051758%, 98.849487%)" offset="0.800781"/><stop stop-opacity="1" stop-color="rgb(1.589966%, 52.845764%, 98.843384%)" offset="0.804688"/><stop stop-opacity="1" stop-color="rgb(1.36261%, 52.639771%, 98.83728%)" offset="0.808594"/><stop stop-opacity="1" stop-color="rgb(1.13678%, 52.433777%, 98.831177%)" offset="0.8125"/><stop stop-opacity="1" stop-color="rgb(0.909424%, 52.226257%, 98.825073%)" offset="0.816406"/><stop stop-opacity="1" stop-color="rgb(0.682068%, 52.020264%, 98.81897%)" offset="0.820312"/><stop stop-opacity="1" stop-color="rgb(0.454712%, 51.812744%, 98.81134%)" offset="0.824219"/><stop stop-opacity="1" stop-color="rgb(0.227356%, 51.60675%, 98.805237%)" offset="0.828125"/><stop stop-opacity="1" stop-color="rgb(0.112915%, 51.502991%, 98.802185%)" offset="0.84375"/><stop stop-opacity="1" stop-color="rgb(0%, 51.399231%, 98.799133%)" offset="0.875"/><stop stop-opacity="1" stop-color="rgb(0%, 51.399231%, 98.799133%)" offset="1"/></linearGradient></defs><rect x="-37.5" width="450" fill="#ffffff" y="-37.499999" height="449.999989" fill-opacity="1"/><rect x="-37.5" width="450" fill="#ffffff" y="-37.499999" height="449.999989" fill-opacity="1"/><g clip-path="url(#b619bab305)"><g clip-path="url(#7d74dd0ae5)"><path fill="url(#eec1ce1f7c)" d="M 134.339844 93.828125 L 134.339844 205.433594 L 240.683594 205.433594 L 240.683594 93.828125 Z M 134.339844 93.828125 " fill-rule="nonzero"/></g></g><g fill="#196eff" fill-opacity="1"><g transform="translate(34.810436, 263.883088)"><g><path d="M 2.109375 -9.453125 L 4.515625 -14.4375 L 1.453125 -14.4375 L 1.453125 -16.78125 L 5.65625 -16.78125 L 6.90625 -19.375 L 5.0625 -19.375 L 4.546875 -17.984375 L 1.21875 -17.984375 L 2.875 -22.78125 L 6.3125 -22.78125 L 5.9375 -21.765625 L 14.09375 -21.765625 L 14.09375 -19.375 L 10.5625 -19.375 L 9.3125 -16.78125 L 14.484375 -16.78125 L 14.484375 -14.4375 L 12.265625 -14.4375 L 14.4375 -9.453125 L 10.875 -9.453125 L 8.953125 -14.4375 L 8.15625 -14.4375 L 5.703125 -9.453125 Z M 26.28125 -21.8125 L 26.28125 -10 L 15.734375 -10 L 15.734375 -21.8125 Z M 22.859375 -19.375 L 19.140625 -19.375 L 19.140625 -12.4375 L 22.859375 -12.4375 Z M 3.359375 -8.609375 L 24.796875 -8.609375 L 24.796875 2.4375 L 3.359375 2.4375 Z M 7.046875 -6.28125 L 7.046875 -4.234375 L 21.140625 -4.234375 L 21.140625 -6.28125 Z M 21.140625 0.109375 L 21.140625 -1.9375 L 7.046875 -1.9375 L 7.046875 0.109375 Z M 21.140625 0.109375 "/></g></g></g><g fill="#196eff" fill-opacity="1"><g transform="translate(69.057284, 263.883088)"><g><path d="M 26.15625 -11.140625 L 15.734375 -11.140625 L 15.734375 -22.78125 L 19.0625 -22.78125 L 19.0625 -19.71875 L 26.25 -20.53125 L 26.25 -17.671875 L 19.0625 -16.875 L 19.0625 -13.71875 L 23.890625 -13.71875 L 24.28125 -15.59375 L 27.09375 -15.59375 Z M 13.15625 -20.9375 L 14.6875 -14.40625 L 11.59375 -14.40625 L 11.359375 -15.34375 L 2.046875 -14.75 L 2.046875 -17.46875 L 5.453125 -22.71875 L 8.96875 -22.71875 L 5.703125 -17.25 L 10.828125 -17.640625 L 10.0625 -20.9375 Z M 2.328125 -13.578125 L 14.125 -13.578125 L 14.125 1.046875 L 11.1875 3.328125 L 9.203125 0.96875 L 10.90625 -0.171875 L 10.90625 -2.046875 L 5.5625 -2.046875 L 5.5625 2.984375 L 2.328125 2.984375 Z M 5.5625 -11.140625 L 5.5625 -9.03125 L 10.90625 -9.03125 L 10.90625 -11.140625 Z M 24.28125 -1.671875 L 27.09375 -1.671875 L 26.15625 2.734375 L 15.734375 2.734375 L 15.734375 -9.859375 L 19.0625 -9.859375 L 19.0625 -6.703125 L 26.25 -7.53125 L 26.25 -4.65625 L 19.0625 -3.859375 L 19.0625 0.171875 L 23.890625 0.171875 Z M 10.90625 -4.34375 L 10.90625 -6.734375 L 5.5625 -6.734375 L 5.5625 -4.34375 Z M 10.90625 -4.34375 "/></g></g></g><g fill="#196eff" fill-opacity="1"><g transform="translate(103.304133, 263.883088)"><g><path d="M 26.90625 -21.15625 L 26.90625 -18.4375 L 9.59375 -18.4375 L 9.59375 -21.15625 L 16.3125 -21.15625 L 15.9375 -22.75 L 19.796875 -22.75 L 20.171875 -21.15625 Z M 8.96875 -22.703125 L 7.328125 -17.5 L 7.328125 2.890625 L 3.828125 2.890625 L 3.828125 -9.90625 L 1.25 -9.90625 L 5.203125 -22.703125 Z M 26.109375 -13.6875 L 10.375 -13.6875 L 10.375 -16.390625 L 26.109375 -16.390625 Z M 10.375 -11.671875 L 26.109375 -11.671875 L 26.109375 -8.953125 L 10.375 -8.953125 Z M 10.0625 -6.9375 L 26.421875 -6.9375 L 26.421875 2.875 L 10.0625 2.875 Z M 13.46875 -4.546875 L 13.46875 0.515625 L 22.859375 0.515625 L 22.859375 -4.546875 Z M 13.46875 -4.546875 "/></g></g></g><g fill="#196eff" fill-opacity="1"><g transform="translate(137.550976, 263.883088)"><g><path d="M 25.25 -6.984375 L 2.671875 -6.984375 L 2.671875 -21.390625 L 9.40625 -21.390625 L 10.109375 -22.640625 L 14.203125 -22.640625 L 13.5 -21.390625 L 25.25 -21.390625 Z M 6.453125 -18.96875 L 6.453125 -17.328125 L 21.53125 -17.328125 L 21.53125 -18.96875 Z M 6.453125 -15 L 6.453125 -13.265625 L 21.53125 -13.265625 L 21.53125 -15 Z M 21.53125 -9.375 L 21.53125 -10.9375 L 6.453125 -10.9375 L 6.453125 -9.375 Z M 14.0625 -5.96875 L 17.578125 -5.96875 L 18.828125 -1.796875 L 15.3125 -1.796875 Z M 18.71875 -1.484375 L 21.84375 -1.484375 L 20.515625 2.75 L 8.015625 2.75 L 8.015625 -5.875 L 11.640625 -5.875 L 11.640625 0.140625 L 18.15625 0.140625 Z M 3.0625 -5.5625 L 6.59375 -5.5625 L 4.828125 2.75 L 1.28125 2.75 Z M 27.078125 2.75 L 23.546875 2.75 L 21.765625 -5.5625 L 25.25 -5.5625 Z M 27.078125 2.75 "/></g></g></g><g fill="#196eff" fill-opacity="1"><g transform="translate(171.797831, 263.883088)"><g><path d="M 26.984375 -0.140625 L 26.984375 2.734375 L 11.78125 2.734375 L 8.265625 -2.578125 L 5.796875 2.734375 L 2.109375 2.734375 L 6.046875 -5.90625 L 2.078125 -11.875 L 6 -11.875 L 7.703125 -9.546875 L 11.15625 -17.15625 L 6.5 -17.15625 L 5.25 -13.203125 L 1.421875 -13.203125 L 4.4375 -22.84375 L 8.296875 -22.84375 L 7.40625 -20.03125 L 14.765625 -20.03125 L 14.765625 -16.5625 L 10 -6.328125 L 14.484375 -0.140625 Z M 20.34375 -1.171875 L 16.625 -1.171875 L 16.625 -22.75 L 20.34375 -22.75 Z M 23.4375 -4.796875 L 21.59375 -18.78125 L 24.96875 -18.78125 L 26.78125 -4.796875 Z M 23.4375 -4.796875 "/></g></g></g><g fill="#196eff" fill-opacity="1"><g transform="translate(206.044685, 263.883088)"><g><path d="M 10.453125 2.84375 L 10.453125 0.375 L 17.125 0.375 L 17.125 -2.984375 L 11.5 -2.984375 L 11.5 -5.484375 L 17.125 -5.484375 L 17.125 -8.0625 L 11.140625 -8.0625 L 11.140625 -21.984375 L 26.421875 -21.984375 L 26.421875 -8.0625 L 20.453125 -8.0625 L 20.453125 -5.484375 L 26.359375 -5.484375 L 26.359375 -2.984375 L 20.453125 -2.984375 L 20.453125 0.375 L 27.078125 0.375 L 27.078125 2.84375 Z M 1.171875 1.796875 L 1.171875 -0.828125 L 3.921875 -0.875 L 3.921875 -9.265625 L 1.390625 -9.265625 L 1.390625 -12.078125 L 3.921875 -12.078125 L 3.921875 -19.03125 L 1.421875 -19.03125 L 1.421875 -21.765625 L 9.890625 -21.765625 L 9.890625 -19.03125 L 7.390625 -19.03125 L 7.390625 -12.09375 L 10.03125 -12.09375 L 10.03125 -9.265625 L 7.390625 -9.265625 L 7.390625 -0.90625 L 10.171875 -1 L 10.171875 1.625 Z M 17.125 -19.546875 L 14.453125 -19.546875 L 14.453125 -16.25 L 17.125 -16.25 Z M 23.125 -19.546875 L 20.453125 -19.546875 L 20.453125 -16.25 L 23.125 -16.25 Z M 17.125 -13.828125 L 14.453125 -13.828125 L 14.453125 -10.5625 L 17.125 -10.5625 Z M 23.125 -13.828125 L 20.453125 -13.828125 L 20.453125 -10.5625 L 23.125 -10.5625 Z M 23.125 -13.828125 "/></g></g></g><g fill="#196eff" fill-opacity="1"><g transform="translate(240.29154, 263.883088)"><g><path d="M 5.65625 -15.828125 L 1.984375 -15.828125 L 1.984375 -21.015625 L 12.40625 -21.015625 L 11.671875 -22.71875 L 15.765625 -22.71875 L 16.5 -21.015625 L 26.421875 -21.015625 L 26.421875 -15.828125 L 22.75 -15.828125 L 22.75 -18.4375 L 5.65625 -18.4375 Z M 26.8125 -7.25 L 26.8125 -4.65625 L 14.828125 -4.65625 L 7.84375 2.53125 L 2.8125 2.53125 L 10.171875 -4.65625 L 1.359375 -4.65625 L 1.359375 -7.25 L 14.796875 -7.25 L 14.796875 -16.765625 L 18.46875 -16.765625 L 18.46875 -7.25 Z M 13.375 -12.671875 L 9.40625 -12.671875 L 6.328125 -16.5625 L 10.25 -16.5625 Z M 8.125 -12.390625 L 11.28125 -8.578125 L 7.125 -8.578125 L 4 -12.390625 Z M 20.28125 -3.328125 L 26.453125 2.734375 L 21.953125 2.734375 L 15.9375 -3.328125 Z M 20.28125 -3.328125 "/></g></g></g><g fill="#196eff" fill-opacity="1"><g transform="translate(274.538395, 263.883088)"><g><path d="M 10.171875 -11.015625 L 11.078125 -11.015625 L 11.078125 0.875 L 8.0625 3.15625 L 6.015625 1.015625 L 7.953125 -0.421875 L 7.953125 -8.609375 L 1.5625 -8.609375 L 2.5625 -17.890625 L 5.484375 -17.890625 L 4.828125 -11.015625 L 7.046875 -11.015625 L 7.609375 -19.90625 L 1.640625 -19.90625 L 1.640625 -22.359375 L 10.96875 -22.359375 L 10.53125 -16.15625 L 16.15625 -22.609375 L 21.90625 -22.609375 L 27.265625 -16.140625 L 22.78125 -16.140625 L 19.03125 -20.9375 L 15.078125 -16.140625 L 10.53125 -16.140625 Z M 26.25 -12.328125 L 12.1875 -12.328125 L 12.1875 -15.03125 L 26.25 -15.03125 Z M 11.78125 -11.21875 L 14.859375 -11.21875 L 16.359375 -1.3125 L 13.34375 -1.3125 Z M 16.640625 -11.21875 L 19.6875 -11.21875 L 21.1875 -1.28125 L 18.125 -1.28125 Z M 21.78125 -1.25 L 23.09375 -11.21875 L 26.078125 -11.21875 L 24.765625 -1.25 Z M 6.953125 -3.265625 L 1.328125 -2.5625 L 1.328125 -5.140625 L 6.953125 -5.859375 Z M 11.59375 -0.234375 L 26.984375 -0.234375 L 26.984375 2.46875 L 11.59375 2.46875 Z M 11.59375 -0.234375 "/></g></g></g><g fill="#196eff" fill-opacity="1"><g transform="translate(308.78525, 263.883088)"><g><path d="M 26.53125 -21.28125 L 26.53125 -16.21875 L 22.703125 -16.21875 L 22.703125 -18.71875 L 5.59375 -18.71875 L 5.59375 -16.21875 L 1.671875 -16.21875 L 1.671875 -21.28125 L 11.984375 -21.28125 L 11.28125 -22.84375 L 15.734375 -22.84375 L 16.5 -21.28125 Z M 15.90625 -0.03125 L 26.359375 -0.03125 L 26.359375 2.53125 L 1.703125 2.53125 L 1.703125 -0.03125 L 12.078125 -0.03125 L 12.078125 -2.8125 L 2.953125 -2.8125 L 2.953125 -5.25 L 12.078125 -5.25 L 12.078125 -7.296875 L 3.546875 -6.9375 L 3.546875 -9.765625 L 6.796875 -13.234375 L 2.8125 -13.234375 L 2.8125 -15.703125 L 25.59375 -15.703125 L 25.59375 -13.234375 L 11.3125 -13.234375 L 7.984375 -9.6875 L 19.828125 -10.25 L 18.890625 -12.25 L 22.640625 -12.25 L 25.140625 -7.015625 L 21.359375 -7.015625 L 21.046875 -7.671875 L 15.90625 -7.46875 L 15.90625 -5.25 L 25.421875 -5.25 L 25.421875 -2.8125 L 15.90625 -2.8125 Z M 15.90625 -0.03125 "/></g></g></g><g fill="#196eff" fill-opacity="1"><g transform="translate(34.463147, 227.568002)"><g><path d="M 2.015625 0.078125 C 1.835938 0.078125 1.6875 0.015625 1.5625 -0.109375 C 1.4375 -0.234375 1.375 -0.382812 1.375 -0.5625 L 1.375 -9.3125 C 1.375 -9.488281 1.4375 -9.640625 1.5625 -9.765625 C 1.6875 -9.898438 1.835938 -9.96875 2.015625 -9.96875 C 2.191406 -9.96875 2.34375 -9.898438 2.46875 -9.765625 C 2.601562 -9.640625 2.671875 -9.488281 2.671875 -9.3125 L 2.671875 -0.5625 C 2.671875 -0.382812 2.601562 -0.234375 2.46875 -0.109375 C 2.34375 0.015625 2.191406 0.078125 2.015625 0.078125 Z M 2.015625 0.078125 "/></g></g></g><g fill="#196eff" fill-opacity="1"><g transform="translate(38.50205, 227.568002)"><g><path d="M 1.75 0.078125 C 1.570312 0.078125 1.421875 0.015625 1.296875 -0.109375 C 1.179688 -0.234375 1.125 -0.382812 1.125 -0.5625 L 1.125 -6.640625 C 1.125 -6.828125 1.179688 -6.984375 1.296875 -7.109375 C 1.421875 -7.234375 1.570312 -7.296875 1.75 -7.296875 C 1.9375 -7.296875 2.09375 -7.234375 2.21875 -7.109375 C 2.34375 -6.984375 2.40625 -6.828125 2.40625 -6.640625 L 2.40625 -6.0625 C 2.769531 -6.457031 3.15625 -6.773438 3.5625 -7.015625 C 3.976562 -7.253906 4.472656 -7.375 5.046875 -7.375 C 5.566406 -7.375 6.015625 -7.25 6.390625 -7 C 6.773438 -6.75 7.066406 -6.410156 7.265625 -5.984375 C 7.472656 -5.566406 7.578125 -5.101562 7.578125 -4.59375 L 7.578125 -0.5625 C 7.578125 -0.382812 7.515625 -0.234375 7.390625 -0.109375 C 7.265625 0.015625 7.113281 0.078125 6.9375 0.078125 C 6.75 0.078125 6.59375 0.015625 6.46875 -0.109375 C 6.351562 -0.234375 6.296875 -0.382812 6.296875 -0.5625 L 6.296875 -4.453125 C 6.296875 -5.597656 5.773438 -6.171875 4.734375 -6.171875 C 4.265625 -6.171875 3.84375 -6.046875 3.46875 -5.796875 C 3.09375 -5.554688 2.738281 -5.226562 2.40625 -4.8125 L 2.40625 -0.5625 C 2.40625 -0.382812 2.34375 -0.234375 2.21875 -0.109375 C 2.09375 0.015625 1.9375 0.078125 1.75 0.078125 Z M 1.75 0.078125 "/></g></g></g><g fill="#196eff" fill-opacity="1"><g transform="translate(47.132539, 227.568002)"><g><path d="M 3.609375 0.140625 C 2.234375 0.140625 1.546875 -0.484375 1.546875 -1.734375 L 1.546875 -6.125 L 0.53125 -6.125 C 0.457031 -6.125 0.394531 -6.148438 0.34375 -6.203125 C 0.289062 -6.253906 0.265625 -6.316406 0.265625 -6.390625 C 0.265625 -6.484375 0.304688 -6.5625 0.390625 -6.625 L 2.328125 -8.515625 C 2.410156 -8.597656 2.488281 -8.640625 2.5625 -8.640625 C 2.632812 -8.640625 2.695312 -8.609375 2.75 -8.546875 C 2.800781 -8.492188 2.828125 -8.429688 2.828125 -8.359375 L 2.828125 -7.234375 L 4.4375 -7.234375 C 4.59375 -7.234375 4.722656 -7.179688 4.828125 -7.078125 C 4.929688 -6.972656 4.984375 -6.835938 4.984375 -6.671875 C 4.984375 -6.523438 4.929688 -6.394531 4.828125 -6.28125 C 4.722656 -6.175781 4.59375 -6.125 4.4375 -6.125 L 2.828125 -6.125 L 2.828125 -1.84375 C 2.828125 -1.476562 2.914062 -1.242188 3.09375 -1.140625 C 3.269531 -1.035156 3.488281 -0.984375 3.75 -0.984375 C 3.9375 -0.984375 4.128906 -1.015625 4.328125 -1.078125 C 4.359375 -1.085938 4.394531 -1.097656 4.4375 -1.109375 C 4.476562 -1.117188 4.535156 -1.125 4.609375 -1.125 C 4.734375 -1.125 4.847656 -1.070312 4.953125 -0.96875 C 5.054688 -0.875 5.109375 -0.753906 5.109375 -0.609375 C 5.109375 -0.390625 5.003906 -0.222656 4.796875 -0.109375 C 4.421875 0.0546875 4.023438 0.140625 3.609375 0.140625 Z M 3.609375 0.140625 "/></g></g></g><g fill="#196eff" fill-opacity="1"><g transform="translate(52.546075, 227.568002)"><g><path d="M 4.34375 0.140625 C 3.195312 0.140625 2.300781 -0.1875 1.65625 -0.84375 C 1.007812 -1.5 0.6875 -2.421875 0.6875 -3.609375 C 0.6875 -4.285156 0.804688 -4.90625 1.046875 -5.46875 C 1.296875 -6.039062 1.675781 -6.5 2.1875 -6.84375 C 2.695312 -7.195312 3.320312 -7.375 4.0625 -7.375 C 4.757812 -7.375 5.363281 -7.207031 5.875 -6.875 C 6.382812 -6.550781 6.769531 -6.117188 7.03125 -5.578125 C 7.300781 -5.035156 7.4375 -4.441406 7.4375 -3.796875 C 7.4375 -3.617188 7.375 -3.46875 7.25 -3.34375 C 7.132812 -3.21875 6.976562 -3.15625 6.78125 -3.15625 L 1.984375 -3.15625 C 2.054688 -2.5 2.300781 -1.984375 2.71875 -1.609375 C 3.132812 -1.242188 3.71875 -1.0625 4.46875 -1.0625 C 4.863281 -1.0625 5.207031 -1.097656 5.5 -1.171875 C 5.800781 -1.253906 6.09375 -1.363281 6.375 -1.5 C 6.445312 -1.539062 6.53125 -1.5625 6.625 -1.5625 C 6.78125 -1.5625 6.914062 -1.507812 7.03125 -1.40625 C 7.144531 -1.300781 7.203125 -1.164062 7.203125 -1 C 7.203125 -0.789062 7.078125 -0.617188 6.828125 -0.484375 C 6.460938 -0.273438 6.097656 -0.117188 5.734375 -0.015625 C 5.378906 0.0859375 4.914062 0.140625 4.34375 0.140625 Z M 6.171875 -4.203125 C 6.140625 -4.671875 6.015625 -5.0625 5.796875 -5.375 C 5.585938 -5.6875 5.328125 -5.914062 5.015625 -6.0625 C 4.703125 -6.207031 4.382812 -6.28125 4.0625 -6.28125 C 3.738281 -6.28125 3.421875 -6.207031 3.109375 -6.0625 C 2.804688 -5.914062 2.550781 -5.6875 2.34375 -5.375 C 2.132812 -5.0625 2.015625 -4.671875 1.984375 -4.203125 Z M 6.171875 -4.203125 "/></g></g></g><g fill="#196eff" fill-opacity="1"><g transform="translate(60.567179, 227.568002)"><g><path d="M 1.75 0.078125 C 1.570312 0.078125 1.421875 0.015625 1.296875 -0.109375 C 1.179688 -0.234375 1.125 -0.382812 1.125 -0.5625 L 1.125 -9.765625 C 1.125 -9.941406 1.179688 -10.09375 1.296875 -10.21875 C 1.421875 -10.351562 1.570312 -10.421875 1.75 -10.421875 C 1.945312 -10.421875 2.101562 -10.359375 2.21875 -10.234375 C 2.34375 -10.109375 2.40625 -9.953125 2.40625 -9.765625 L 2.40625 -0.5625 C 2.40625 -0.382812 2.34375 -0.234375 2.21875 -0.109375 C 2.09375 0.015625 1.9375 0.078125 1.75 0.078125 Z M 1.75 0.078125 "/></g></g></g><g fill="#196eff" fill-opacity="1"><g transform="translate(64.095906, 227.568002)"><g><path d="M 1.75 0.078125 C 1.570312 0.078125 1.421875 0.015625 1.296875 -0.109375 C 1.179688 -0.234375 1.125 -0.382812 1.125 -0.5625 L 1.125 -9.765625 C 1.125 -9.941406 1.179688 -10.09375 1.296875 -10.21875 C 1.421875 -10.351562 1.570312 -10.421875 1.75 -10.421875 C 1.945312 -10.421875 2.101562 -10.359375 2.21875 -10.234375 C 2.34375 -10.109375 2.40625 -9.953125 2.40625 -9.765625 L 2.40625 -0.5625 C 2.40625 -0.382812 2.34375 -0.234375 2.21875 -0.109375 C 2.09375 0.015625 1.9375 0.078125 1.75 0.078125 Z M 1.75 0.078125 "/></g></g></g><g fill="#196eff" fill-opacity="1"><g transform="translate(67.624632, 227.568002)"><g><path d="M 1.734375 -8.703125 C 1.535156 -8.703125 1.363281 -8.769531 1.21875 -8.90625 C 1.070312 -9.050781 1 -9.222656 1 -9.421875 L 1 -9.484375 C 1 -9.679688 1.070312 -9.847656 1.21875 -9.984375 C 1.363281 -10.128906 1.535156 -10.203125 1.734375 -10.203125 L 1.8125 -10.203125 C 2.007812 -10.203125 2.175781 -10.128906 2.3125 -9.984375 C 2.457031 -9.847656 2.53125 -9.679688 2.53125 -9.484375 L 2.53125 -9.421875 C 2.53125 -9.222656 2.457031 -9.050781 2.3125 -8.90625 C 2.175781 -8.769531 2.007812 -8.703125 1.8125 -8.703125 Z M 1.75 0.078125 C 1.570312 0.078125 1.421875 0.015625 1.296875 -0.109375 C 1.179688 -0.234375 1.125 -0.382812 1.125 -0.5625 L 1.125 -6.640625 C 1.125 -6.828125 1.179688 -6.984375 1.296875 -7.109375 C 1.421875 -7.234375 1.570312 -7.296875 1.75 -7.296875 C 1.945312 -7.296875 2.101562 -7.234375 2.21875 -7.109375 C 2.34375 -6.992188 2.40625 -6.835938 2.40625 -6.640625 L 2.40625 -0.5625 C 2.40625 -0.382812 2.34375 -0.234375 2.21875 -0.109375 C 2.09375 0.015625 1.9375 0.078125 1.75 0.078125 Z M 1.75 0.078125 "/></g></g></g><g fill="#196eff" fill-opacity="1"><g transform="translate(71.153359, 227.568002)"><g><path d="M 4.5 3.40625 C 3.945312 3.40625 3.390625 3.332031 2.828125 3.1875 C 2.273438 3.039062 1.816406 2.867188 1.453125 2.671875 C 1.285156 2.566406 1.203125 2.398438 1.203125 2.171875 C 1.203125 2.015625 1.253906 1.878906 1.359375 1.765625 C 1.472656 1.648438 1.609375 1.59375 1.765625 1.59375 C 1.847656 1.59375 1.9375 1.609375 2.03125 1.640625 C 2.75 2.003906 3.523438 2.1875 4.359375 2.1875 C 5.804688 2.1875 6.53125 1.414062 6.53125 -0.125 L 6.53125 -1.078125 C 5.863281 -0.359375 5.054688 0 4.109375 0 C 3.554688 0 3.015625 -0.140625 2.484375 -0.421875 C 1.960938 -0.703125 1.53125 -1.117188 1.1875 -1.671875 C 0.851562 -2.222656 0.6875 -2.894531 0.6875 -3.6875 C 0.6875 -4.476562 0.851562 -5.148438 1.1875 -5.703125 C 1.53125 -6.253906 1.960938 -6.671875 2.484375 -6.953125 C 3.015625 -7.234375 3.554688 -7.375 4.109375 -7.375 C 5.054688 -7.375 5.863281 -7.015625 6.53125 -6.296875 L 6.53125 -6.640625 C 6.53125 -6.828125 6.59375 -6.984375 6.71875 -7.109375 C 6.84375 -7.234375 6.992188 -7.296875 7.171875 -7.296875 C 7.347656 -7.296875 7.5 -7.234375 7.625 -7.109375 C 7.757812 -6.984375 7.828125 -6.828125 7.828125 -6.640625 L 7.828125 -0.3125 C 7.828125 0.875 7.535156 1.789062 6.953125 2.4375 C 6.378906 3.082031 5.5625 3.40625 4.5 3.40625 Z M 4.375 -1.171875 C 4.820312 -1.171875 5.210938 -1.265625 5.546875 -1.453125 C 5.890625 -1.648438 6.21875 -1.90625 6.53125 -2.21875 L 6.53125 -5.140625 C 6.21875 -5.460938 5.890625 -5.71875 5.546875 -5.90625 C 5.210938 -6.09375 4.820312 -6.1875 4.375 -6.1875 C 3.664062 -6.1875 3.085938 -5.972656 2.640625 -5.546875 C 2.191406 -5.117188 1.96875 -4.5 1.96875 -3.6875 C 1.96875 -2.875 2.191406 -2.25 2.640625 -1.8125 C 3.085938 -1.382812 3.664062 -1.171875 4.375 -1.171875 Z M 4.375 -1.171875 "/></g></g></g><g fill="#196eff" fill-opacity="1"><g transform="translate(80.095622, 227.568002)"><g><path d="M 4.34375 0.140625 C 3.195312 0.140625 2.300781 -0.1875 1.65625 -0.84375 C 1.007812 -1.5 0.6875 -2.421875 0.6875 -3.609375 C 0.6875 -4.285156 0.804688 -4.90625 1.046875 -5.46875 C 1.296875 -6.039062 1.675781 -6.5 2.1875 -6.84375 C 2.695312 -7.195312 3.320312 -7.375 4.0625 -7.375 C 4.757812 -7.375 5.363281 -7.207031 5.875 -6.875 C 6.382812 -6.550781 6.769531 -6.117188 7.03125 -5.578125 C 7.300781 -5.035156 7.4375 -4.441406 7.4375 -3.796875 C 7.4375 -3.617188 7.375 -3.46875 7.25 -3.34375 C 7.132812 -3.21875 6.976562 -3.15625 6.78125 -3.15625 L 1.984375 -3.15625 C 2.054688 -2.5 2.300781 -1.984375 2.71875 -1.609375 C 3.132812 -1.242188 3.71875 -1.0625 4.46875 -1.0625 C 4.863281 -1.0625 5.207031 -1.097656 5.5 -1.171875 C 5.800781 -1.253906 6.09375 -1.363281 6.375 -1.5 C 6.445312 -1.539062 6.53125 -1.5625 6.625 -1.5625 C 6.78125 -1.5625 6.914062 -1.507812 7.03125 -1.40625 C 7.144531 -1.300781 7.203125 -1.164062 7.203125 -1 C 7.203125 -0.789062 7.078125 -0.617188 6.828125 -0.484375 C 6.460938 -0.273438 6.097656 -0.117188 5.734375 -0.015625 C 5.378906 0.0859375 4.914062 0.140625 4.34375 0.140625 Z M 6.171875 -4.203125 C 6.140625 -4.671875 6.015625 -5.0625 5.796875 -5.375 C 5.585938 -5.6875 5.328125 -5.914062 5.015625 -6.0625 C 4.703125 -6.207031 4.382812 -6.28125 4.0625 -6.28125 C 3.738281 -6.28125 3.421875 -6.207031 3.109375 -6.0625 C 2.804688 -5.914062 2.550781 -5.6875 2.34375 -5.375 C 2.132812 -5.0625 2.015625 -4.671875 1.984375 -4.203125 Z M 6.171875 -4.203125 "/></g></g></g><g fill="#196eff" fill-opacity="1"><g transform="translate(88.116725, 227.568002)"><g><path d="M 1.75 0.078125 C 1.570312 0.078125 1.421875 0.015625 1.296875 -0.109375 C 1.179688 -0.234375 1.125 -0.382812 1.125 -0.5625 L 1.125 -6.640625 C 1.125 -6.828125 1.179688 -6.984375 1.296875 -7.109375 C 1.421875 -7.234375 1.570312 -7.296875 1.75 -7.296875 C 1.9375 -7.296875 2.09375 -7.234375 2.21875 -7.109375 C 2.34375 -6.984375 2.40625 -6.828125 2.40625 -6.640625 L 2.40625 -6.0625 C 2.769531 -6.457031 3.15625 -6.773438 3.5625 -7.015625 C 3.976562 -7.253906 4.472656 -7.375 5.046875 -7.375 C 5.566406 -7.375 6.015625 -7.25 6.390625 -7 C 6.773438 -6.75 7.066406 -6.410156 7.265625 -5.984375 C 7.472656 -5.566406 7.578125 -5.101562 7.578125 -4.59375 L 7.578125 -0.5625 C 7.578125 -0.382812 7.515625 -0.234375 7.390625 -0.109375 C 7.265625 0.015625 7.113281 0.078125 6.9375 0.078125 C 6.75 0.078125 6.59375 0.015625 6.46875 -0.109375 C 6.351562 -0.234375 6.296875 -0.382812 6.296875 -0.5625 L 6.296875 -4.453125 C 6.296875 -5.597656 5.773438 -6.171875 4.734375 -6.171875 C 4.265625 -6.171875 3.84375 -6.046875 3.46875 -5.796875 C 3.09375 -5.554688 2.738281 -5.226562 2.40625 -4.8125 L 2.40625 -0.5625 C 2.40625 -0.382812 2.34375 -0.234375 2.21875 -0.109375 C 2.09375 0.015625 1.9375 0.078125 1.75 0.078125 Z M 1.75 0.078125 "/></g></g></g><g fill="#196eff" fill-opacity="1"><g transform="translate(96.747214, 227.568002)"><g><path d="M 3.609375 0.140625 C 2.234375 0.140625 1.546875 -0.484375 1.546875 -1.734375 L 1.546875 -6.125 L 0.53125 -6.125 C 0.457031 -6.125 0.394531 -6.148438 0.34375 -6.203125 C 0.289062 -6.253906 0.265625 -6.316406 0.265625 -6.390625 C 0.265625 -6.484375 0.304688 -6.5625 0.390625 -6.625 L 2.328125 -8.515625 C 2.410156 -8.597656 2.488281 -8.640625 2.5625 -8.640625 C 2.632812 -8.640625 2.695312 -8.609375 2.75 -8.546875 C 2.800781 -8.492188 2.828125 -8.429688 2.828125 -8.359375 L 2.828125 -7.234375 L 4.4375 -7.234375 C 4.59375 -7.234375 4.722656 -7.179688 4.828125 -7.078125 C 4.929688 -6.972656 4.984375 -6.835938 4.984375 -6.671875 C 4.984375 -6.523438 4.929688 -6.394531 4.828125 -6.28125 C 4.722656 -6.175781 4.59375 -6.125 4.4375 -6.125 L 2.828125 -6.125 L 2.828125 -1.84375 C 2.828125 -1.476562 2.914062 -1.242188 3.09375 -1.140625 C 3.269531 -1.035156 3.488281 -0.984375 3.75 -0.984375 C 3.9375 -0.984375 4.128906 -1.015625 4.328125 -1.078125 C 4.359375 -1.085938 4.394531 -1.097656 4.4375 -1.109375 C 4.476562 -1.117188 4.535156 -1.125 4.609375 -1.125 C 4.734375 -1.125 4.847656 -1.070312 4.953125 -0.96875 C 5.054688 -0.875 5.109375 -0.753906 5.109375 -0.609375 C 5.109375 -0.390625 5.003906 -0.222656 4.796875 -0.109375 C 4.421875 0.0546875 4.023438 0.140625 3.609375 0.140625 Z M 3.609375 0.140625 "/></g></g></g><g fill="#196eff" fill-opacity="1"><g transform="translate(102.160751, 227.568002)"><g/></g></g><g fill="#196eff" fill-opacity="1"><g transform="translate(105.845357, 227.568002)"><g><path d="M 2.015625 0.078125 C 1.835938 0.078125 1.6875 0.015625 1.5625 -0.109375 C 1.4375 -0.234375 1.375 -0.382812 1.375 -0.5625 L 1.375 -9.3125 C 1.375 -9.488281 1.4375 -9.640625 1.5625 -9.765625 C 1.6875 -9.898438 1.835938 -9.96875 2.015625 -9.96875 C 2.191406 -9.96875 2.34375 -9.898438 2.46875 -9.765625 C 2.601562 -9.640625 2.671875 -9.488281 2.671875 -9.3125 L 2.671875 -0.5625 C 2.671875 -0.382812 2.601562 -0.234375 2.46875 -0.109375 C 2.34375 0.015625 2.191406 0.078125 2.015625 0.078125 Z M 2.015625 0.078125 "/></g></g></g><g fill="#196eff" fill-opacity="1"><g transform="translate(109.884259, 227.568002)"><g><path d="M 1.75 0.078125 C 1.570312 0.078125 1.421875 0.015625 1.296875 -0.109375 C 1.179688 -0.234375 1.125 -0.382812 1.125 -0.5625 L 1.125 -6.640625 C 1.125 -6.828125 1.179688 -6.984375 1.296875 -7.109375 C 1.421875 -7.234375 1.570312 -7.296875 1.75 -7.296875 C 1.9375 -7.296875 2.09375 -7.234375 2.21875 -7.109375 C 2.34375 -6.984375 2.40625 -6.828125 2.40625 -6.640625 L 2.40625 -6.0625 C 2.769531 -6.457031 3.15625 -6.773438 3.5625 -7.015625 C 3.976562 -7.253906 4.472656 -7.375 5.046875 -7.375 C 5.566406 -7.375 6.015625 -7.25 6.390625 -7 C 6.773438 -6.75 7.066406 -6.410156 7.265625 -5.984375 C 7.472656 -5.566406 7.578125 -5.101562 7.578125 -4.59375 L 7.578125 -0.5625 C 7.578125 -0.382812 7.515625 -0.234375 7.390625 -0.109375 C 7.265625 0.015625 7.113281 0.078125 6.9375 0.078125 C 6.75 0.078125 6.59375 0.015625 6.46875 -0.109375 C 6.351562 -0.234375 6.296875 -0.382812 6.296875 -0.5625 L 6.296875 -4.453125 C 6.296875 -5.597656 5.773438 -6.171875 4.734375 -6.171875 C 4.265625 -6.171875 3.84375 -6.046875 3.46875 -5.796875 C 3.09375 -5.554688 2.738281 -5.226562 2.40625 -4.8125 L 2.40625 -0.5625 C 2.40625 -0.382812 2.34375 -0.234375 2.21875 -0.109375 C 2.09375 0.015625 1.9375 0.078125 1.75 0.078125 Z M 1.75 0.078125 "/></g></g></g><g fill="#196eff" fill-opacity="1"><g transform="translate(118.514748, 227.568002)"><g><path d="M 2.296875 0.078125 C 2.117188 0.078125 1.96875 0.015625 1.84375 -0.109375 C 1.71875 -0.234375 1.65625 -0.382812 1.65625 -0.5625 L 1.65625 -6.125 L 0.828125 -6.125 C 0.671875 -6.125 0.535156 -6.175781 0.421875 -6.28125 C 0.316406 -6.394531 0.265625 -6.523438 0.265625 -6.671875 C 0.265625 -6.835938 0.316406 -6.972656 0.421875 -7.078125 C 0.535156 -7.179688 0.671875 -7.234375 0.828125 -7.234375 L 1.65625 -7.234375 L 1.65625 -8.046875 C 1.65625 -8.617188 1.753906 -9.082031 1.953125 -9.4375 C 2.160156 -9.800781 2.425781 -10.066406 2.75 -10.234375 C 3.082031 -10.398438 3.425781 -10.484375 3.78125 -10.484375 C 4.226562 -10.484375 4.640625 -10.390625 5.015625 -10.203125 C 5.109375 -10.160156 5.1875 -10.09375 5.25 -10 C 5.3125 -9.90625 5.34375 -9.804688 5.34375 -9.703125 C 5.34375 -9.566406 5.289062 -9.441406 5.1875 -9.328125 C 5.082031 -9.222656 4.957031 -9.171875 4.8125 -9.171875 C 4.707031 -9.171875 4.601562 -9.1875 4.5 -9.21875 C 4.269531 -9.238281 4.140625 -9.25 4.109375 -9.25 C 3.722656 -9.25 3.429688 -9.160156 3.234375 -8.984375 C 3.046875 -8.804688 2.953125 -8.476562 2.953125 -8 L 2.953125 -7.234375 L 4.71875 -7.234375 C 4.875 -7.234375 5.003906 -7.179688 5.109375 -7.078125 C 5.210938 -6.972656 5.265625 -6.835938 5.265625 -6.671875 C 5.265625 -6.523438 5.210938 -6.394531 5.109375 -6.28125 C 5.003906 -6.175781 4.875 -6.125 4.71875 -6.125 L 2.953125 -6.125 L 2.953125 -0.5625 C 2.953125 -0.382812 2.882812 -0.234375 2.75 -0.109375 C 2.625 0.015625 2.472656 0.078125 2.296875 0.078125 Z M 2.296875 0.078125 "/></g></g></g><g fill="#196eff" fill-opacity="1"><g transform="translate(123.928285, 227.568002)"><g><path d="M 4.3125 0.140625 C 3.582031 0.140625 2.941406 -0.015625 2.390625 -0.328125 C 1.847656 -0.640625 1.425781 -1.082031 1.125 -1.65625 C 0.832031 -2.226562 0.6875 -2.878906 0.6875 -3.609375 C 0.6875 -4.347656 0.832031 -5.003906 1.125 -5.578125 C 1.425781 -6.148438 1.847656 -6.59375 2.390625 -6.90625 C 2.941406 -7.21875 3.582031 -7.375 4.3125 -7.375 C 5.03125 -7.375 5.660156 -7.21875 6.203125 -6.90625 C 6.753906 -6.59375 7.179688 -6.148438 7.484375 -5.578125 C 7.785156 -5.003906 7.9375 -4.347656 7.9375 -3.609375 C 7.9375 -2.878906 7.785156 -2.226562 7.484375 -1.65625 C 7.179688 -1.082031 6.753906 -0.640625 6.203125 -0.328125 C 5.660156 -0.015625 5.03125 0.140625 4.3125 0.140625 Z M 4.3125 -1.03125 C 4.695312 -1.03125 5.066406 -1.117188 5.421875 -1.296875 C 5.773438 -1.484375 6.066406 -1.769531 6.296875 -2.15625 C 6.523438 -2.539062 6.640625 -3.03125 6.640625 -3.625 C 6.640625 -4.207031 6.523438 -4.691406 6.296875 -5.078125 C 6.066406 -5.472656 5.773438 -5.753906 5.421875 -5.921875 C 5.066406 -6.097656 4.695312 -6.1875 4.3125 -6.1875 C 3.914062 -6.1875 3.539062 -6.097656 3.1875 -5.921875 C 2.832031 -5.753906 2.539062 -5.472656 2.3125 -5.078125 C 2.082031 -4.691406 1.96875 -4.207031 1.96875 -3.625 C 1.96875 -3.03125 2.082031 -2.539062 2.3125 -2.15625 C 2.539062 -1.769531 2.832031 -1.484375 3.1875 -1.296875 C 3.539062 -1.117188 3.914062 -1.03125 4.3125 -1.03125 Z M 4.3125 -1.03125 "/></g></g></g><g fill="#196eff" fill-opacity="1"><g transform="translate(132.544594, 227.568002)"><g><path d="M 1.75 0.078125 C 1.570312 0.078125 1.421875 0.015625 1.296875 -0.109375 C 1.179688 -0.234375 1.125 -0.382812 1.125 -0.5625 L 1.125 -6.640625 C 1.125 -6.828125 1.179688 -6.984375 1.296875 -7.109375 C 1.421875 -7.234375 1.570312 -7.296875 1.75 -7.296875 C 1.9375 -7.296875 2.09375 -7.234375 2.21875 -7.109375 C 2.34375 -6.984375 2.40625 -6.828125 2.40625 -6.640625 L 2.40625 -6.03125 C 3.070312 -6.925781 3.816406 -7.375 4.640625 -7.375 L 4.703125 -7.375 C 4.878906 -7.375 5.023438 -7.3125 5.140625 -7.1875 C 5.265625 -7.0625 5.328125 -6.910156 5.328125 -6.734375 C 5.328125 -6.554688 5.265625 -6.410156 5.140625 -6.296875 C 5.015625 -6.179688 4.859375 -6.125 4.671875 -6.125 L 4.609375 -6.125 C 4.148438 -6.125 3.734375 -6.007812 3.359375 -5.78125 C 2.984375 -5.5625 2.664062 -5.257812 2.40625 -4.875 L 2.40625 -0.5625 C 2.40625 -0.382812 2.34375 -0.234375 2.21875 -0.109375 C 2.09375 0.015625 1.9375 0.078125 1.75 0.078125 Z M 1.75 0.078125 "/></g></g></g><g fill="#196eff" fill-opacity="1"><g transform="translate(137.97231, 227.568002)"><g><path d="M 1.75 0.078125 C 1.570312 0.078125 1.421875 0.015625 1.296875 -0.109375 C 1.179688 -0.234375 1.125 -0.382812 1.125 -0.5625 L 1.125 -6.640625 C 1.125 -6.828125 1.179688 -6.984375 1.296875 -7.109375 C 1.421875 -7.234375 1.570312 -7.296875 1.75 -7.296875 C 1.9375 -7.296875 2.09375 -7.234375 2.21875 -7.109375 C 2.34375 -6.984375 2.40625 -6.828125 2.40625 -6.640625 L 2.40625 -6.0625 C 2.675781 -6.4375 2.992188 -6.75 3.359375 -7 C 3.734375 -7.25 4.21875 -7.375 4.8125 -7.375 C 5.34375 -7.375 5.796875 -7.226562 6.171875 -6.9375 C 6.554688 -6.65625 6.828125 -6.3125 6.984375 -5.90625 C 7.566406 -6.882812 8.4375 -7.375 9.59375 -7.375 C 10.125 -7.375 10.566406 -7.238281 10.921875 -6.96875 C 11.273438 -6.707031 11.535156 -6.367188 11.703125 -5.953125 C 11.878906 -5.535156 11.96875 -5.097656 11.96875 -4.640625 L 11.96875 -0.5625 C 11.96875 -0.382812 11.898438 -0.234375 11.765625 -0.109375 C 11.640625 0.015625 11.488281 0.078125 11.3125 0.078125 C 11.132812 0.078125 10.984375 0.015625 10.859375 -0.109375 C 10.734375 -0.234375 10.671875 -0.382812 10.671875 -0.5625 L 10.671875 -4.390625 C 10.671875 -5.003906 10.5625 -5.453125 10.34375 -5.734375 C 10.125 -6.023438 9.75 -6.171875 9.21875 -6.171875 C 8.738281 -6.171875 8.335938 -6.046875 8.015625 -5.796875 C 7.703125 -5.546875 7.425781 -5.21875 7.1875 -4.8125 L 7.1875 -0.5625 C 7.1875 -0.382812 7.117188 -0.234375 6.984375 -0.109375 C 6.859375 0.015625 6.707031 0.078125 6.53125 0.078125 C 6.351562 0.078125 6.203125 0.015625 6.078125 -0.109375 C 5.953125 -0.234375 5.890625 -0.382812 5.890625 -0.5625 L 5.890625 -4.390625 C 5.890625 -5.003906 5.78125 -5.453125 5.5625 -5.734375 C 5.351562 -6.023438 4.984375 -6.171875 4.453125 -6.171875 C 3.972656 -6.171875 3.570312 -6.046875 3.25 -5.796875 C 2.9375 -5.546875 2.65625 -5.21875 2.40625 -4.8125 L 2.40625 -0.5625 C 2.40625 -0.382812 2.34375 -0.234375 2.21875 -0.109375 C 2.09375 0.015625 1.9375 0.078125 1.75 0.078125 Z M 1.75 0.078125 "/></g></g></g><g fill="#196eff" fill-opacity="1"><g transform="translate(150.981803, 227.568002)"><g><path d="M 2.96875 0.140625 C 2.550781 0.140625 2.164062 0.0546875 1.8125 -0.109375 C 1.457031 -0.285156 1.175781 -0.535156 0.96875 -0.859375 C 0.757812 -1.179688 0.65625 -1.554688 0.65625 -1.984375 C 0.65625 -2.679688 0.929688 -3.238281 1.484375 -3.65625 C 2.035156 -4.070312 2.84375 -4.28125 3.90625 -4.28125 L 5.625 -4.28125 L 5.625 -4.390625 C 5.625 -5.015625 5.46875 -5.460938 5.15625 -5.734375 C 4.851562 -6.015625 4.378906 -6.15625 3.734375 -6.15625 C 3.367188 -6.15625 3.046875 -6.125 2.765625 -6.0625 C 2.492188 -6.007812 2.1875 -5.925781 1.84375 -5.8125 C 1.769531 -5.789062 1.707031 -5.78125 1.65625 -5.78125 C 1.519531 -5.78125 1.398438 -5.832031 1.296875 -5.9375 C 1.191406 -6.039062 1.140625 -6.171875 1.140625 -6.328125 C 1.140625 -6.578125 1.257812 -6.753906 1.5 -6.859375 C 2.300781 -7.203125 3.117188 -7.375 3.953125 -7.375 C 4.609375 -7.375 5.160156 -7.238281 5.609375 -6.96875 C 6.054688 -6.707031 6.382812 -6.363281 6.59375 -5.9375 C 6.8125 -5.519531 6.921875 -5.066406 6.921875 -4.578125 L 6.921875 -0.5625 C 6.921875 -0.382812 6.851562 -0.234375 6.71875 -0.109375 C 6.59375 0.015625 6.441406 0.078125 6.265625 0.078125 C 6.085938 0.078125 5.9375 0.015625 5.8125 -0.109375 C 5.6875 -0.234375 5.625 -0.382812 5.625 -0.5625 L 5.625 -0.9375 C 4.925781 -0.21875 4.039062 0.140625 2.96875 0.140625 Z M 3.4375 -0.984375 C 3.851562 -0.984375 4.253906 -1.082031 4.640625 -1.28125 C 5.035156 -1.488281 5.363281 -1.75 5.625 -2.0625 L 5.625 -3.25 L 4.078125 -3.25 C 2.648438 -3.25 1.9375 -2.875 1.9375 -2.125 C 1.9375 -1.78125 2.050781 -1.503906 2.28125 -1.296875 C 2.519531 -1.085938 2.90625 -0.984375 3.4375 -0.984375 Z M 3.4375 -0.984375 "/></g></g></g><g fill="#196eff" fill-opacity="1"><g transform="translate(158.946221, 227.568002)"><g><path d="M 3.609375 0.140625 C 2.234375 0.140625 1.546875 -0.484375 1.546875 -1.734375 L 1.546875 -6.125 L 0.53125 -6.125 C 0.457031 -6.125 0.394531 -6.148438 0.34375 -6.203125 C 0.289062 -6.253906 0.265625 -6.316406 0.265625 -6.390625 C 0.265625 -6.484375 0.304688 -6.5625 0.390625 -6.625 L 2.328125 -8.515625 C 2.410156 -8.597656 2.488281 -8.640625 2.5625 -8.640625 C 2.632812 -8.640625 2.695312 -8.609375 2.75 -8.546875 C 2.800781 -8.492188 2.828125 -8.429688 2.828125 -8.359375 L 2.828125 -7.234375 L 4.4375 -7.234375 C 4.59375 -7.234375 4.722656 -7.179688 4.828125 -7.078125 C 4.929688 -6.972656 4.984375 -6.835938 4.984375 -6.671875 C 4.984375 -6.523438 4.929688 -6.394531 4.828125 -6.28125 C 4.722656 -6.175781 4.59375 -6.125 4.4375 -6.125 L 2.828125 -6.125 L 2.828125 -1.84375 C 2.828125 -1.476562 2.914062 -1.242188 3.09375 -1.140625 C 3.269531 -1.035156 3.488281 -0.984375 3.75 -0.984375 C 3.9375 -0.984375 4.128906 -1.015625 4.328125 -1.078125 C 4.359375 -1.085938 4.394531 -1.097656 4.4375 -1.109375 C 4.476562 -1.117188 4.535156 -1.125 4.609375 -1.125 C 4.734375 -1.125 4.847656 -1.070312 4.953125 -0.96875 C 5.054688 -0.875 5.109375 -0.753906 5.109375 -0.609375 C 5.109375 -0.390625 5.003906 -0.222656 4.796875 -0.109375 C 4.421875 0.0546875 4.023438 0.140625 3.609375 0.140625 Z M 3.609375 0.140625 "/></g></g></g><g fill="#196eff" fill-opacity="1"><g transform="translate(164.359757, 227.568002)"><g><path d="M 1.734375 -8.703125 C 1.535156 -8.703125 1.363281 -8.769531 1.21875 -8.90625 C 1.070312 -9.050781 1 -9.222656 1 -9.421875 L 1 -9.484375 C 1 -9.679688 1.070312 -9.847656 1.21875 -9.984375 C 1.363281 -10.128906 1.535156 -10.203125 1.734375 -10.203125 L 1.8125 -10.203125 C 2.007812 -10.203125 2.175781 -10.128906 2.3125 -9.984375 C 2.457031 -9.847656 2.53125 -9.679688 2.53125 -9.484375 L 2.53125 -9.421875 C 2.53125 -9.222656 2.457031 -9.050781 2.3125 -8.90625 C 2.175781 -8.769531 2.007812 -8.703125 1.8125 -8.703125 Z M 1.75 0.078125 C 1.570312 0.078125 1.421875 0.015625 1.296875 -0.109375 C 1.179688 -0.234375 1.125 -0.382812 1.125 -0.5625 L 1.125 -6.640625 C 1.125 -6.828125 1.179688 -6.984375 1.296875 -7.109375 C 1.421875 -7.234375 1.570312 -7.296875 1.75 -7.296875 C 1.945312 -7.296875 2.101562 -7.234375 2.21875 -7.109375 C 2.34375 -6.992188 2.40625 -6.835938 2.40625 -6.640625 L 2.40625 -0.5625 C 2.40625 -0.382812 2.34375 -0.234375 2.21875 -0.109375 C 2.09375 0.015625 1.9375 0.078125 1.75 0.078125 Z M 1.75 0.078125 "/></g></g></g><g fill="#196eff" fill-opacity="1"><g transform="translate(167.888484, 227.568002)"><g><path d="M 4.3125 0.140625 C 3.582031 0.140625 2.941406 -0.015625 2.390625 -0.328125 C 1.847656 -0.640625 1.425781 -1.082031 1.125 -1.65625 C 0.832031 -2.226562 0.6875 -2.878906 0.6875 -3.609375 C 0.6875 -4.347656 0.832031 -5.003906 1.125 -5.578125 C 1.425781 -6.148438 1.847656 -6.59375 2.390625 -6.90625 C 2.941406 -7.21875 3.582031 -7.375 4.3125 -7.375 C 5.03125 -7.375 5.660156 -7.21875 6.203125 -6.90625 C 6.753906 -6.59375 7.179688 -6.148438 7.484375 -5.578125 C 7.785156 -5.003906 7.9375 -4.347656 7.9375 -3.609375 C 7.9375 -2.878906 7.785156 -2.226562 7.484375 -1.65625 C 7.179688 -1.082031 6.753906 -0.640625 6.203125 -0.328125 C 5.660156 -0.015625 5.03125 0.140625 4.3125 0.140625 Z M 4.3125 -1.03125 C 4.695312 -1.03125 5.066406 -1.117188 5.421875 -1.296875 C 5.773438 -1.484375 6.066406 -1.769531 6.296875 -2.15625 C 6.523438 -2.539062 6.640625 -3.03125 6.640625 -3.625 C 6.640625 -4.207031 6.523438 -4.691406 6.296875 -5.078125 C 6.066406 -5.472656 5.773438 -5.753906 5.421875 -5.921875 C 5.066406 -6.097656 4.695312 -6.1875 4.3125 -6.1875 C 3.914062 -6.1875 3.539062 -6.097656 3.1875 -5.921875 C 2.832031 -5.753906 2.539062 -5.472656 2.3125 -5.078125 C 2.082031 -4.691406 1.96875 -4.207031 1.96875 -3.625 C 1.96875 -3.03125 2.082031 -2.539062 2.3125 -2.15625 C 2.539062 -1.769531 2.832031 -1.484375 3.1875 -1.296875 C 3.539062 -1.117188 3.914062 -1.03125 4.3125 -1.03125 Z M 4.3125 -1.03125 "/></g></g></g><g fill="#196eff" fill-opacity="1"><g transform="translate(176.504793, 227.568002)"><g><path d="M 1.75 0.078125 C 1.570312 0.078125 1.421875 0.015625 1.296875 -0.109375 C 1.179688 -0.234375 1.125 -0.382812 1.125 -0.5625 L 1.125 -6.640625 C 1.125 -6.828125 1.179688 -6.984375 1.296875 -7.109375 C 1.421875 -7.234375 1.570312 -7.296875 1.75 -7.296875 C 1.9375 -7.296875 2.09375 -7.234375 2.21875 -7.109375 C 2.34375 -6.984375 2.40625 -6.828125 2.40625 -6.640625 L 2.40625 -6.0625 C 2.769531 -6.457031 3.15625 -6.773438 3.5625 -7.015625 C 3.976562 -7.253906 4.472656 -7.375 5.046875 -7.375 C 5.566406 -7.375 6.015625 -7.25 6.390625 -7 C 6.773438 -6.75 7.066406 -6.410156 7.265625 -5.984375 C 7.472656 -5.566406 7.578125 -5.101562 7.578125 -4.59375 L 7.578125 -0.5625 C 7.578125 -0.382812 7.515625 -0.234375 7.390625 -0.109375 C 7.265625 0.015625 7.113281 0.078125 6.9375 0.078125 C 6.75 0.078125 6.59375 0.015625 6.46875 -0.109375 C 6.351562 -0.234375 6.296875 -0.382812 6.296875 -0.5625 L 6.296875 -4.453125 C 6.296875 -5.597656 5.773438 -6.171875 4.734375 -6.171875 C 4.265625 -6.171875 3.84375 -6.046875 3.46875 -5.796875 C 3.09375 -5.554688 2.738281 -5.226562 2.40625 -4.8125 L 2.40625 -0.5625 C 2.40625 -0.382812 2.34375 -0.234375 2.21875 -0.109375 C 2.09375 0.015625 1.9375 0.078125 1.75 0.078125 Z M 1.75 0.078125 "/></g></g></g><g fill="#196eff" fill-opacity="1"><g transform="translate(185.135282, 227.568002)"><g/></g></g><g fill="#196eff" fill-opacity="1"><g transform="translate(188.819888, 227.568002)"><g><path d="M 2.015625 0.078125 C 1.835938 0.078125 1.6875 0.015625 1.5625 -0.109375 C 1.4375 -0.234375 1.375 -0.382812 1.375 -0.5625 L 1.375 -9.234375 C 1.375 -9.421875 1.4375 -9.578125 1.5625 -9.703125 C 1.6875 -9.828125 1.835938 -9.890625 2.015625 -9.890625 L 5.25 -9.890625 C 6.144531 -9.890625 6.875 -9.738281 7.4375 -9.4375 C 8.007812 -9.132812 8.414062 -8.742188 8.65625 -8.265625 C 8.90625 -7.796875 9.03125 -7.289062 9.03125 -6.75 C 9.03125 -6.195312 8.90625 -5.679688 8.65625 -5.203125 C 8.414062 -4.734375 8.007812 -4.347656 7.4375 -4.046875 C 6.875 -3.742188 6.144531 -3.59375 5.25 -3.59375 L 2.671875 -3.59375 L 2.671875 -0.5625 C 2.671875 -0.382812 2.601562 -0.234375 2.46875 -0.109375 C 2.34375 0.015625 2.191406 0.078125 2.015625 0.078125 Z M 5.109375 -4.8125 C 6.078125 -4.8125 6.753906 -4.992188 7.140625 -5.359375 C 7.535156 -5.734375 7.734375 -6.195312 7.734375 -6.75 C 7.734375 -7.289062 7.535156 -7.742188 7.140625 -8.109375 C 6.753906 -8.484375 6.078125 -8.671875 5.109375 -8.671875 L 2.671875 -8.671875 L 2.671875 -4.8125 Z M 5.109375 -4.8125 "/></g></g></g><g fill="#196eff" fill-opacity="1"><g transform="translate(198.343177, 227.568002)"><g><path d="M 1.75 0.078125 C 1.570312 0.078125 1.421875 0.015625 1.296875 -0.109375 C 1.179688 -0.234375 1.125 -0.382812 1.125 -0.5625 L 1.125 -6.640625 C 1.125 -6.828125 1.179688 -6.984375 1.296875 -7.109375 C 1.421875 -7.234375 1.570312 -7.296875 1.75 -7.296875 C 1.9375 -7.296875 2.09375 -7.234375 2.21875 -7.109375 C 2.34375 -6.984375 2.40625 -6.828125 2.40625 -6.640625 L 2.40625 -6.03125 C 3.070312 -6.925781 3.816406 -7.375 4.640625 -7.375 L 4.703125 -7.375 C 4.878906 -7.375 5.023438 -7.3125 5.140625 -7.1875 C 5.265625 -7.0625 5.328125 -6.910156 5.328125 -6.734375 C 5.328125 -6.554688 5.265625 -6.410156 5.140625 -6.296875 C 5.015625 -6.179688 4.859375 -6.125 4.671875 -6.125 L 4.609375 -6.125 C 4.148438 -6.125 3.734375 -6.007812 3.359375 -5.78125 C 2.984375 -5.5625 2.664062 -5.257812 2.40625 -4.875 L 2.40625 -0.5625 C 2.40625 -0.382812 2.34375 -0.234375 2.21875 -0.109375 C 2.09375 0.015625 1.9375 0.078125 1.75 0.078125 Z M 1.75 0.078125 "/></g></g></g><g fill="#196eff" fill-opacity="1"><g transform="translate(203.770893, 227.568002)"><g><path d="M 4.3125 0.140625 C 3.582031 0.140625 2.941406 -0.015625 2.390625 -0.328125 C 1.847656 -0.640625 1.425781 -1.082031 1.125 -1.65625 C 0.832031 -2.226562 0.6875 -2.878906 0.6875 -3.609375 C 0.6875 -4.347656 0.832031 -5.003906 1.125 -5.578125 C 1.425781 -6.148438 1.847656 -6.59375 2.390625 -6.90625 C 2.941406 -7.21875 3.582031 -7.375 4.3125 -7.375 C 5.03125 -7.375 5.660156 -7.21875 6.203125 -6.90625 C 6.753906 -6.59375 7.179688 -6.148438 7.484375 -5.578125 C 7.785156 -5.003906 7.9375 -4.347656 7.9375 -3.609375 C 7.9375 -2.878906 7.785156 -2.226562 7.484375 -1.65625 C 7.179688 -1.082031 6.753906 -0.640625 6.203125 -0.328125 C 5.660156 -0.015625 5.03125 0.140625 4.3125 0.140625 Z M 4.3125 -1.03125 C 4.695312 -1.03125 5.066406 -1.117188 5.421875 -1.296875 C 5.773438 -1.484375 6.066406 -1.769531 6.296875 -2.15625 C 6.523438 -2.539062 6.640625 -3.03125 6.640625 -3.625 C 6.640625 -4.207031 6.523438 -4.691406 6.296875 -5.078125 C 6.066406 -5.472656 5.773438 -5.753906 5.421875 -5.921875 C 5.066406 -6.097656 4.695312 -6.1875 4.3125 -6.1875 C 3.914062 -6.1875 3.539062 -6.097656 3.1875 -5.921875 C 2.832031 -5.753906 2.539062 -5.472656 2.3125 -5.078125 C 2.082031 -4.691406 1.96875 -4.207031 1.96875 -3.625 C 1.96875 -3.03125 2.082031 -2.539062 2.3125 -2.15625 C 2.539062 -1.769531 2.832031 -1.484375 3.1875 -1.296875 C 3.539062 -1.117188 3.914062 -1.03125 4.3125 -1.03125 Z M 4.3125 -1.03125 "/></g></g></g><g fill="#196eff" fill-opacity="1"><g transform="translate(212.387202, 227.568002)"><g><path d="M 4.46875 0.140625 C 3.78125 0.140625 3.148438 -0.0078125 2.578125 -0.3125 C 2.003906 -0.613281 1.546875 -1.046875 1.203125 -1.609375 C 0.859375 -2.179688 0.6875 -2.847656 0.6875 -3.609375 C 0.6875 -4.378906 0.859375 -5.046875 1.203125 -5.609375 C 1.546875 -6.179688 2.003906 -6.617188 2.578125 -6.921875 C 3.148438 -7.222656 3.78125 -7.375 4.46875 -7.375 C 4.96875 -7.375 5.398438 -7.304688 5.765625 -7.171875 C 6.128906 -7.046875 6.46875 -6.882812 6.78125 -6.6875 C 6.96875 -6.5625 7.0625 -6.394531 7.0625 -6.1875 C 7.0625 -6.050781 7.003906 -5.921875 6.890625 -5.796875 C 6.785156 -5.679688 6.660156 -5.625 6.515625 -5.625 C 6.410156 -5.625 6.304688 -5.65625 6.203125 -5.71875 C 5.890625 -5.875 5.625 -5.988281 5.40625 -6.0625 C 5.1875 -6.132812 4.910156 -6.171875 4.578125 -6.171875 C 3.765625 -6.171875 3.125 -5.9375 2.65625 -5.46875 C 2.195312 -5 1.96875 -4.378906 1.96875 -3.609375 C 1.96875 -2.847656 2.195312 -2.234375 2.65625 -1.765625 C 3.125 -1.296875 3.765625 -1.0625 4.578125 -1.0625 C 4.910156 -1.0625 5.1875 -1.097656 5.40625 -1.171875 C 5.625 -1.242188 5.890625 -1.359375 6.203125 -1.515625 C 6.304688 -1.566406 6.410156 -1.59375 6.515625 -1.59375 C 6.660156 -1.59375 6.785156 -1.535156 6.890625 -1.421875 C 7.003906 -1.304688 7.0625 -1.175781 7.0625 -1.03125 C 7.0625 -0.820312 6.96875 -0.65625 6.78125 -0.53125 C 6.46875 -0.332031 6.128906 -0.171875 5.765625 -0.046875 C 5.398438 0.078125 4.96875 0.140625 4.46875 0.140625 Z M 4.46875 0.140625 "/></g></g></g><g fill="#196eff" fill-opacity="1"><g transform="translate(219.940652, 227.568002)"><g><path d="M 4.34375 0.140625 C 3.195312 0.140625 2.300781 -0.1875 1.65625 -0.84375 C 1.007812 -1.5 0.6875 -2.421875 0.6875 -3.609375 C 0.6875 -4.285156 0.804688 -4.90625 1.046875 -5.46875 C 1.296875 -6.039062 1.675781 -6.5 2.1875 -6.84375 C 2.695312 -7.195312 3.320312 -7.375 4.0625 -7.375 C 4.757812 -7.375 5.363281 -7.207031 5.875 -6.875 C 6.382812 -6.550781 6.769531 -6.117188 7.03125 -5.578125 C 7.300781 -5.035156 7.4375 -4.441406 7.4375 -3.796875 C 7.4375 -3.617188 7.375 -3.46875 7.25 -3.34375 C 7.132812 -3.21875 6.976562 -3.15625 6.78125 -3.15625 L 1.984375 -3.15625 C 2.054688 -2.5 2.300781 -1.984375 2.71875 -1.609375 C 3.132812 -1.242188 3.71875 -1.0625 4.46875 -1.0625 C 4.863281 -1.0625 5.207031 -1.097656 5.5 -1.171875 C 5.800781 -1.253906 6.09375 -1.363281 6.375 -1.5 C 6.445312 -1.539062 6.53125 -1.5625 6.625 -1.5625 C 6.78125 -1.5625 6.914062 -1.507812 7.03125 -1.40625 C 7.144531 -1.300781 7.203125 -1.164062 7.203125 -1 C 7.203125 -0.789062 7.078125 -0.617188 6.828125 -0.484375 C 6.460938 -0.273438 6.097656 -0.117188 5.734375 -0.015625 C 5.378906 0.0859375 4.914062 0.140625 4.34375 0.140625 Z M 6.171875 -4.203125 C 6.140625 -4.671875 6.015625 -5.0625 5.796875 -5.375 C 5.585938 -5.6875 5.328125 -5.914062 5.015625 -6.0625 C 4.703125 -6.207031 4.382812 -6.28125 4.0625 -6.28125 C 3.738281 -6.28125 3.421875 -6.207031 3.109375 -6.0625 C 2.804688 -5.914062 2.550781 -5.6875 2.34375 -5.375 C 2.132812 -5.0625 2.015625 -4.671875 1.984375 -4.203125 Z M 6.171875 -4.203125 "/></g></g></g><g fill="#196eff" fill-opacity="1"><g transform="translate(227.961756, 227.568002)"><g><path d="M 3.453125 0.140625 C 2.515625 0.140625 1.65625 -0.0703125 0.875 -0.5 C 0.71875 -0.613281 0.640625 -0.769531 0.640625 -0.96875 C 0.640625 -1.113281 0.691406 -1.242188 0.796875 -1.359375 C 0.898438 -1.472656 1.03125 -1.53125 1.1875 -1.53125 C 1.269531 -1.53125 1.359375 -1.507812 1.453125 -1.46875 C 1.753906 -1.34375 2.054688 -1.238281 2.359375 -1.15625 C 2.660156 -1.082031 3 -1.046875 3.375 -1.046875 C 4.425781 -1.046875 4.953125 -1.382812 4.953125 -2.0625 C 4.953125 -2.269531 4.828125 -2.429688 4.578125 -2.546875 C 4.335938 -2.660156 3.945312 -2.789062 3.40625 -2.9375 C 2.84375 -3.0625 2.378906 -3.195312 2.015625 -3.34375 C 1.648438 -3.488281 1.335938 -3.703125 1.078125 -3.984375 C 0.816406 -4.273438 0.6875 -4.65625 0.6875 -5.125 C 0.6875 -5.789062 0.925781 -6.332031 1.40625 -6.75 C 1.882812 -7.164062 2.566406 -7.375 3.453125 -7.375 C 4.179688 -7.375 4.867188 -7.253906 5.515625 -7.015625 C 5.648438 -6.972656 5.75 -6.898438 5.8125 -6.796875 C 5.882812 -6.691406 5.921875 -6.582031 5.921875 -6.46875 C 5.921875 -6.320312 5.863281 -6.191406 5.75 -6.078125 C 5.644531 -5.960938 5.515625 -5.90625 5.359375 -5.90625 C 5.304688 -5.90625 5.242188 -5.914062 5.171875 -5.9375 C 4.617188 -6.101562 4.082031 -6.1875 3.5625 -6.1875 C 3.050781 -6.1875 2.648438 -6.09375 2.359375 -5.90625 C 2.066406 -5.726562 1.921875 -5.492188 1.921875 -5.203125 C 1.921875 -4.921875 2.050781 -4.710938 2.3125 -4.578125 C 2.582031 -4.441406 3 -4.3125 3.5625 -4.1875 C 4.113281 -4.050781 4.5625 -3.914062 4.90625 -3.78125 C 5.257812 -3.644531 5.5625 -3.425781 5.8125 -3.125 C 6.0625 -2.832031 6.1875 -2.441406 6.1875 -1.953125 C 6.1875 -1.347656 5.945312 -0.847656 5.46875 -0.453125 C 5 -0.0546875 4.328125 0.140625 3.453125 0.140625 Z M 3.453125 0.140625 "/></g></g></g><g fill="#196eff" fill-opacity="1"><g transform="translate(234.764106, 227.568002)"><g><path d="M 3.453125 0.140625 C 2.515625 0.140625 1.65625 -0.0703125 0.875 -0.5 C 0.71875 -0.613281 0.640625 -0.769531 0.640625 -0.96875 C 0.640625 -1.113281 0.691406 -1.242188 0.796875 -1.359375 C 0.898438 -1.472656 1.03125 -1.53125 1.1875 -1.53125 C 1.269531 -1.53125 1.359375 -1.507812 1.453125 -1.46875 C 1.753906 -1.34375 2.054688 -1.238281 2.359375 -1.15625 C 2.660156 -1.082031 3 -1.046875 3.375 -1.046875 C 4.425781 -1.046875 4.953125 -1.382812 4.953125 -2.0625 C 4.953125 -2.269531 4.828125 -2.429688 4.578125 -2.546875 C 4.335938 -2.660156 3.945312 -2.789062 3.40625 -2.9375 C 2.84375 -3.0625 2.378906 -3.195312 2.015625 -3.34375 C 1.648438 -3.488281 1.335938 -3.703125 1.078125 -3.984375 C 0.816406 -4.273438 0.6875 -4.65625 0.6875 -5.125 C 0.6875 -5.789062 0.925781 -6.332031 1.40625 -6.75 C 1.882812 -7.164062 2.566406 -7.375 3.453125 -7.375 C 4.179688 -7.375 4.867188 -7.253906 5.515625 -7.015625 C 5.648438 -6.972656 5.75 -6.898438 5.8125 -6.796875 C 5.882812 -6.691406 5.921875 -6.582031 5.921875 -6.46875 C 5.921875 -6.320312 5.863281 -6.191406 5.75 -6.078125 C 5.644531 -5.960938 5.515625 -5.90625 5.359375 -5.90625 C 5.304688 -5.90625 5.242188 -5.914062 5.171875 -5.9375 C 4.617188 -6.101562 4.082031 -6.1875 3.5625 -6.1875 C 3.050781 -6.1875 2.648438 -6.09375 2.359375 -5.90625 C 2.066406 -5.726562 1.921875 -5.492188 1.921875 -5.203125 C 1.921875 -4.921875 2.050781 -4.710938 2.3125 -4.578125 C 2.582031 -4.441406 3 -4.3125 3.5625 -4.1875 C 4.113281 -4.050781 4.5625 -3.914062 4.90625 -3.78125 C 5.257812 -3.644531 5.5625 -3.425781 5.8125 -3.125 C 6.0625 -2.832031 6.1875 -2.441406 6.1875 -1.953125 C 6.1875 -1.347656 5.945312 -0.847656 5.46875 -0.453125 C 5 -0.0546875 4.328125 0.140625 3.453125 0.140625 Z M 3.453125 0.140625 "/></g></g></g><g fill="#196eff" fill-opacity="1"><g transform="translate(241.566455, 227.568002)"><g><path d="M 1.734375 -8.703125 C 1.535156 -8.703125 1.363281 -8.769531 1.21875 -8.90625 C 1.070312 -9.050781 1 -9.222656 1 -9.421875 L 1 -9.484375 C 1 -9.679688 1.070312 -9.847656 1.21875 -9.984375 C 1.363281 -10.128906 1.535156 -10.203125 1.734375 -10.203125 L 1.8125 -10.203125 C 2.007812 -10.203125 2.175781 -10.128906 2.3125 -9.984375 C 2.457031 -9.847656 2.53125 -9.679688 2.53125 -9.484375 L 2.53125 -9.421875 C 2.53125 -9.222656 2.457031 -9.050781 2.3125 -8.90625 C 2.175781 -8.769531 2.007812 -8.703125 1.8125 -8.703125 Z M 1.75 0.078125 C 1.570312 0.078125 1.421875 0.015625 1.296875 -0.109375 C 1.179688 -0.234375 1.125 -0.382812 1.125 -0.5625 L 1.125 -6.640625 C 1.125 -6.828125 1.179688 -6.984375 1.296875 -7.109375 C 1.421875 -7.234375 1.570312 -7.296875 1.75 -7.296875 C 1.945312 -7.296875 2.101562 -7.234375 2.21875 -7.109375 C 2.34375 -6.992188 2.40625 -6.835938 2.40625 -6.640625 L 2.40625 -0.5625 C 2.40625 -0.382812 2.34375 -0.234375 2.21875 -0.109375 C 2.09375 0.015625 1.9375 0.078125 1.75 0.078125 Z M 1.75 0.078125 "/></g></g></g><g fill="#196eff" fill-opacity="1"><g transform="translate(245.095182, 227.568002)"><g><path d="M 1.75 0.078125 C 1.570312 0.078125 1.421875 0.015625 1.296875 -0.109375 C 1.179688 -0.234375 1.125 -0.382812 1.125 -0.5625 L 1.125 -6.640625 C 1.125 -6.828125 1.179688 -6.984375 1.296875 -7.109375 C 1.421875 -7.234375 1.570312 -7.296875 1.75 -7.296875 C 1.9375 -7.296875 2.09375 -7.234375 2.21875 -7.109375 C 2.34375 -6.984375 2.40625 -6.828125 2.40625 -6.640625 L 2.40625 -6.0625 C 2.769531 -6.457031 3.15625 -6.773438 3.5625 -7.015625 C 3.976562 -7.253906 4.472656 -7.375 5.046875 -7.375 C 5.566406 -7.375 6.015625 -7.25 6.390625 -7 C 6.773438 -6.75 7.066406 -6.410156 7.265625 -5.984375 C 7.472656 -5.566406 7.578125 -5.101562 7.578125 -4.59375 L 7.578125 -0.5625 C 7.578125 -0.382812 7.515625 -0.234375 7.390625 -0.109375 C 7.265625 0.015625 7.113281 0.078125 6.9375 0.078125 C 6.75 0.078125 6.59375 0.015625 6.46875 -0.109375 C 6.351562 -0.234375 6.296875 -0.382812 6.296875 -0.5625 L 6.296875 -4.453125 C 6.296875 -5.597656 5.773438 -6.171875 4.734375 -6.171875 C 4.265625 -6.171875 3.84375 -6.046875 3.46875 -5.796875 C 3.09375 -5.554688 2.738281 -5.226562 2.40625 -4.8125 L 2.40625 -0.5625 C 2.40625 -0.382812 2.34375 -0.234375 2.21875 -0.109375 C 2.09375 0.015625 1.9375 0.078125 1.75 0.078125 Z M 1.75 0.078125 "/></g></g></g><g fill="#196eff" fill-opacity="1"><g transform="translate(253.725671, 227.568002)"><g><path d="M 4.5 3.40625 C 3.945312 3.40625 3.390625 3.332031 2.828125 3.1875 C 2.273438 3.039062 1.816406 2.867188 1.453125 2.671875 C 1.285156 2.566406 1.203125 2.398438 1.203125 2.171875 C 1.203125 2.015625 1.253906 1.878906 1.359375 1.765625 C 1.472656 1.648438 1.609375 1.59375 1.765625 1.59375 C 1.847656 1.59375 1.9375 1.609375 2.03125 1.640625 C 2.75 2.003906 3.523438 2.1875 4.359375 2.1875 C 5.804688 2.1875 6.53125 1.414062 6.53125 -0.125 L 6.53125 -1.078125 C 5.863281 -0.359375 5.054688 0 4.109375 0 C 3.554688 0 3.015625 -0.140625 2.484375 -0.421875 C 1.960938 -0.703125 1.53125 -1.117188 1.1875 -1.671875 C 0.851562 -2.222656 0.6875 -2.894531 0.6875 -3.6875 C 0.6875 -4.476562 0.851562 -5.148438 1.1875 -5.703125 C 1.53125 -6.253906 1.960938 -6.671875 2.484375 -6.953125 C 3.015625 -7.234375 3.554688 -7.375 4.109375 -7.375 C 5.054688 -7.375 5.863281 -7.015625 6.53125 -6.296875 L 6.53125 -6.640625 C 6.53125 -6.828125 6.59375 -6.984375 6.71875 -7.109375 C 6.84375 -7.234375 6.992188 -7.296875 7.171875 -7.296875 C 7.347656 -7.296875 7.5 -7.234375 7.625 -7.109375 C 7.757812 -6.984375 7.828125 -6.828125 7.828125 -6.640625 L 7.828125 -0.3125 C 7.828125 0.875 7.535156 1.789062 6.953125 2.4375 C 6.378906 3.082031 5.5625 3.40625 4.5 3.40625 Z M 4.375 -1.171875 C 4.820312 -1.171875 5.210938 -1.265625 5.546875 -1.453125 C 5.890625 -1.648438 6.21875 -1.90625 6.53125 -2.21875 L 6.53125 -5.140625 C 6.21875 -5.460938 5.890625 -5.71875 5.546875 -5.90625 C 5.210938 -6.09375 4.820312 -6.1875 4.375 -6.1875 C 3.664062 -6.1875 3.085938 -5.972656 2.640625 -5.546875 C 2.191406 -5.117188 1.96875 -4.5 1.96875 -3.6875 C 1.96875 -2.875 2.191406 -2.25 2.640625 -1.8125 C 3.085938 -1.382812 3.664062 -1.171875 4.375 -1.171875 Z M 4.375 -1.171875 "/></g></g></g><g fill="#196eff" fill-opacity="1"><g transform="translate(262.667934, 227.568002)"><g/></g></g><g fill="#196eff" fill-opacity="1"><g transform="translate(266.352539, 227.568002)"><g><path d="M 2.265625 0 C 2.023438 0 1.816406 -0.0859375 1.640625 -0.265625 C 1.460938 -0.441406 1.375 -0.648438 1.375 -0.890625 L 1.375 -9.3125 C 1.375 -9.488281 1.4375 -9.640625 1.5625 -9.765625 C 1.6875 -9.898438 1.835938 -9.96875 2.015625 -9.96875 C 2.191406 -9.96875 2.34375 -9.898438 2.46875 -9.765625 C 2.601562 -9.640625 2.671875 -9.488281 2.671875 -9.3125 L 2.671875 -1.296875 L 7.296875 -1.296875 C 7.472656 -1.296875 7.625 -1.226562 7.75 -1.09375 C 7.882812 -0.96875 7.953125 -0.816406 7.953125 -0.640625 C 7.953125 -0.460938 7.882812 -0.3125 7.75 -0.1875 C 7.625 -0.0625 7.472656 0 7.296875 0 Z M 2.265625 0 "/></g></g></g><g fill="#196eff" fill-opacity="1"><g transform="translate(274.515359, 227.568002)"><g><path d="M 2.96875 0.140625 C 2.550781 0.140625 2.164062 0.0546875 1.8125 -0.109375 C 1.457031 -0.285156 1.175781 -0.535156 0.96875 -0.859375 C 0.757812 -1.179688 0.65625 -1.554688 0.65625 -1.984375 C 0.65625 -2.679688 0.929688 -3.238281 1.484375 -3.65625 C 2.035156 -4.070312 2.84375 -4.28125 3.90625 -4.28125 L 5.625 -4.28125 L 5.625 -4.390625 C 5.625 -5.015625 5.46875 -5.460938 5.15625 -5.734375 C 4.851562 -6.015625 4.378906 -6.15625 3.734375 -6.15625 C 3.367188 -6.15625 3.046875 -6.125 2.765625 -6.0625 C 2.492188 -6.007812 2.1875 -5.925781 1.84375 -5.8125 C 1.769531 -5.789062 1.707031 -5.78125 1.65625 -5.78125 C 1.519531 -5.78125 1.398438 -5.832031 1.296875 -5.9375 C 1.191406 -6.039062 1.140625 -6.171875 1.140625 -6.328125 C 1.140625 -6.578125 1.257812 -6.753906 1.5 -6.859375 C 2.300781 -7.203125 3.117188 -7.375 3.953125 -7.375 C 4.609375 -7.375 5.160156 -7.238281 5.609375 -6.96875 C 6.054688 -6.707031 6.382812 -6.363281 6.59375 -5.9375 C 6.8125 -5.519531 6.921875 -5.066406 6.921875 -4.578125 L 6.921875 -0.5625 C 6.921875 -0.382812 6.851562 -0.234375 6.71875 -0.109375 C 6.59375 0.015625 6.441406 0.078125 6.265625 0.078125 C 6.085938 0.078125 5.9375 0.015625 5.8125 -0.109375 C 5.6875 -0.234375 5.625 -0.382812 5.625 -0.5625 L 5.625 -0.9375 C 4.925781 -0.21875 4.039062 0.140625 2.96875 0.140625 Z M 3.4375 -0.984375 C 3.851562 -0.984375 4.253906 -1.082031 4.640625 -1.28125 C 5.035156 -1.488281 5.363281 -1.75 5.625 -2.0625 L 5.625 -3.25 L 4.078125 -3.25 C 2.648438 -3.25 1.9375 -2.875 1.9375 -2.125 C 1.9375 -1.78125 2.050781 -1.503906 2.28125 -1.296875 C 2.519531 -1.085938 2.90625 -0.984375 3.4375 -0.984375 Z M 3.4375 -0.984375 "/></g></g></g><g fill="#196eff" fill-opacity="1"><g transform="translate(282.479776, 227.568002)"><g><path d="M 4.828125 0.140625 C 3.898438 0.140625 3.09375 -0.21875 2.40625 -0.9375 L 2.40625 -0.5625 C 2.40625 -0.382812 2.34375 -0.234375 2.21875 -0.109375 C 2.09375 0.015625 1.9375 0.078125 1.75 0.078125 C 1.570312 0.078125 1.421875 0.015625 1.296875 -0.109375 C 1.179688 -0.234375 1.125 -0.382812 1.125 -0.5625 L 1.125 -9.765625 C 1.125 -9.941406 1.179688 -10.09375 1.296875 -10.21875 C 1.421875 -10.351562 1.570312 -10.421875 1.75 -10.421875 C 1.945312 -10.421875 2.101562 -10.359375 2.21875 -10.234375 C 2.34375 -10.109375 2.40625 -9.953125 2.40625 -9.765625 L 2.40625 -6.296875 C 3.09375 -7.015625 3.898438 -7.375 4.828125 -7.375 C 5.421875 -7.375 5.976562 -7.222656 6.5 -6.921875 C 7.019531 -6.617188 7.441406 -6.179688 7.765625 -5.609375 C 8.097656 -5.046875 8.265625 -4.378906 8.265625 -3.609375 C 8.265625 -2.847656 8.097656 -2.179688 7.765625 -1.609375 C 7.441406 -1.035156 7.019531 -0.597656 6.5 -0.296875 C 5.976562 -0.00390625 5.421875 0.140625 4.828125 0.140625 Z M 4.640625 -1.0625 C 5.347656 -1.0625 5.910156 -1.28125 6.328125 -1.71875 C 6.753906 -2.164062 6.96875 -2.796875 6.96875 -3.609375 C 6.96875 -4.421875 6.753906 -5.050781 6.328125 -5.5 C 5.910156 -5.945312 5.347656 -6.171875 4.640625 -6.171875 C 4.210938 -6.171875 3.804688 -6.070312 3.421875 -5.875 C 3.035156 -5.675781 2.695312 -5.421875 2.40625 -5.109375 L 2.40625 -2.125 C 2.695312 -1.800781 3.035156 -1.539062 3.421875 -1.34375 C 3.804688 -1.15625 4.210938 -1.0625 4.640625 -1.0625 Z M 4.640625 -1.0625 "/></g></g></g><g fill="#196eff" fill-opacity="1"><g transform="translate(291.422039, 227.568002)"><g><path d="M 4.3125 0.140625 C 3.582031 0.140625 2.941406 -0.015625 2.390625 -0.328125 C 1.847656 -0.640625 1.425781 -1.082031 1.125 -1.65625 C 0.832031 -2.226562 0.6875 -2.878906 0.6875 -3.609375 C 0.6875 -4.347656 0.832031 -5.003906 1.125 -5.578125 C 1.425781 -6.148438 1.847656 -6.59375 2.390625 -6.90625 C 2.941406 -7.21875 3.582031 -7.375 4.3125 -7.375 C 5.03125 -7.375 5.660156 -7.21875 6.203125 -6.90625 C 6.753906 -6.59375 7.179688 -6.148438 7.484375 -5.578125 C 7.785156 -5.003906 7.9375 -4.347656 7.9375 -3.609375 C 7.9375 -2.878906 7.785156 -2.226562 7.484375 -1.65625 C 7.179688 -1.082031 6.753906 -0.640625 6.203125 -0.328125 C 5.660156 -0.015625 5.03125 0.140625 4.3125 0.140625 Z M 4.3125 -1.03125 C 4.695312 -1.03125 5.066406 -1.117188 5.421875 -1.296875 C 5.773438 -1.484375 6.066406 -1.769531 6.296875 -2.15625 C 6.523438 -2.539062 6.640625 -3.03125 6.640625 -3.625 C 6.640625 -4.207031 6.523438 -4.691406 6.296875 -5.078125 C 6.066406 -5.472656 5.773438 -5.753906 5.421875 -5.921875 C 5.066406 -6.097656 4.695312 -6.1875 4.3125 -6.1875 C 3.914062 -6.1875 3.539062 -6.097656 3.1875 -5.921875 C 2.832031 -5.753906 2.539062 -5.472656 2.3125 -5.078125 C 2.082031 -4.691406 1.96875 -4.207031 1.96875 -3.625 C 1.96875 -3.03125 2.082031 -2.539062 2.3125 -2.15625 C 2.539062 -1.769531 2.832031 -1.484375 3.1875 -1.296875 C 3.539062 -1.117188 3.914062 -1.03125 4.3125 -1.03125 Z M 4.3125 -1.03125 "/></g></g></g><g fill="#196eff" fill-opacity="1"><g transform="translate(300.038364, 227.568002)"><g><path d="M 1.75 0.078125 C 1.570312 0.078125 1.421875 0.015625 1.296875 -0.109375 C 1.179688 -0.234375 1.125 -0.382812 1.125 -0.5625 L 1.125 -6.640625 C 1.125 -6.828125 1.179688 -6.984375 1.296875 -7.109375 C 1.421875 -7.234375 1.570312 -7.296875 1.75 -7.296875 C 1.9375 -7.296875 2.09375 -7.234375 2.21875 -7.109375 C 2.34375 -6.984375 2.40625 -6.828125 2.40625 -6.640625 L 2.40625 -6.03125 C 3.070312 -6.925781 3.816406 -7.375 4.640625 -7.375 L 4.703125 -7.375 C 4.878906 -7.375 5.023438 -7.3125 5.140625 -7.1875 C 5.265625 -7.0625 5.328125 -6.910156 5.328125 -6.734375 C 5.328125 -6.554688 5.265625 -6.410156 5.140625 -6.296875 C 5.015625 -6.179688 4.859375 -6.125 4.671875 -6.125 L 4.609375 -6.125 C 4.148438 -6.125 3.734375 -6.007812 3.359375 -5.78125 C 2.984375 -5.5625 2.664062 -5.257812 2.40625 -4.875 L 2.40625 -0.5625 C 2.40625 -0.382812 2.34375 -0.234375 2.21875 -0.109375 C 2.09375 0.015625 1.9375 0.078125 1.75 0.078125 Z M 1.75 0.078125 "/></g></g></g><g fill="#196eff" fill-opacity="1"><g transform="translate(305.466095, 227.568002)"><g><path d="M 2.96875 0.140625 C 2.550781 0.140625 2.164062 0.0546875 1.8125 -0.109375 C 1.457031 -0.285156 1.175781 -0.535156 0.96875 -0.859375 C 0.757812 -1.179688 0.65625 -1.554688 0.65625 -1.984375 C 0.65625 -2.679688 0.929688 -3.238281 1.484375 -3.65625 C 2.035156 -4.070312 2.84375 -4.28125 3.90625 -4.28125 L 5.625 -4.28125 L 5.625 -4.390625 C 5.625 -5.015625 5.46875 -5.460938 5.15625 -5.734375 C 4.851562 -6.015625 4.378906 -6.15625 3.734375 -6.15625 C 3.367188 -6.15625 3.046875 -6.125 2.765625 -6.0625 C 2.492188 -6.007812 2.1875 -5.925781 1.84375 -5.8125 C 1.769531 -5.789062 1.707031 -5.78125 1.65625 -5.78125 C 1.519531 -5.78125 1.398438 -5.832031 1.296875 -5.9375 C 1.191406 -6.039062 1.140625 -6.171875 1.140625 -6.328125 C 1.140625 -6.578125 1.257812 -6.753906 1.5 -6.859375 C 2.300781 -7.203125 3.117188 -7.375 3.953125 -7.375 C 4.609375 -7.375 5.160156 -7.238281 5.609375 -6.96875 C 6.054688 -6.707031 6.382812 -6.363281 6.59375 -5.9375 C 6.8125 -5.519531 6.921875 -5.066406 6.921875 -4.578125 L 6.921875 -0.5625 C 6.921875 -0.382812 6.851562 -0.234375 6.71875 -0.109375 C 6.59375 0.015625 6.441406 0.078125 6.265625 0.078125 C 6.085938 0.078125 5.9375 0.015625 5.8125 -0.109375 C 5.6875 -0.234375 5.625 -0.382812 5.625 -0.5625 L 5.625 -0.9375 C 4.925781 -0.21875 4.039062 0.140625 2.96875 0.140625 Z M 3.4375 -0.984375 C 3.851562 -0.984375 4.253906 -1.082031 4.640625 -1.28125 C 5.035156 -1.488281 5.363281 -1.75 5.625 -2.0625 L 5.625 -3.25 L 4.078125 -3.25 C 2.648438 -3.25 1.9375 -2.875 1.9375 -2.125 C 1.9375 -1.78125 2.050781 -1.503906 2.28125 -1.296875 C 2.519531 -1.085938 2.90625 -0.984375 3.4375 -0.984375 Z M 3.4375 -0.984375 "/></g></g></g><g fill="#196eff" fill-opacity="1"><g transform="translate(313.430528, 227.568002)"><g><path d="M 3.609375 0.140625 C 2.234375 0.140625 1.546875 -0.484375 1.546875 -1.734375 L 1.546875 -6.125 L 0.53125 -6.125 C 0.457031 -6.125 0.394531 -6.148438 0.34375 -6.203125 C 0.289062 -6.253906 0.265625 -6.316406 0.265625 -6.390625 C 0.265625 -6.484375 0.304688 -6.5625 0.390625 -6.625 L 2.328125 -8.515625 C 2.410156 -8.597656 2.488281 -8.640625 2.5625 -8.640625 C 2.632812 -8.640625 2.695312 -8.609375 2.75 -8.546875 C 2.800781 -8.492188 2.828125 -8.429688 2.828125 -8.359375 L 2.828125 -7.234375 L 4.4375 -7.234375 C 4.59375 -7.234375 4.722656 -7.179688 4.828125 -7.078125 C 4.929688 -6.972656 4.984375 -6.835938 4.984375 -6.671875 C 4.984375 -6.523438 4.929688 -6.394531 4.828125 -6.28125 C 4.722656 -6.175781 4.59375 -6.125 4.4375 -6.125 L 2.828125 -6.125 L 2.828125 -1.84375 C 2.828125 -1.476562 2.914062 -1.242188 3.09375 -1.140625 C 3.269531 -1.035156 3.488281 -0.984375 3.75 -0.984375 C 3.9375 -0.984375 4.128906 -1.015625 4.328125 -1.078125 C 4.359375 -1.085938 4.394531 -1.097656 4.4375 -1.109375 C 4.476562 -1.117188 4.535156 -1.125 4.609375 -1.125 C 4.734375 -1.125 4.847656 -1.070312 4.953125 -0.96875 C 5.054688 -0.875 5.109375 -0.753906 5.109375 -0.609375 C 5.109375 -0.390625 5.003906 -0.222656 4.796875 -0.109375 C 4.421875 0.0546875 4.023438 0.140625 3.609375 0.140625 Z M 3.609375 0.140625 "/></g></g></g><g fill="#196eff" fill-opacity="1"><g transform="translate(318.844049, 227.568002)"><g><path d="M 4.3125 0.140625 C 3.582031 0.140625 2.941406 -0.015625 2.390625 -0.328125 C 1.847656 -0.640625 1.425781 -1.082031 1.125 -1.65625 C 0.832031 -2.226562 0.6875 -2.878906 0.6875 -3.609375 C 0.6875 -4.347656 0.832031 -5.003906 1.125 -5.578125 C 1.425781 -6.148438 1.847656 -6.59375 2.390625 -6.90625 C 2.941406 -7.21875 3.582031 -7.375 4.3125 -7.375 C 5.03125 -7.375 5.660156 -7.21875 6.203125 -6.90625 C 6.753906 -6.59375 7.179688 -6.148438 7.484375 -5.578125 C 7.785156 -5.003906 7.9375 -4.347656 7.9375 -3.609375 C 7.9375 -2.878906 7.785156 -2.226562 7.484375 -1.65625 C 7.179688 -1.082031 6.753906 -0.640625 6.203125 -0.328125 C 5.660156 -0.015625 5.03125 0.140625 4.3125 0.140625 Z M 4.3125 -1.03125 C 4.695312 -1.03125 5.066406 -1.117188 5.421875 -1.296875 C 5.773438 -1.484375 6.066406 -1.769531 6.296875 -2.15625 C 6.523438 -2.539062 6.640625 -3.03125 6.640625 -3.625 C 6.640625 -4.207031 6.523438 -4.691406 6.296875 -5.078125 C 6.066406 -5.472656 5.773438 -5.753906 5.421875 -5.921875 C 5.066406 -6.097656 4.695312 -6.1875 4.3125 -6.1875 C 3.914062 -6.1875 3.539062 -6.097656 3.1875 -5.921875 C 2.832031 -5.753906 2.539062 -5.472656 2.3125 -5.078125 C 2.082031 -4.691406 1.96875 -4.207031 1.96875 -3.625 C 1.96875 -3.03125 2.082031 -2.539062 2.3125 -2.15625 C 2.539062 -1.769531 2.832031 -1.484375 3.1875 -1.296875 C 3.539062 -1.117188 3.914062 -1.03125 4.3125 -1.03125 Z M 4.3125 -1.03125 "/></g></g></g><g fill="#196eff" fill-opacity="1"><g transform="translate(327.460359, 227.568002)"><g><path d="M 1.75 0.078125 C 1.570312 0.078125 1.421875 0.015625 1.296875 -0.109375 C 1.179688 -0.234375 1.125 -0.382812 1.125 -0.5625 L 1.125 -6.640625 C 1.125 -6.828125 1.179688 -6.984375 1.296875 -7.109375 C 1.421875 -7.234375 1.570312 -7.296875 1.75 -7.296875 C 1.9375 -7.296875 2.09375 -7.234375 2.21875 -7.109375 C 2.34375 -6.984375 2.40625 -6.828125 2.40625 -6.640625 L 2.40625 -6.03125 C 3.070312 -6.925781 3.816406 -7.375 4.640625 -7.375 L 4.703125 -7.375 C 4.878906 -7.375 5.023438 -7.3125 5.140625 -7.1875 C 5.265625 -7.0625 5.328125 -6.910156 5.328125 -6.734375 C 5.328125 -6.554688 5.265625 -6.410156 5.140625 -6.296875 C 5.015625 -6.179688 4.859375 -6.125 4.671875 -6.125 L 4.609375 -6.125 C 4.148438 -6.125 3.734375 -6.007812 3.359375 -5.78125 C 2.984375 -5.5625 2.664062 -5.257812 2.40625 -4.875 L 2.40625 -0.5625 C 2.40625 -0.382812 2.34375 -0.234375 2.21875 -0.109375 C 2.09375 0.015625 1.9375 0.078125 1.75 0.078125 Z M 1.75 0.078125 "/></g></g></g><g fill="#196eff" fill-opacity="1"><g transform="translate(332.88809, 227.568002)"><g><path d="M 2.734375 3.328125 C 2.566406 3.328125 2.421875 3.265625 2.296875 3.140625 C 2.179688 3.023438 2.125 2.878906 2.125 2.703125 C 2.125 2.628906 2.140625 2.554688 2.171875 2.484375 L 3.09375 0.109375 L 0.421875 -6.375 C 0.390625 -6.46875 0.375 -6.554688 0.375 -6.640625 C 0.375 -6.828125 0.429688 -6.984375 0.546875 -7.109375 C 0.671875 -7.234375 0.820312 -7.296875 1 -7.296875 C 1.132812 -7.296875 1.253906 -7.257812 1.359375 -7.1875 C 1.472656 -7.113281 1.550781 -7.019531 1.59375 -6.90625 L 3.78125 -1.484375 L 6.015625 -6.875 C 6.128906 -7.15625 6.328125 -7.296875 6.609375 -7.296875 C 6.785156 -7.296875 6.929688 -7.234375 7.046875 -7.109375 C 7.171875 -6.984375 7.234375 -6.828125 7.234375 -6.640625 C 7.234375 -6.554688 7.222656 -6.476562 7.203125 -6.40625 L 3.328125 2.890625 C 3.191406 3.179688 2.992188 3.328125 2.734375 3.328125 Z M 2.734375 3.328125 "/></g></g></g></svg>